M48
;Layer_Color=9474304
;FILE_FORMAT=4:4
METRIC,LZ
;TYPE=PLATED
T01F00S00C0.3048
T03F00S00C1.0000
T04F00S00C1.0160
;TYPE=NON_PLATED
T05F00S00C0.6000
T06F00S00C0.7501
T07F00S00C0.9000
T08F00S00C1.5000
T09F00S00C2.7500
%
T01
X00792937Y01064678
X00814324Y01075182
X00867309Y01075331
X00882137Y01044848
X0090678Y01087374
X00933196Y01091692
X00980593Y01093111
X0097282Y011049
X00965708Y01062228
X00962152Y01039876
X00982472Y01032764
X01011682Y0103251
X01044956Y01036828
X0107315Y01034542
X01087882Y01076452
X0105029Y01070864
X0106998Y01111626
X01119632Y01092454
X01155446Y01082548
X0117602Y01077468
X01168908Y01002792
X01158748Y00980948
X01135634Y00976122
X01112266Y00973582
X0114427Y00950468
X01127146Y00928222
X01172464Y00937768
X0102743Y00952754
X01016508Y00917702
X00993648Y0092583
X01199642Y0095631
X0121031Y01045718
X01209802Y01079754
T03
X0074422Y0115132
X0076962
Y0117672
X0074422
X0079502
X0082042
X0084582
X0087122
X0089662
X0092202
X0094742
X0097282
X0099822
X0102362
X0104902
X0107442
X0109982
X0112522
X0115062
X0117602
Y0115132
X0115062
X0112522
X0109982
X0107442
X0104902
X0102362
X0099822
X0097282
X0094742
X0092202
X0089662
X0087122
X0084582
X0082042
X0079502
X0120142
X0122682
Y0117672
X0120142
T04
X01278382Y01101852
Y01127252
T05
X01252504Y01000054
Y01057854
T06
X00666971Y0100076
X00694469
Y010922
X00666971
T07
X01089646Y00917956
X01119646
T08
X00903224Y0092385
Y0099385
T09
X0069552Y0093402
Y0116402
X0127552
Y0093402
M30
