G04*
G04 #@! TF.GenerationSoftware,Altium Limited,Altium Designer,24.0.1 (36)*
G04*
G04 Layer_Color=2752767*
%FSLAX44Y44*%
%MOMM*%
G71*
G04*
G04 #@! TF.SameCoordinates,AAA4E2E7-C06B-4B28-9501-2596A0623A30*
G04*
G04*
G04 #@! TF.FilePolarity,Positive*
G04*
G01*
G75*
%ADD13C,0.1270*%
%ADD20C,0.1016*%
%ADD101C,0.1693*%
D13*
X1084566Y912876D02*
Y923036D01*
X1094726D01*
Y912876D01*
X1084566D01*
X1086598Y914908D02*
Y921004D01*
X1092694D01*
Y914908D01*
X1086598D01*
X1114566Y912876D02*
Y923036D01*
X1124726D01*
Y912876D01*
X1114566D01*
X1116598Y914908D02*
Y921004D01*
X1122694D01*
Y914908D01*
X1116598D01*
X1273302Y1122172D02*
X1275842D01*
X1278382Y1124712D01*
X1280922Y1122172D01*
X1283462D01*
Y1124712D01*
X1280922Y1127252D01*
X1283462Y1129792D01*
Y1132332D01*
X1280922D01*
X1278382Y1129792D01*
X1275842Y1132332D01*
X1273302D01*
Y1129792D01*
X1275842Y1127252D01*
X1273302Y1124712D01*
Y1122172D01*
Y1096772D02*
X1275842D01*
X1278382Y1099312D01*
X1280922Y1096772D01*
X1283462D01*
Y1099312D01*
X1280922Y1101852D01*
X1283462Y1104392D01*
Y1106932D01*
X1280922D01*
X1278382Y1104392D01*
X1275842Y1106932D01*
X1273302D01*
Y1104392D01*
X1275842Y1101852D01*
X1273302Y1099312D01*
Y1096772D01*
X1249964Y997514D02*
Y994974D01*
X1255044D01*
Y997514D01*
X1257584D01*
Y1002594D01*
X1255044D01*
Y1005134D01*
X1249964D01*
Y1002594D01*
X1247424D01*
Y997514D01*
X1249964D01*
Y1055314D02*
Y1052774D01*
X1255044D01*
Y1055314D01*
X1257584D01*
Y1060394D01*
X1255044D01*
Y1062934D01*
X1249964D01*
Y1060394D01*
X1247424D01*
Y1055314D01*
X1249964D01*
X1242524Y980624D02*
X1245064Y985704D01*
X1242524Y990784D01*
X1247604Y988244D01*
X1252684Y990784D01*
X1250144Y985704D01*
X1252684Y980624D01*
X1247604Y983164D01*
X1242524Y980624D01*
Y1067124D02*
X1245064Y1072204D01*
X1242524Y1077284D01*
X1247604Y1074744D01*
X1252684Y1077284D01*
X1250144Y1072204D01*
X1252684Y1067124D01*
X1247604Y1069664D01*
X1242524Y1067124D01*
X1289304Y980624D02*
X1284224Y990784D01*
X1294384D01*
X1289304Y980624D01*
Y1067124D02*
X1284224Y1077284D01*
X1294384D01*
X1289304Y1067124D01*
X898144Y993850D02*
X903224Y998930D01*
X908304Y993850D01*
X903224Y988770D01*
X898144Y993850D01*
Y923850D02*
X903224Y928930D01*
X908304Y923850D01*
X903224Y918770D01*
X898144Y923850D01*
X1270440Y1158940D02*
Y1169100D01*
X1280600D01*
Y1158940D01*
X1270440D01*
Y928940D02*
Y939100D01*
X1280600D01*
Y928940D01*
X1270440D01*
X690440Y1158940D02*
Y1169100D01*
X700600D01*
Y1158940D01*
X690440D01*
Y928940D02*
Y939100D01*
X700600D01*
Y928940D01*
X690440D01*
X666971Y995680D02*
X669511Y998220D01*
X672051D01*
X669511Y1000760D01*
X672051Y1003300D01*
X669511D01*
X666971Y1005840D01*
X664431Y1003300D01*
X661891D01*
X664431Y1000760D01*
X661891Y998220D01*
X664431D01*
X666971Y995680D01*
X694469D02*
X697009Y998220D01*
X699549D01*
X697009Y1000760D01*
X699549Y1003300D01*
X697009D01*
X694469Y1005840D01*
X691929Y1003300D01*
X689389D01*
X691929Y1000760D01*
X689389Y998220D01*
X691929D01*
X694469Y995680D01*
X666971Y1087120D02*
X669511Y1089660D01*
X672051D01*
X669511Y1092200D01*
X672051Y1094740D01*
X669511D01*
X666971Y1097280D01*
X664431Y1094740D01*
X661891D01*
X664431Y1092200D01*
X661891Y1089660D01*
X664431D01*
X666971Y1087120D01*
X694469D02*
X697009Y1089660D01*
X699549D01*
X697009Y1092200D01*
X699549Y1094740D01*
X697009D01*
X694469Y1097280D01*
X691929Y1094740D01*
X689389D01*
X691929Y1092200D01*
X689389Y1089660D01*
X691929D01*
X694469Y1087120D01*
D20*
X983641Y1093111D02*
G03*
X983641Y1093111I-3048J0D01*
G01*
X975868Y1104900D02*
G03*
X975868Y1104900I-3048J0D01*
G01*
X870357Y1075331D02*
G03*
X870357Y1075331I-3048J0D01*
G01*
X1175512Y937768D02*
G03*
X1175512Y937768I-3048J0D01*
G01*
X1030478Y952754D02*
G03*
X1030478Y952754I-3048J0D01*
G01*
X936244Y1091692D02*
G03*
X936244Y1091692I-3048J0D01*
G01*
X909828Y1087374D02*
G03*
X909828Y1087374I-3048J0D01*
G01*
X1014730Y1032510D02*
G03*
X1014730Y1032510I-3048J0D01*
G01*
X985520Y1032764D02*
G03*
X985520Y1032764I-3048J0D01*
G01*
X1130194Y928222D02*
G03*
X1130194Y928222I-3048J0D01*
G01*
X1161796Y980948D02*
G03*
X1161796Y980948I-3048J0D01*
G01*
X1115314Y973582D02*
G03*
X1115314Y973582I-3048J0D01*
G01*
X1076198Y1034542D02*
G03*
X1076198Y1034542I-3048J0D01*
G01*
X965200Y1039876D02*
G03*
X965200Y1039876I-3048J0D01*
G01*
X795985Y1064678D02*
G03*
X795985Y1064678I-3048J0D01*
G01*
X1019556Y917702D02*
G03*
X1019556Y917702I-3048J0D01*
G01*
X996696Y925830D02*
G03*
X996696Y925830I-3048J0D01*
G01*
X885185Y1044848D02*
G03*
X885185Y1044848I-3048J0D01*
G01*
X1073028Y1111626D02*
G03*
X1073028Y1111626I-3048J0D01*
G01*
X968756Y1062228D02*
G03*
X968756Y1062228I-3048J0D01*
G01*
X817372Y1075182D02*
G03*
X817372Y1075182I-3048J0D01*
G01*
X1090930Y1076452D02*
G03*
X1090930Y1076452I-3048J0D01*
G01*
X1053338Y1070864D02*
G03*
X1053338Y1070864I-3048J0D01*
G01*
X1048004Y1036828D02*
G03*
X1048004Y1036828I-3048J0D01*
G01*
X1171956Y1002792D02*
G03*
X1171956Y1002792I-3048J0D01*
G01*
X1138682Y976122D02*
G03*
X1138682Y976122I-3048J0D01*
G01*
X1158494Y1082548D02*
G03*
X1158494Y1082548I-3048J0D01*
G01*
X1212850Y1079754D02*
G03*
X1212850Y1079754I-3048J0D01*
G01*
X1202690Y956310D02*
G03*
X1202690Y956310I-3048J0D01*
G01*
X1122680Y1092454D02*
G03*
X1122680Y1092454I-3048J0D01*
G01*
X1147318Y950468D02*
G03*
X1147318Y950468I-3048J0D01*
G01*
X1179068Y1077468D02*
G03*
X1179068Y1077468I-3048J0D01*
G01*
X1213358Y1045718D02*
G03*
X1213358Y1045718I-3048J0D01*
G01*
D101*
X1231900Y1176720D02*
G03*
X1231900Y1176720I-5080J0D01*
G01*
Y1151320D02*
G03*
X1231900Y1151320I-5080J0D01*
G01*
X1206500Y1176720D02*
G03*
X1206500Y1176720I-5080J0D01*
G01*
Y1151320D02*
G03*
X1206500Y1151320I-5080J0D01*
G01*
X1181100Y1176720D02*
G03*
X1181100Y1176720I-5080J0D01*
G01*
Y1151320D02*
G03*
X1181100Y1151320I-5080J0D01*
G01*
X1155700Y1176720D02*
G03*
X1155700Y1176720I-5080J0D01*
G01*
Y1151320D02*
G03*
X1155700Y1151320I-5080J0D01*
G01*
X1130300Y1176720D02*
G03*
X1130300Y1176720I-5080J0D01*
G01*
Y1151320D02*
G03*
X1130300Y1151320I-5080J0D01*
G01*
X1104900Y1176720D02*
G03*
X1104900Y1176720I-5080J0D01*
G01*
Y1151320D02*
G03*
X1104900Y1151320I-5080J0D01*
G01*
X1079500Y1176720D02*
G03*
X1079500Y1176720I-5080J0D01*
G01*
Y1151320D02*
G03*
X1079500Y1151320I-5080J0D01*
G01*
X1054100Y1176720D02*
G03*
X1054100Y1176720I-5080J0D01*
G01*
Y1151320D02*
G03*
X1054100Y1151320I-5080J0D01*
G01*
X1028700Y1176720D02*
G03*
X1028700Y1176720I-5080J0D01*
G01*
Y1151320D02*
G03*
X1028700Y1151320I-5080J0D01*
G01*
X1003300Y1176720D02*
G03*
X1003300Y1176720I-5080J0D01*
G01*
Y1151320D02*
G03*
X1003300Y1151320I-5080J0D01*
G01*
X977900Y1176720D02*
G03*
X977900Y1176720I-5080J0D01*
G01*
Y1151320D02*
G03*
X977900Y1151320I-5080J0D01*
G01*
X952500Y1176720D02*
G03*
X952500Y1176720I-5080J0D01*
G01*
Y1151320D02*
G03*
X952500Y1151320I-5080J0D01*
G01*
X927100Y1176720D02*
G03*
X927100Y1176720I-5080J0D01*
G01*
Y1151320D02*
G03*
X927100Y1151320I-5080J0D01*
G01*
X901700Y1176720D02*
G03*
X901700Y1176720I-5080J0D01*
G01*
Y1151320D02*
G03*
X901700Y1151320I-5080J0D01*
G01*
X876300Y1176720D02*
G03*
X876300Y1176720I-5080J0D01*
G01*
Y1151320D02*
G03*
X876300Y1151320I-5080J0D01*
G01*
X850900Y1176720D02*
G03*
X850900Y1176720I-5080J0D01*
G01*
Y1151320D02*
G03*
X850900Y1151320I-5080J0D01*
G01*
X825500Y1176720D02*
G03*
X825500Y1176720I-5080J0D01*
G01*
Y1151320D02*
G03*
X825500Y1151320I-5080J0D01*
G01*
X800100Y1176720D02*
G03*
X800100Y1176720I-5080J0D01*
G01*
Y1151320D02*
G03*
X800100Y1151320I-5080J0D01*
G01*
X774700Y1176720D02*
G03*
X774700Y1176720I-5080J0D01*
G01*
Y1151320D02*
G03*
X774700Y1151320I-5080J0D01*
G01*
X749300Y1176720D02*
G03*
X749300Y1176720I-5080J0D01*
G01*
Y1151320D02*
G03*
X749300Y1151320I-5080J0D01*
G01*
X985673Y1093111D02*
G03*
X985673Y1093111I-5080J0D01*
G01*
X977900Y1104900D02*
G03*
X977900Y1104900I-5080J0D01*
G01*
X872389Y1075331D02*
G03*
X872389Y1075331I-5080J0D01*
G01*
X1177544Y937768D02*
G03*
X1177544Y937768I-5080J0D01*
G01*
X1032510Y952754D02*
G03*
X1032510Y952754I-5080J0D01*
G01*
X938276Y1091692D02*
G03*
X938276Y1091692I-5080J0D01*
G01*
X911860Y1087374D02*
G03*
X911860Y1087374I-5080J0D01*
G01*
X1016762Y1032510D02*
G03*
X1016762Y1032510I-5080J0D01*
G01*
X987552Y1032764D02*
G03*
X987552Y1032764I-5080J0D01*
G01*
X1132226Y928222D02*
G03*
X1132226Y928222I-5080J0D01*
G01*
X1163828Y980948D02*
G03*
X1163828Y980948I-5080J0D01*
G01*
X1117346Y973582D02*
G03*
X1117346Y973582I-5080J0D01*
G01*
X1078230Y1034542D02*
G03*
X1078230Y1034542I-5080J0D01*
G01*
X967232Y1039876D02*
G03*
X967232Y1039876I-5080J0D01*
G01*
X798017Y1064678D02*
G03*
X798017Y1064678I-5080J0D01*
G01*
X1021588Y917702D02*
G03*
X1021588Y917702I-5080J0D01*
G01*
X998728Y925830D02*
G03*
X998728Y925830I-5080J0D01*
G01*
X887217Y1044848D02*
G03*
X887217Y1044848I-5080J0D01*
G01*
X1075060Y1111626D02*
G03*
X1075060Y1111626I-5080J0D01*
G01*
X970788Y1062228D02*
G03*
X970788Y1062228I-5080J0D01*
G01*
X819404Y1075182D02*
G03*
X819404Y1075182I-5080J0D01*
G01*
X1092962Y1076452D02*
G03*
X1092962Y1076452I-5080J0D01*
G01*
X1055370Y1070864D02*
G03*
X1055370Y1070864I-5080J0D01*
G01*
X1050036Y1036828D02*
G03*
X1050036Y1036828I-5080J0D01*
G01*
X1173988Y1002792D02*
G03*
X1173988Y1002792I-5080J0D01*
G01*
X1140714Y976122D02*
G03*
X1140714Y976122I-5080J0D01*
G01*
X1160526Y1082548D02*
G03*
X1160526Y1082548I-5080J0D01*
G01*
X1214882Y1079754D02*
G03*
X1214882Y1079754I-5080J0D01*
G01*
X1204722Y956310D02*
G03*
X1204722Y956310I-5080J0D01*
G01*
X1124712Y1092454D02*
G03*
X1124712Y1092454I-5080J0D01*
G01*
X1149350Y950468D02*
G03*
X1149350Y950468I-5080J0D01*
G01*
X1181100Y1077468D02*
G03*
X1181100Y1077468I-5080J0D01*
G01*
X1215390Y1045718D02*
G03*
X1215390Y1045718I-5080J0D01*
G01*
M02*
