G04*
G04 #@! TF.GenerationSoftware,Altium Limited,Altium Designer,24.0.1 (36)*
G04*
G04 Layer_Color=128*
%FSLAX44Y44*%
%MOMM*%
G71*
G04*
G04 #@! TF.SameCoordinates,AAA4E2E7-C06B-4B28-9501-2596A0623A30*
G04*
G04*
G04 #@! TF.FilePolarity,Positive*
G04*
G01*
G75*
%ADD13C,0.1270*%
D13*
X1085146Y917956D02*
X1094146D01*
X1089646Y913456D02*
Y922456D01*
X1115146Y917956D02*
X1124146D01*
X1119646Y913456D02*
Y922456D01*
X1273302Y1127252D02*
X1283462D01*
X1278382Y1122172D02*
Y1132332D01*
X1273302Y1101852D02*
X1283462D01*
X1278382Y1096772D02*
Y1106932D01*
X1249504Y1000054D02*
X1255504D01*
X1252504Y997054D02*
Y1003054D01*
X1249504Y1057854D02*
X1255504D01*
X1252504Y1054854D02*
Y1060854D01*
X1244604Y985704D02*
X1250604D01*
X1247604Y982704D02*
Y988704D01*
X1244604Y1072204D02*
X1250604D01*
X1247604Y1069204D02*
Y1075204D01*
X1286304Y985704D02*
X1292304D01*
X1289304Y982704D02*
Y988704D01*
X1286304Y1072204D02*
X1292304D01*
X1289304Y1069204D02*
Y1075204D01*
X895724Y993850D02*
X910724D01*
X903224Y986350D02*
Y1001350D01*
X895724Y923850D02*
X910724D01*
X903224Y916350D02*
Y931350D01*
X1261770Y1164020D02*
X1289270D01*
X1275520Y1150270D02*
Y1177770D01*
X1261770Y934020D02*
X1289270D01*
X1275520Y920270D02*
Y947770D01*
X681770Y1164020D02*
X709270D01*
X695520Y1150270D02*
Y1177770D01*
X681770Y934020D02*
X709270D01*
X695520Y920270D02*
Y947770D01*
X1221820Y1176720D02*
X1231820D01*
X1226820Y1171720D02*
Y1181720D01*
X1221820Y1151320D02*
X1231820D01*
X1226820Y1146320D02*
Y1156320D01*
X1196420Y1176720D02*
X1206420D01*
X1201420Y1171720D02*
Y1181720D01*
X1196420Y1151320D02*
X1206420D01*
X1201420Y1146320D02*
Y1156320D01*
X1171020Y1176720D02*
X1181020D01*
X1176020Y1171720D02*
Y1181720D01*
X1171020Y1151320D02*
X1181020D01*
X1176020Y1146320D02*
Y1156320D01*
X1145620Y1176720D02*
X1155620D01*
X1150620Y1171720D02*
Y1181720D01*
X1145620Y1151320D02*
X1155620D01*
X1150620Y1146320D02*
Y1156320D01*
X1120220Y1176720D02*
X1130220D01*
X1125220Y1171720D02*
Y1181720D01*
X1120220Y1151320D02*
X1130220D01*
X1125220Y1146320D02*
Y1156320D01*
X1094820Y1176720D02*
X1104820D01*
X1099820Y1171720D02*
Y1181720D01*
X1094820Y1151320D02*
X1104820D01*
X1099820Y1146320D02*
Y1156320D01*
X1069420Y1176720D02*
X1079420D01*
X1074420Y1171720D02*
Y1181720D01*
X1069420Y1151320D02*
X1079420D01*
X1074420Y1146320D02*
Y1156320D01*
X1044020Y1176720D02*
X1054020D01*
X1049020Y1171720D02*
Y1181720D01*
X1044020Y1151320D02*
X1054020D01*
X1049020Y1146320D02*
Y1156320D01*
X1018620Y1176720D02*
X1028620D01*
X1023620Y1171720D02*
Y1181720D01*
X1018620Y1151320D02*
X1028620D01*
X1023620Y1146320D02*
Y1156320D01*
X993220Y1176720D02*
X1003220D01*
X998220Y1171720D02*
Y1181720D01*
X993220Y1151320D02*
X1003220D01*
X998220Y1146320D02*
Y1156320D01*
X967820Y1176720D02*
X977820D01*
X972820Y1171720D02*
Y1181720D01*
X967820Y1151320D02*
X977820D01*
X972820Y1146320D02*
Y1156320D01*
X942420Y1176720D02*
X952420D01*
X947420Y1171720D02*
Y1181720D01*
X942420Y1151320D02*
X952420D01*
X947420Y1146320D02*
Y1156320D01*
X917020Y1176720D02*
X927020D01*
X922020Y1171720D02*
Y1181720D01*
X917020Y1151320D02*
X927020D01*
X922020Y1146320D02*
Y1156320D01*
X891620Y1176720D02*
X901620D01*
X896620Y1171720D02*
Y1181720D01*
X891620Y1151320D02*
X901620D01*
X896620Y1146320D02*
Y1156320D01*
X866220Y1176720D02*
X876220D01*
X871220Y1171720D02*
Y1181720D01*
X866220Y1151320D02*
X876220D01*
X871220Y1146320D02*
Y1156320D01*
X840820Y1176720D02*
X850820D01*
X845820Y1171720D02*
Y1181720D01*
X840820Y1151320D02*
X850820D01*
X845820Y1146320D02*
Y1156320D01*
X815420Y1176720D02*
X825420D01*
X820420Y1171720D02*
Y1181720D01*
X815420Y1151320D02*
X825420D01*
X820420Y1146320D02*
Y1156320D01*
X790020Y1176720D02*
X800020D01*
X795020Y1171720D02*
Y1181720D01*
X790020Y1151320D02*
X800020D01*
X795020Y1146320D02*
Y1156320D01*
X764620Y1176720D02*
X774620D01*
X769620Y1171720D02*
Y1181720D01*
X764620Y1151320D02*
X774620D01*
X769620Y1146320D02*
Y1156320D01*
X739220Y1176720D02*
X749220D01*
X744220Y1171720D02*
Y1181720D01*
X739220Y1151320D02*
X749220D01*
X744220Y1146320D02*
Y1156320D01*
X663221Y1000760D02*
X670721D01*
X666971Y997010D02*
Y1004510D01*
X690719Y1000760D02*
X698219D01*
X694469Y997010D02*
Y1004510D01*
X663221Y1092200D02*
X670721D01*
X666971Y1088450D02*
Y1095950D01*
X690719Y1092200D02*
X698219D01*
X694469Y1088450D02*
Y1095950D01*
X979069Y1093111D02*
X982117D01*
X980593Y1091587D02*
Y1094635D01*
X971296Y1104900D02*
X974344D01*
X972820Y1103376D02*
Y1106424D01*
X865785Y1075331D02*
X868833D01*
X867309Y1073807D02*
Y1076855D01*
X1170940Y937768D02*
X1173988D01*
X1172464Y936244D02*
Y939292D01*
X1025906Y952754D02*
X1028954D01*
X1027430Y951230D02*
Y954278D01*
X931672Y1091692D02*
X934720D01*
X933196Y1090168D02*
Y1093216D01*
X905256Y1087374D02*
X908304D01*
X906780Y1085850D02*
Y1088898D01*
X1010158Y1032510D02*
X1013206D01*
X1011682Y1030986D02*
Y1034034D01*
X980948Y1032764D02*
X983996D01*
X982472Y1031240D02*
Y1034288D01*
X1125622Y928222D02*
X1128670D01*
X1127146Y926698D02*
Y929746D01*
X1157224Y980948D02*
X1160272D01*
X1158748Y979424D02*
Y982472D01*
X1110742Y973582D02*
X1113790D01*
X1112266Y972058D02*
Y975106D01*
X1071626Y1034542D02*
X1074674D01*
X1073150Y1033018D02*
Y1036066D01*
X960628Y1039876D02*
X963676D01*
X962152Y1038352D02*
Y1041400D01*
X791413Y1064678D02*
X794461D01*
X792937Y1063154D02*
Y1066202D01*
X1014984Y917702D02*
X1018032D01*
X1016508Y916178D02*
Y919226D01*
X992124Y925830D02*
X995172D01*
X993648Y924306D02*
Y927354D01*
X880613Y1044848D02*
X883661D01*
X882137Y1043324D02*
Y1046372D01*
X1068456Y1111626D02*
X1071504D01*
X1069980Y1110102D02*
Y1113150D01*
X964184Y1062228D02*
X967232D01*
X965708Y1060704D02*
Y1063752D01*
X812800Y1075182D02*
X815848D01*
X814324Y1073658D02*
Y1076706D01*
X1086358Y1076452D02*
X1089406D01*
X1087882Y1074928D02*
Y1077976D01*
X1048766Y1070864D02*
X1051814D01*
X1050290Y1069340D02*
Y1072388D01*
X1043432Y1036828D02*
X1046480D01*
X1044956Y1035304D02*
Y1038352D01*
X1167384Y1002792D02*
X1170432D01*
X1168908Y1001268D02*
Y1004316D01*
X1134110Y976122D02*
X1137158D01*
X1135634Y974598D02*
Y977646D01*
X1153922Y1082548D02*
X1156970D01*
X1155446Y1081024D02*
Y1084072D01*
X1208278Y1079754D02*
X1211326D01*
X1209802Y1078230D02*
Y1081278D01*
X1198118Y956310D02*
X1201166D01*
X1199642Y954786D02*
Y957834D01*
X1118108Y1092454D02*
X1121156D01*
X1119632Y1090930D02*
Y1093978D01*
X1142746Y950468D02*
X1145794D01*
X1144270Y948944D02*
Y951992D01*
X1174496Y1077468D02*
X1177544D01*
X1176020Y1075944D02*
Y1078992D01*
X1208786Y1045718D02*
X1211834D01*
X1210310Y1044194D02*
Y1047242D01*
M02*
