G04*
G04 #@! TF.GenerationSoftware,Altium Limited,Altium Designer,24.0.1 (36)*
G04*
G04 Layer_Color=32896*
%FSLAX44Y44*%
%MOMM*%
G71*
G04*
G04 #@! TF.SameCoordinates,AAA4E2E7-C06B-4B28-9501-2596A0623A30*
G04*
G04*
G04 #@! TF.FilePolarity,Positive*
G04*
G01*
G75*
%ADD14C,0.6350*%
%ADD15C,0.5080*%
%ADD16C,0.3810*%
%ADD21R,0.8382X1.6510*%
%ADD23R,0.3810X0.3810*%
G36*
X1184910Y1189482D02*
X1195070D01*
Y1187450D01*
X1203198D01*
Y1185418D01*
X1209294D01*
Y1183386D01*
X1213358D01*
Y1181354D01*
X1219454D01*
Y1179322D01*
X1223518D01*
Y1177290D01*
X1227582D01*
Y1175258D01*
X1231646D01*
Y1173226D01*
X1233678D01*
Y1171194D01*
X1231646D01*
Y1173226D01*
X1225550D01*
Y1175258D01*
X1217422D01*
Y1177290D01*
X1209294D01*
Y1179322D01*
X1162558D01*
Y1177290D01*
X1154430D01*
Y1175258D01*
X1146302D01*
Y1173226D01*
X1140206D01*
Y1171194D01*
X1136142D01*
Y1169162D01*
X1130046D01*
Y1167130D01*
X1125982D01*
Y1165098D01*
X1121918D01*
Y1163066D01*
X1119886D01*
Y1161034D01*
X1115822D01*
Y1159002D01*
X1111758D01*
Y1156970D01*
X1109726D01*
Y1154938D01*
X1107694D01*
Y1152906D01*
X1103630D01*
Y1150874D01*
X1101598D01*
Y1148842D01*
X1099566D01*
Y1146810D01*
X1097534D01*
Y1144778D01*
X1095502D01*
Y1142746D01*
X1093470D01*
Y1140714D01*
X1091438D01*
Y1138682D01*
X1089406D01*
Y1136650D01*
X1087374D01*
Y1134618D01*
X1085342D01*
Y1132586D01*
X1083310D01*
Y1130554D01*
X1081278D01*
Y1128522D01*
Y1126490D01*
X1079246D01*
Y1124458D01*
X1077214D01*
Y1122426D01*
X1075182D01*
Y1120394D01*
X1071118D01*
Y1122426D01*
X1067054D01*
Y1124458D01*
X1062990D01*
Y1126490D01*
X1060958D01*
Y1128522D01*
Y1130554D01*
X1058926D01*
Y1132586D01*
Y1134618D01*
X1056894D01*
Y1136650D01*
Y1138682D01*
Y1140714D01*
Y1142746D01*
X1058926D01*
Y1144778D01*
Y1146810D01*
Y1148842D01*
X1060958D01*
Y1150874D01*
X1062990D01*
Y1152906D01*
X1065022D01*
Y1154938D01*
X1067054D01*
Y1156970D01*
X1069086D01*
Y1159002D01*
X1071118D01*
Y1161034D01*
X1073150D01*
Y1163066D01*
X1077214D01*
Y1165098D01*
X1079246D01*
Y1167130D01*
X1083310D01*
Y1169162D01*
X1085342D01*
Y1171194D01*
X1089406D01*
Y1173226D01*
X1091438D01*
Y1175258D01*
X1095502D01*
Y1177290D01*
X1099566D01*
Y1179322D01*
X1105662D01*
Y1181354D01*
X1109726D01*
Y1183386D01*
X1115822D01*
Y1185418D01*
X1121918D01*
Y1187450D01*
X1130046D01*
Y1189482D01*
X1138174D01*
Y1191514D01*
X1184910D01*
Y1189482D01*
D02*
G37*
G36*
X1193038Y1167130D02*
X1209294D01*
Y1165098D01*
X1217422D01*
Y1163066D01*
X1223518D01*
Y1161034D01*
X1229614D01*
Y1159002D01*
X1233678D01*
Y1156970D01*
X1237742D01*
Y1154938D01*
X1241806D01*
Y1152906D01*
X1245870D01*
Y1150874D01*
X1249934D01*
Y1148842D01*
X1251966D01*
Y1146810D01*
X1253998D01*
Y1144778D01*
X1258062D01*
Y1142746D01*
X1260094D01*
Y1140714D01*
X1262126D01*
Y1138682D01*
X1264158D01*
Y1136650D01*
X1266190D01*
Y1134618D01*
X1268222D01*
Y1132586D01*
X1270254D01*
Y1130554D01*
X1272286D01*
Y1128522D01*
X1274318D01*
Y1126490D01*
X1276350D01*
Y1124458D01*
X1278382D01*
Y1122426D01*
X1280414D01*
Y1120394D01*
X1282446D01*
Y1118362D01*
Y1116330D01*
X1284478D01*
Y1114298D01*
X1286510D01*
Y1112266D01*
Y1110234D01*
X1288542D01*
Y1108202D01*
Y1106170D01*
X1290574D01*
Y1104138D01*
Y1102106D01*
X1292606D01*
Y1100074D01*
Y1098042D01*
X1294638D01*
Y1096010D01*
Y1093978D01*
X1296670D01*
Y1091946D01*
Y1089914D01*
Y1087882D01*
X1298702D01*
Y1085850D01*
Y1083818D01*
Y1081786D01*
X1300734D01*
Y1079754D01*
Y1077722D01*
Y1075690D01*
Y1073658D01*
X1302766D01*
Y1071626D01*
Y1069594D01*
Y1067562D01*
Y1065530D01*
Y1063498D01*
Y1061466D01*
Y1059434D01*
Y1057402D01*
X1304798D01*
Y1055370D01*
Y1053338D01*
Y1051306D01*
Y1049274D01*
Y1047242D01*
Y1045210D01*
Y1043178D01*
Y1041146D01*
Y1039114D01*
Y1037082D01*
X1302766D01*
Y1035050D01*
Y1033018D01*
Y1030986D01*
Y1028954D01*
Y1026922D01*
Y1024890D01*
X1300734D01*
Y1022858D01*
Y1020826D01*
Y1018794D01*
Y1016762D01*
X1298702D01*
Y1014730D01*
Y1012698D01*
Y1010666D01*
X1296670D01*
Y1008634D01*
Y1006602D01*
Y1004570D01*
X1294638D01*
Y1002538D01*
Y1000506D01*
X1292606D01*
Y998474D01*
Y996442D01*
X1290574D01*
Y994410D01*
Y992378D01*
X1288542D01*
Y990346D01*
Y988314D01*
X1286510D01*
Y986282D01*
Y984250D01*
X1284478D01*
Y982218D01*
X1282446D01*
Y980186D01*
X1280414D01*
Y978154D01*
Y976122D01*
X1278382D01*
Y974090D01*
X1276350D01*
Y972058D01*
X1274318D01*
Y970026D01*
X1272286D01*
Y967994D01*
X1270254D01*
Y965962D01*
X1268222D01*
Y963930D01*
X1266190D01*
Y961898D01*
X1264158D01*
Y959866D01*
X1262126D01*
Y957834D01*
X1260094D01*
Y955802D01*
X1258062D01*
Y953770D01*
X1253998D01*
Y951738D01*
X1251966D01*
Y949706D01*
X1247902D01*
Y947674D01*
X1243838D01*
Y945642D01*
X1241806D01*
Y943610D01*
X1237742D01*
Y941578D01*
X1231646D01*
Y939546D01*
X1227582D01*
Y937514D01*
X1221486D01*
Y935482D01*
X1215390D01*
Y933450D01*
X1205230D01*
Y931418D01*
X1166622D01*
Y933450D01*
X1156462D01*
Y935482D01*
X1148334D01*
Y937514D01*
X1142238D01*
Y939546D01*
X1138174D01*
Y941578D01*
X1134110D01*
Y943610D01*
X1130046D01*
Y945642D01*
X1125982D01*
Y947674D01*
X1121918D01*
Y949706D01*
X1119886D01*
Y951738D01*
X1117854D01*
Y953770D01*
X1113790D01*
Y955802D01*
X1111758D01*
Y957834D01*
X1109726D01*
Y959866D01*
X1107694D01*
Y961898D01*
X1103630D01*
Y963930D01*
X1101598D01*
Y965962D01*
X1099566D01*
Y967994D01*
Y970026D01*
X1097534D01*
Y972058D01*
X1095502D01*
Y974090D01*
X1093470D01*
Y976122D01*
X1091438D01*
Y978154D01*
X1101598D01*
Y976122D01*
X1103630D01*
Y974090D01*
X1105662D01*
Y972058D01*
X1107694D01*
Y970026D01*
X1111758D01*
Y967994D01*
X1115822D01*
Y965962D01*
X1117854D01*
Y963930D01*
X1123950D01*
Y961898D01*
X1128014D01*
Y959866D01*
X1134110D01*
Y957834D01*
X1142238D01*
Y955802D01*
X1156462D01*
Y953770D01*
X1166622D01*
Y955802D01*
X1182878D01*
Y957834D01*
X1188974D01*
Y959866D01*
X1195070D01*
Y961898D01*
X1201166D01*
Y963930D01*
X1205230D01*
Y965962D01*
X1209294D01*
Y967994D01*
X1211326D01*
Y970026D01*
X1215390D01*
Y972058D01*
X1217422D01*
Y974090D01*
X1221486D01*
Y976122D01*
X1223518D01*
Y978154D01*
X1225550D01*
Y980186D01*
X1227582D01*
Y982218D01*
X1229614D01*
Y984250D01*
X1231646D01*
Y986282D01*
X1233678D01*
Y988314D01*
X1235710D01*
Y990346D01*
X1237742D01*
Y992378D01*
Y994410D01*
X1239774D01*
Y996442D01*
X1241806D01*
Y998474D01*
Y1000506D01*
X1243838D01*
Y1002538D01*
X1245870D01*
Y1004570D01*
Y1006602D01*
X1247902D01*
Y1008634D01*
Y1010666D01*
X1249934D01*
Y1012698D01*
Y1014730D01*
Y1016762D01*
X1251966D01*
Y1018794D01*
Y1020826D01*
Y1022858D01*
X1253998D01*
Y1024890D01*
Y1026922D01*
Y1028954D01*
Y1030986D01*
X1256030D01*
Y1033018D01*
Y1035050D01*
Y1037082D01*
Y1039114D01*
Y1041146D01*
Y1043178D01*
Y1045210D01*
Y1047242D01*
Y1049274D01*
Y1051306D01*
Y1053338D01*
Y1055370D01*
Y1057402D01*
Y1059434D01*
Y1061466D01*
Y1063498D01*
Y1065530D01*
Y1067562D01*
Y1069594D01*
X1253998D01*
Y1071626D01*
Y1073658D01*
Y1075690D01*
Y1077722D01*
X1251966D01*
Y1079754D01*
Y1081786D01*
Y1083818D01*
X1249934D01*
Y1085850D01*
Y1087882D01*
X1247902D01*
Y1089914D01*
Y1091946D01*
X1245870D01*
Y1093978D01*
Y1096010D01*
X1243838D01*
Y1098042D01*
Y1100074D01*
X1241806D01*
Y1102106D01*
X1239774D01*
Y1104138D01*
Y1106170D01*
X1237742D01*
Y1108202D01*
X1235710D01*
Y1110234D01*
X1233678D01*
Y1112266D01*
X1231646D01*
Y1114298D01*
Y1116330D01*
X1229614D01*
Y1118362D01*
X1227582D01*
Y1120394D01*
X1225550D01*
Y1122426D01*
X1221486D01*
Y1124458D01*
X1219454D01*
Y1126490D01*
X1217422D01*
Y1128522D01*
X1213358D01*
Y1130554D01*
X1211326D01*
Y1132586D01*
X1207262D01*
Y1134618D01*
X1203198D01*
Y1136650D01*
X1197102D01*
Y1138682D01*
X1193038D01*
Y1140714D01*
X1186942D01*
Y1142746D01*
X1176782D01*
Y1144778D01*
X1148334D01*
Y1142746D01*
X1138174D01*
Y1140714D01*
X1132078D01*
Y1138682D01*
X1125982D01*
Y1136650D01*
X1121918D01*
Y1134618D01*
X1117854D01*
Y1132586D01*
X1113790D01*
Y1130554D01*
X1109726D01*
Y1128522D01*
X1107694D01*
Y1126490D01*
X1103630D01*
Y1124458D01*
X1101598D01*
Y1122426D01*
X1099566D01*
Y1120394D01*
X1091438D01*
Y1122426D01*
X1093470D01*
Y1124458D01*
Y1126490D01*
X1095502D01*
Y1128522D01*
X1097534D01*
Y1130554D01*
X1099566D01*
Y1132586D01*
X1101598D01*
Y1134618D01*
X1103630D01*
Y1136650D01*
X1105662D01*
Y1138682D01*
X1107694D01*
Y1140714D01*
X1111758D01*
Y1142746D01*
X1113790D01*
Y1144778D01*
X1115822D01*
Y1146810D01*
X1119886D01*
Y1148842D01*
X1121918D01*
Y1150874D01*
X1125982D01*
Y1152906D01*
X1128014D01*
Y1154938D01*
X1132078D01*
Y1156970D01*
X1136142D01*
Y1159002D01*
X1142238D01*
Y1161034D01*
X1148334D01*
Y1163066D01*
X1154430D01*
Y1165098D01*
X1164590D01*
Y1167130D01*
X1178814D01*
Y1169162D01*
X1193038D01*
Y1167130D01*
D02*
G37*
G36*
X1077214Y976122D02*
Y974090D01*
X1079246D01*
Y972058D01*
X1081278D01*
Y970026D01*
X1083310D01*
Y967994D01*
X1085342D01*
Y965962D01*
X1087374D01*
Y963930D01*
Y961898D01*
X1089406D01*
Y959866D01*
X1091438D01*
Y957834D01*
X1093470D01*
Y955802D01*
X1095502D01*
Y953770D01*
X1099566D01*
Y951738D01*
X1101598D01*
Y949706D01*
X1103630D01*
Y947674D01*
X1105662D01*
Y945642D01*
X1107694D01*
Y943610D01*
X1111758D01*
Y941578D01*
X1113790D01*
Y939546D01*
X1117854D01*
Y937514D01*
X1119886D01*
Y935482D01*
X1123950D01*
Y933450D01*
X1128014D01*
Y931418D01*
X1132078D01*
Y929386D01*
X1138174D01*
Y927354D01*
X1142238D01*
Y925322D01*
X1148334D01*
Y923290D01*
X1158494D01*
Y921258D01*
X1170686D01*
Y919226D01*
X1199134D01*
Y921258D01*
X1213358D01*
Y923290D01*
X1221486D01*
Y925322D01*
X1227582D01*
Y927354D01*
X1233678D01*
Y925322D01*
X1229614D01*
Y923290D01*
X1225550D01*
Y921258D01*
X1221486D01*
Y919226D01*
X1217422D01*
Y917194D01*
X1211326D01*
Y915162D01*
X1205230D01*
Y913130D01*
X1199134D01*
Y911098D01*
X1191006D01*
Y909066D01*
X1176782D01*
Y907034D01*
X1144270D01*
Y909066D01*
X1132078D01*
Y911098D01*
X1123950D01*
Y913130D01*
X1117854D01*
Y915162D01*
X1111758D01*
Y917194D01*
X1107694D01*
Y919226D01*
X1101598D01*
Y921258D01*
X1097534D01*
Y923290D01*
X1093470D01*
Y925322D01*
X1091438D01*
Y927354D01*
X1087374D01*
Y929386D01*
X1083310D01*
Y931418D01*
X1081278D01*
Y933450D01*
X1077214D01*
Y935482D01*
X1075182D01*
Y937514D01*
X1073150D01*
Y939546D01*
X1071118D01*
Y941578D01*
X1067054D01*
Y943610D01*
X1065022D01*
Y945642D01*
X1062990D01*
Y947674D01*
X1060958D01*
Y949706D01*
Y951738D01*
X1058926D01*
Y953770D01*
Y955802D01*
X1056894D01*
Y957834D01*
Y959866D01*
Y961898D01*
Y963930D01*
X1058926D01*
Y965962D01*
Y967994D01*
Y970026D01*
X1060958D01*
Y972058D01*
X1062990D01*
Y974090D01*
X1065022D01*
Y976122D01*
X1069086D01*
Y978154D01*
X1077214D01*
Y976122D01*
D02*
G37*
D14*
X1081700Y995003D02*
G03*
X1081735Y1104057I103385J54494D01*
G01*
X1055522Y957531D02*
G03*
X1240383Y929715I107095J83553D01*
G01*
X1053296Y1139389D02*
G03*
X1072831Y1120709I19300J628D01*
G01*
D15*
X1082606Y995584D02*
G03*
X1082505Y1103263I78349J53912D01*
G01*
X1232848Y1172201D02*
G03*
X1074352Y1121655I-44207J-135150D01*
G01*
X1233345Y1171671D02*
G03*
X1052802Y1139822I-72894J-114434D01*
G01*
D16*
X1076058Y978844D02*
G03*
X1239902Y931053I110347J73554D01*
G01*
X1075637Y978758D02*
G03*
X1053992Y957428I6578J-28322D01*
G01*
D21*
X1059736Y1135730D02*
D03*
D23*
X1057450Y958692D02*
D03*
M02*
