G04*
G04 #@! TF.GenerationSoftware,Altium Limited,Altium Designer,24.0.1 (36)*
G04*
G04 Layer_Physical_Order=1*
G04 Layer_Color=255*
%FSLAX44Y44*%
%MOMM*%
G71*
G04*
G04 #@! TF.SameCoordinates,AAA4E2E7-C06B-4B28-9501-2596A0623A30*
G04*
G04*
G04 #@! TF.FilePolarity,Positive*
G04*
G01*
G75*
%ADD13C,0.1270*%
%ADD16C,0.3810*%
%ADD24R,0.4900X0.6000*%
%ADD25R,0.6000X0.4900*%
%ADD26R,0.2900X0.3000*%
%ADD27R,0.3000X0.2900*%
%ADD28R,0.8000X0.8000*%
%ADD29R,1.2100X0.5900*%
G04:AMPARAMS|DCode=30|XSize=1.97mm|YSize=0.6mm|CornerRadius=0.075mm|HoleSize=0mm|Usage=FLASHONLY|Rotation=0.000|XOffset=0mm|YOffset=0mm|HoleType=Round|Shape=RoundedRectangle|*
%AMROUNDEDRECTD30*
21,1,1.9700,0.4500,0,0,0.0*
21,1,1.8200,0.6000,0,0,0.0*
1,1,0.1500,0.9100,-0.2250*
1,1,0.1500,-0.9100,-0.2250*
1,1,0.1500,-0.9100,0.2250*
1,1,0.1500,0.9100,0.2250*
%
%ADD30ROUNDEDRECTD30*%
%ADD31R,0.7000X1.1000*%
%ADD32R,1.0000X0.8000*%
G04:AMPARAMS|DCode=33|XSize=1.56mm|YSize=0.4mm|CornerRadius=0.05mm|HoleSize=0mm|Usage=FLASHONLY|Rotation=180.000|XOffset=0mm|YOffset=0mm|HoleType=Round|Shape=RoundedRectangle|*
%AMROUNDEDRECTD33*
21,1,1.5600,0.3000,0,0,180.0*
21,1,1.4600,0.4000,0,0,180.0*
1,1,0.1000,-0.7300,0.1500*
1,1,0.1000,0.7300,0.1500*
1,1,0.1000,0.7300,-0.1500*
1,1,0.1000,-0.7300,-0.1500*
%
%ADD33ROUNDEDRECTD33*%
G04:AMPARAMS|DCode=34|XSize=0.26mm|YSize=0.84mm|CornerRadius=0.0325mm|HoleSize=0mm|Usage=FLASHONLY|Rotation=90.000|XOffset=0mm|YOffset=0mm|HoleType=Round|Shape=RoundedRectangle|*
%AMROUNDEDRECTD34*
21,1,0.2600,0.7750,0,0,90.0*
21,1,0.1950,0.8400,0,0,90.0*
1,1,0.0650,0.3875,0.0975*
1,1,0.0650,0.3875,-0.0975*
1,1,0.0650,-0.3875,-0.0975*
1,1,0.0650,-0.3875,0.0975*
%
%ADD34ROUNDEDRECTD34*%
G04:AMPARAMS|DCode=35|XSize=0.84mm|YSize=0.26mm|CornerRadius=0.0325mm|HoleSize=0mm|Usage=FLASHONLY|Rotation=90.000|XOffset=0mm|YOffset=0mm|HoleType=Round|Shape=RoundedRectangle|*
%AMROUNDEDRECTD35*
21,1,0.8400,0.1950,0,0,90.0*
21,1,0.7750,0.2600,0,0,90.0*
1,1,0.0650,0.0975,0.3875*
1,1,0.0650,0.0975,-0.3875*
1,1,0.0650,-0.0975,-0.3875*
1,1,0.0650,-0.0975,0.3875*
%
%ADD35ROUNDEDRECTD35*%
%ADD38R,1.1400X0.6000*%
%ADD39R,1.1400X0.3000*%
%ADD40R,2.0000X1.5000*%
G04:AMPARAMS|DCode=41|XSize=1.26mm|YSize=0.59mm|CornerRadius=0.0738mm|HoleSize=0mm|Usage=FLASHONLY|Rotation=270.000|XOffset=0mm|YOffset=0mm|HoleType=Round|Shape=RoundedRectangle|*
%AMROUNDEDRECTD41*
21,1,1.2600,0.4425,0,0,270.0*
21,1,1.1125,0.5900,0,0,270.0*
1,1,0.1475,-0.2213,-0.5563*
1,1,0.1475,-0.2213,0.5563*
1,1,0.1475,0.2213,0.5563*
1,1,0.1475,0.2213,-0.5563*
%
%ADD41ROUNDEDRECTD41*%
%ADD42R,1.3000X3.4000*%
%ADD43R,1.0000X1.5499*%
%ADD44R,0.2540X0.3048*%
%ADD45R,0.3048X0.2540*%
G04:AMPARAMS|DCode=46|XSize=0.38mm|YSize=0.35mm|CornerRadius=0.0158mm|HoleSize=0mm|Usage=FLASHONLY|Rotation=90.000|XOffset=0mm|YOffset=0mm|HoleType=Round|Shape=RoundedRectangle|*
%AMROUNDEDRECTD46*
21,1,0.3800,0.3185,0,0,90.0*
21,1,0.3485,0.3500,0,0,90.0*
1,1,0.0315,0.1593,0.1743*
1,1,0.0315,0.1593,-0.1743*
1,1,0.0315,-0.1593,-0.1743*
1,1,0.0315,-0.1593,0.1743*
%
%ADD46ROUNDEDRECTD46*%
%ADD82R,2.6300X2.6300*%
%ADD83R,0.5800X0.2500*%
%ADD84R,0.5800X0.3000*%
%ADD85R,0.3500X0.6300*%
%ADD86R,2.4130X3.3020*%
%ADD87C,0.2032*%
%ADD88C,0.3048*%
%ADD89C,0.1778*%
%ADD90C,0.9000*%
%ADD91O,3.0480X1.5240*%
%ADD92C,0.6000*%
%ADD93O,2.0000X0.9000*%
%ADD94O,1.7000X0.9000*%
%ADD95C,1.5000*%
%ADD96C,2.7500*%
%ADD97C,1.5080*%
%ADD98R,1.5080X1.5080*%
%ADD99C,0.7501*%
%ADD100C,0.5080*%
G36*
X1280520Y1197075D02*
X1280520Y1197075D01*
X1280520Y1197075D01*
X1284948Y1196727D01*
X1289268Y1195690D01*
X1293372Y1193990D01*
X1297160Y1191669D01*
X1300538Y1188784D01*
X1303423Y1185406D01*
X1305744Y1181618D01*
X1307444Y1177514D01*
X1308481Y1173195D01*
X1308829Y1168766D01*
X1308837D01*
X1308837Y1168766D01*
X1308837Y930036D01*
X1308829Y928766D01*
X1308829Y928766D01*
X1308829Y928766D01*
X1308481Y924337D01*
X1307444Y920018D01*
X1305744Y915914D01*
X1303423Y912126D01*
X1300538Y908748D01*
X1297160Y905863D01*
X1293372Y903542D01*
X1289268Y901842D01*
X1284948Y900805D01*
X1280520Y900457D01*
Y900449D01*
X1149686D01*
Y905186D01*
X1142146D01*
X1134606D01*
Y900449D01*
X1074686D01*
Y905186D01*
X1067146D01*
X1059606D01*
Y900449D01*
X690520D01*
X690520Y900449D01*
Y900457D01*
X686092Y900805D01*
X681772Y901842D01*
X677668Y903542D01*
X673880Y905863D01*
X670502Y908748D01*
X667617Y912126D01*
X665296Y915914D01*
X663596Y920018D01*
X662559Y924337D01*
X662211Y928766D01*
X662203D01*
X662203Y928766D01*
Y996632D01*
X663473Y997158D01*
X664127Y996504D01*
X665972Y995740D01*
X667970D01*
X669815Y996504D01*
X671227Y997916D01*
X671991Y999761D01*
Y1001759D01*
X671227Y1003604D01*
X669815Y1005016D01*
X667970Y1005780D01*
X665972D01*
X664127Y1005016D01*
X663473Y1004362D01*
X662203Y1004888D01*
X662203Y1088072D01*
X663473Y1088598D01*
X664127Y1087944D01*
X665972Y1087180D01*
X667970D01*
X669815Y1087944D01*
X671227Y1089356D01*
X671991Y1091201D01*
Y1093199D01*
X671227Y1095044D01*
X669815Y1096456D01*
X667970Y1097220D01*
X665972D01*
X664127Y1096456D01*
X663473Y1095802D01*
X662203Y1096328D01*
Y1168766D01*
X662211D01*
X662559Y1173195D01*
X663596Y1177514D01*
X665296Y1181618D01*
X667617Y1185406D01*
X670502Y1188784D01*
X673880Y1191669D01*
X677668Y1193990D01*
X681772Y1195690D01*
X686091Y1196727D01*
X690520Y1197075D01*
Y1197083D01*
X690520Y1197083D01*
X1279250Y1197083D01*
X1280520Y1197075D01*
D02*
G37*
%LPC*%
G36*
X1151947Y1186800D02*
X1151890D01*
Y1177990D01*
X1160700D01*
Y1178047D01*
X1160013Y1180611D01*
X1158686Y1182909D01*
X1156809Y1184786D01*
X1154511Y1186113D01*
X1151947Y1186800D01*
D02*
G37*
G36*
X1149350D02*
X1149293D01*
X1146729Y1186113D01*
X1144431Y1184786D01*
X1142554Y1182909D01*
X1141227Y1180611D01*
X1140540Y1178047D01*
Y1177990D01*
X1149350D01*
Y1186800D01*
D02*
G37*
G36*
X1101147D02*
X1101090D01*
Y1177990D01*
X1109900D01*
Y1178047D01*
X1109213Y1180611D01*
X1107886Y1182909D01*
X1106009Y1184786D01*
X1103711Y1186113D01*
X1101147Y1186800D01*
D02*
G37*
G36*
X1098550D02*
X1098493D01*
X1095929Y1186113D01*
X1093631Y1184786D01*
X1091754Y1182909D01*
X1090427Y1180611D01*
X1089740Y1178047D01*
Y1177990D01*
X1098550D01*
Y1186800D01*
D02*
G37*
G36*
X974147D02*
X974090D01*
Y1177990D01*
X982900D01*
Y1178047D01*
X982213Y1180611D01*
X980886Y1182909D01*
X979009Y1184786D01*
X976711Y1186113D01*
X974147Y1186800D01*
D02*
G37*
G36*
X971550D02*
X971493D01*
X968929Y1186113D01*
X966631Y1184786D01*
X964754Y1182909D01*
X963427Y1180611D01*
X962740Y1178047D01*
Y1177990D01*
X971550D01*
Y1186800D01*
D02*
G37*
G36*
X897947D02*
X897890D01*
Y1177990D01*
X906700D01*
Y1178047D01*
X906013Y1180611D01*
X904686Y1182909D01*
X902809Y1184786D01*
X900511Y1186113D01*
X897947Y1186800D01*
D02*
G37*
G36*
X895350D02*
X895293D01*
X892729Y1186113D01*
X890431Y1184786D01*
X888554Y1182909D01*
X887227Y1180611D01*
X886540Y1178047D01*
Y1177990D01*
X895350D01*
Y1186800D01*
D02*
G37*
G36*
X796347D02*
X796290D01*
Y1177990D01*
X805100D01*
Y1178047D01*
X804413Y1180611D01*
X803086Y1182909D01*
X801209Y1184786D01*
X798911Y1186113D01*
X796347Y1186800D01*
D02*
G37*
G36*
X793750D02*
X793693D01*
X791129Y1186113D01*
X788831Y1184786D01*
X786954Y1182909D01*
X785627Y1180611D01*
X784940Y1178047D01*
Y1177990D01*
X793750D01*
Y1186800D01*
D02*
G37*
G36*
X1227980Y1185530D02*
X1225660D01*
X1223419Y1184930D01*
X1221411Y1183770D01*
X1219770Y1182130D01*
X1218610Y1180120D01*
X1218010Y1177880D01*
Y1175560D01*
X1218610Y1173319D01*
X1219770Y1171311D01*
X1221411Y1169670D01*
X1223419Y1168510D01*
X1225660Y1167910D01*
X1227980D01*
X1230220Y1168510D01*
X1232230Y1169670D01*
X1233870Y1171311D01*
X1235030Y1173319D01*
X1235630Y1175560D01*
Y1177880D01*
X1235030Y1180120D01*
X1233870Y1182130D01*
X1232230Y1183770D01*
X1230220Y1184930D01*
X1227980Y1185530D01*
D02*
G37*
G36*
X1202580D02*
X1200260D01*
X1198019Y1184930D01*
X1196011Y1183770D01*
X1194370Y1182130D01*
X1193210Y1180120D01*
X1192610Y1177880D01*
Y1175560D01*
X1193210Y1173319D01*
X1194370Y1171311D01*
X1196011Y1169670D01*
X1198019Y1168510D01*
X1200260Y1167910D01*
X1202580D01*
X1204820Y1168510D01*
X1206830Y1169670D01*
X1208470Y1171311D01*
X1209630Y1173319D01*
X1210230Y1175560D01*
Y1177880D01*
X1209630Y1180120D01*
X1208470Y1182130D01*
X1206830Y1183770D01*
X1204820Y1184930D01*
X1202580Y1185530D01*
D02*
G37*
G36*
X1177180D02*
X1174860D01*
X1172619Y1184930D01*
X1170611Y1183770D01*
X1168970Y1182130D01*
X1167810Y1180120D01*
X1167210Y1177880D01*
Y1175560D01*
X1167810Y1173319D01*
X1168970Y1171311D01*
X1170611Y1169670D01*
X1172619Y1168510D01*
X1174860Y1167910D01*
X1177180D01*
X1179420Y1168510D01*
X1181430Y1169670D01*
X1183070Y1171311D01*
X1184230Y1173319D01*
X1184830Y1175560D01*
Y1177880D01*
X1184230Y1180120D01*
X1183070Y1182130D01*
X1181430Y1183770D01*
X1179420Y1184930D01*
X1177180Y1185530D01*
D02*
G37*
G36*
X1126380D02*
X1124060D01*
X1121820Y1184930D01*
X1119810Y1183770D01*
X1118170Y1182130D01*
X1117010Y1180120D01*
X1116410Y1177880D01*
Y1175560D01*
X1117010Y1173319D01*
X1118170Y1171311D01*
X1119810Y1169670D01*
X1121820Y1168510D01*
X1124060Y1167910D01*
X1126380D01*
X1128621Y1168510D01*
X1130630Y1169670D01*
X1132270Y1171311D01*
X1133430Y1173319D01*
X1134030Y1175560D01*
Y1177880D01*
X1133430Y1180120D01*
X1132270Y1182130D01*
X1130630Y1183770D01*
X1128621Y1184930D01*
X1126380Y1185530D01*
D02*
G37*
G36*
X1075580D02*
X1073260D01*
X1071020Y1184930D01*
X1069010Y1183770D01*
X1067370Y1182130D01*
X1066210Y1180120D01*
X1065610Y1177880D01*
Y1175560D01*
X1066210Y1173319D01*
X1067370Y1171311D01*
X1069010Y1169670D01*
X1071020Y1168510D01*
X1073260Y1167910D01*
X1075580D01*
X1077821Y1168510D01*
X1079829Y1169670D01*
X1081470Y1171311D01*
X1082630Y1173319D01*
X1083230Y1175560D01*
Y1177880D01*
X1082630Y1180120D01*
X1081470Y1182130D01*
X1079829Y1183770D01*
X1077821Y1184930D01*
X1075580Y1185530D01*
D02*
G37*
G36*
X1050180D02*
X1047860D01*
X1045620Y1184930D01*
X1043611Y1183770D01*
X1041970Y1182130D01*
X1040810Y1180120D01*
X1040210Y1177880D01*
Y1175560D01*
X1040810Y1173319D01*
X1041970Y1171311D01*
X1043611Y1169670D01*
X1045620Y1168510D01*
X1047860Y1167910D01*
X1050180D01*
X1052421Y1168510D01*
X1054429Y1169670D01*
X1056070Y1171311D01*
X1057230Y1173319D01*
X1057830Y1175560D01*
Y1177880D01*
X1057230Y1180120D01*
X1056070Y1182130D01*
X1054429Y1183770D01*
X1052421Y1184930D01*
X1050180Y1185530D01*
D02*
G37*
G36*
X1024780D02*
X1022460D01*
X1020219Y1184930D01*
X1018211Y1183770D01*
X1016570Y1182130D01*
X1015410Y1180120D01*
X1014810Y1177880D01*
Y1175560D01*
X1015410Y1173319D01*
X1016570Y1171311D01*
X1018211Y1169670D01*
X1020219Y1168510D01*
X1022460Y1167910D01*
X1024780D01*
X1027020Y1168510D01*
X1029029Y1169670D01*
X1030670Y1171311D01*
X1031830Y1173319D01*
X1032430Y1175560D01*
Y1177880D01*
X1031830Y1180120D01*
X1030670Y1182130D01*
X1029029Y1183770D01*
X1027020Y1184930D01*
X1024780Y1185530D01*
D02*
G37*
G36*
X990092Y1193337D02*
X687832D01*
X686940Y1193159D01*
X686184Y1192654D01*
X673230Y1179700D01*
X672725Y1178944D01*
X672547Y1178052D01*
Y1149604D01*
X672725Y1148712D01*
X673230Y1147956D01*
X678389Y1142797D01*
Y1128740D01*
X673491D01*
Y1118451D01*
Y1108161D01*
X678389D01*
Y1076239D01*
X673491D01*
Y1065949D01*
Y1055660D01*
X678389D01*
Y1053592D01*
X678567Y1052700D01*
X679072Y1051944D01*
X686888Y1044128D01*
Y1036030D01*
X682949D01*
Y1017991D01*
X686888D01*
Y1011748D01*
X682882Y1007742D01*
X682377Y1006986D01*
X682199Y1006094D01*
Y996547D01*
X682377Y995655D01*
X682882Y994899D01*
X686888Y990893D01*
Y983529D01*
X682949D01*
Y965490D01*
X695489D01*
Y983529D01*
X691550D01*
Y991858D01*
X691372Y992750D01*
X690867Y993506D01*
X686861Y997513D01*
Y1005129D01*
X690867Y1009135D01*
X691372Y1009891D01*
X691550Y1010783D01*
Y1017991D01*
X695489D01*
Y1024339D01*
X703120D01*
Y1022950D01*
X711660D01*
Y1030390D01*
X703120D01*
Y1029001D01*
X695489D01*
Y1036030D01*
X691550D01*
Y1045093D01*
X691372Y1045985D01*
X690867Y1046741D01*
X683051Y1054557D01*
Y1056930D01*
X695489D01*
Y1074969D01*
X691550D01*
Y1083298D01*
X691372Y1084190D01*
X690867Y1084947D01*
X687877Y1087937D01*
Y1093229D01*
X688275Y1093504D01*
X688413Y1093468D01*
X689449Y1092770D01*
Y1091201D01*
X690213Y1089356D01*
X691625Y1087944D01*
X693470Y1087180D01*
X695468D01*
X697313Y1087944D01*
X698725Y1089356D01*
X699489Y1091201D01*
Y1093199D01*
X698725Y1095044D01*
X697313Y1096456D01*
X695468Y1097220D01*
X693470D01*
X692448Y1096797D01*
X692008Y1097044D01*
X691984Y1097064D01*
X691442Y1097755D01*
X691550Y1098294D01*
Y1109431D01*
X695489D01*
Y1115779D01*
X703120D01*
Y1114390D01*
X711660D01*
Y1121830D01*
X703120D01*
Y1120441D01*
X695489D01*
Y1127470D01*
X691550D01*
Y1131483D01*
X698195Y1138129D01*
X705358D01*
X706250Y1138307D01*
X707006Y1138812D01*
X730961Y1162767D01*
X935798D01*
X936690Y1162945D01*
X937446Y1163450D01*
X943060Y1169064D01*
X944019Y1168510D01*
X946260Y1167910D01*
X948580D01*
X950820Y1168510D01*
X952830Y1169670D01*
X954470Y1171311D01*
X955630Y1173319D01*
X956230Y1175560D01*
Y1177880D01*
X955630Y1180120D01*
X954470Y1182130D01*
X952830Y1183770D01*
X950820Y1184930D01*
X948580Y1185530D01*
X946260D01*
X944019Y1184930D01*
X942010Y1183770D01*
X940370Y1182130D01*
X939210Y1180120D01*
X938610Y1177880D01*
Y1175560D01*
X939210Y1173319D01*
X939764Y1172360D01*
X934833Y1167429D01*
X926087D01*
X925747Y1168699D01*
X927430Y1169670D01*
X929070Y1171311D01*
X930230Y1173319D01*
X930830Y1175560D01*
Y1177880D01*
X930230Y1180120D01*
X929070Y1182130D01*
X927430Y1183770D01*
X925421Y1184930D01*
X923180Y1185530D01*
X920860D01*
X918620Y1184930D01*
X916610Y1183770D01*
X914970Y1182130D01*
X913810Y1180120D01*
X913210Y1177880D01*
Y1175560D01*
X913810Y1173319D01*
X914970Y1171311D01*
X916610Y1169670D01*
X918293Y1168699D01*
X917953Y1167429D01*
X903138D01*
X902867Y1168438D01*
X902854Y1168699D01*
X904686Y1170531D01*
X906013Y1172829D01*
X906700Y1175393D01*
Y1175450D01*
X886540D01*
Y1175393D01*
X887227Y1172829D01*
X888554Y1170531D01*
X890386Y1168699D01*
X890373Y1168438D01*
X890102Y1167429D01*
X875287D01*
X874947Y1168699D01*
X876629Y1169670D01*
X878270Y1171311D01*
X879430Y1173319D01*
X880030Y1175560D01*
Y1177880D01*
X879430Y1180120D01*
X878270Y1182130D01*
X876629Y1183770D01*
X874621Y1184930D01*
X872380Y1185530D01*
X870060D01*
X867820Y1184930D01*
X865810Y1183770D01*
X864170Y1182130D01*
X863010Y1180120D01*
X862410Y1177880D01*
Y1175560D01*
X863010Y1173319D01*
X864170Y1171311D01*
X865810Y1169670D01*
X867493Y1168699D01*
X867153Y1167429D01*
X849887D01*
X849547Y1168699D01*
X851229Y1169670D01*
X852870Y1171311D01*
X854030Y1173319D01*
X854630Y1175560D01*
Y1177880D01*
X854030Y1180120D01*
X852870Y1182130D01*
X851229Y1183770D01*
X849221Y1184930D01*
X846980Y1185530D01*
X844660D01*
X842420Y1184930D01*
X840411Y1183770D01*
X838770Y1182130D01*
X837610Y1180120D01*
X837010Y1177880D01*
Y1175560D01*
X837610Y1173319D01*
X838770Y1171311D01*
X840411Y1169670D01*
X842093Y1168699D01*
X841753Y1167429D01*
X824487D01*
X824147Y1168699D01*
X825829Y1169670D01*
X827470Y1171311D01*
X828630Y1173319D01*
X829230Y1175560D01*
Y1177880D01*
X828630Y1180120D01*
X827470Y1182130D01*
X825829Y1183770D01*
X823820Y1184930D01*
X821580Y1185530D01*
X819260D01*
X817020Y1184930D01*
X815011Y1183770D01*
X813370Y1182130D01*
X812210Y1180120D01*
X811610Y1177880D01*
Y1175560D01*
X812210Y1173319D01*
X813370Y1171311D01*
X815011Y1169670D01*
X816693Y1168699D01*
X816353Y1167429D01*
X801538D01*
X801267Y1168438D01*
X801254Y1168699D01*
X803086Y1170531D01*
X804413Y1172829D01*
X805100Y1175393D01*
Y1175450D01*
X784940D01*
Y1175393D01*
X785627Y1172829D01*
X786954Y1170531D01*
X788786Y1168699D01*
X788773Y1168438D01*
X788502Y1167429D01*
X773687D01*
X773347Y1168699D01*
X775030Y1169670D01*
X776670Y1171311D01*
X777830Y1173319D01*
X778430Y1175560D01*
Y1177880D01*
X777830Y1180120D01*
X776670Y1182130D01*
X775030Y1183770D01*
X773020Y1184930D01*
X770780Y1185530D01*
X768460D01*
X766219Y1184930D01*
X764211Y1183770D01*
X762570Y1182130D01*
X761410Y1180120D01*
X760810Y1177880D01*
Y1175560D01*
X761410Y1173319D01*
X762570Y1171311D01*
X764211Y1169670D01*
X765893Y1168699D01*
X765553Y1167429D01*
X748287D01*
X747947Y1168699D01*
X749630Y1169670D01*
X751270Y1171311D01*
X752430Y1173319D01*
X753030Y1175560D01*
Y1177880D01*
X752430Y1180120D01*
X751270Y1182130D01*
X749630Y1183770D01*
X747620Y1184930D01*
X745380Y1185530D01*
X743060D01*
X740819Y1184930D01*
X738811Y1183770D01*
X737170Y1182130D01*
X736010Y1180120D01*
X735410Y1177880D01*
Y1175560D01*
X736010Y1173319D01*
X737170Y1171311D01*
X738811Y1169670D01*
X740493Y1168699D01*
X740153Y1167429D01*
X729996D01*
X729104Y1167251D01*
X728348Y1166746D01*
X704393Y1142791D01*
X697230D01*
X696338Y1142613D01*
X695582Y1142108D01*
X687571Y1134097D01*
X687066Y1133341D01*
X686888Y1132449D01*
Y1127470D01*
X683051D01*
Y1143762D01*
X682873Y1144654D01*
X682368Y1145410D01*
X677209Y1150569D01*
Y1177087D01*
X688797Y1188675D01*
X989127D01*
X992655Y1185147D01*
X992811Y1183770D01*
X991170Y1182130D01*
X990010Y1180120D01*
X989410Y1177880D01*
Y1175560D01*
X990010Y1173319D01*
X991170Y1171311D01*
X992811Y1169670D01*
X994819Y1168510D01*
X997060Y1167910D01*
X999380D01*
X1001620Y1168510D01*
X1003630Y1169670D01*
X1005270Y1171311D01*
X1006430Y1173319D01*
X1007030Y1175560D01*
Y1177880D01*
X1006430Y1180120D01*
X1005270Y1182130D01*
X1003630Y1183770D01*
X1001620Y1184930D01*
X999380Y1185530D01*
X998120D01*
X997998Y1186146D01*
X997492Y1186902D01*
X991740Y1192654D01*
X990984Y1193159D01*
X990092Y1193337D01*
D02*
G37*
G36*
X1160700Y1175450D02*
X1151890D01*
Y1166640D01*
X1151947D01*
X1154511Y1167327D01*
X1156809Y1168654D01*
X1158686Y1170531D01*
X1160013Y1172829D01*
X1160700Y1175393D01*
Y1175450D01*
D02*
G37*
G36*
X1149350D02*
X1140540D01*
Y1175393D01*
X1141227Y1172829D01*
X1142554Y1170531D01*
X1144431Y1168654D01*
X1146729Y1167327D01*
X1149293Y1166640D01*
X1149350D01*
Y1175450D01*
D02*
G37*
G36*
X1109900D02*
X1101090D01*
Y1166640D01*
X1101147D01*
X1103711Y1167327D01*
X1106009Y1168654D01*
X1107886Y1170531D01*
X1109213Y1172829D01*
X1109900Y1175393D01*
Y1175450D01*
D02*
G37*
G36*
X1098550D02*
X1089740D01*
Y1175393D01*
X1090427Y1172829D01*
X1091754Y1170531D01*
X1093631Y1168654D01*
X1095929Y1167327D01*
X1098493Y1166640D01*
X1098550D01*
Y1175450D01*
D02*
G37*
G36*
X982900D02*
X974090D01*
Y1166640D01*
X974147D01*
X976711Y1167327D01*
X979009Y1168654D01*
X980886Y1170531D01*
X982213Y1172829D01*
X982900Y1175393D01*
Y1175450D01*
D02*
G37*
G36*
X971550D02*
X962740D01*
Y1175393D01*
X963427Y1172829D01*
X964754Y1170531D01*
X966631Y1168654D01*
X968929Y1167327D01*
X971493Y1166640D01*
X971550D01*
Y1175450D01*
D02*
G37*
G36*
X1228147Y1161400D02*
X1228090D01*
Y1152590D01*
X1236900D01*
Y1152647D01*
X1236213Y1155211D01*
X1234886Y1157509D01*
X1233009Y1159386D01*
X1230711Y1160713D01*
X1228147Y1161400D01*
D02*
G37*
G36*
X1225550D02*
X1225493D01*
X1222929Y1160713D01*
X1220631Y1159386D01*
X1218754Y1157509D01*
X1217427Y1155211D01*
X1216740Y1152647D01*
Y1152590D01*
X1225550D01*
Y1161400D01*
D02*
G37*
G36*
X1050347D02*
X1050290D01*
Y1152590D01*
X1059100D01*
Y1152647D01*
X1058413Y1155211D01*
X1057086Y1157509D01*
X1055209Y1159386D01*
X1052911Y1160713D01*
X1050347Y1161400D01*
D02*
G37*
G36*
X1047750D02*
X1047693D01*
X1045129Y1160713D01*
X1042831Y1159386D01*
X1040954Y1157509D01*
X1039627Y1155211D01*
X1038940Y1152647D01*
Y1152590D01*
X1047750D01*
Y1161400D01*
D02*
G37*
G36*
X847147D02*
X847090D01*
Y1152590D01*
X855900D01*
Y1152647D01*
X855213Y1155211D01*
X853886Y1157509D01*
X852009Y1159386D01*
X849711Y1160713D01*
X847147Y1161400D01*
D02*
G37*
G36*
X844550D02*
X844493D01*
X841929Y1160713D01*
X839631Y1159386D01*
X837754Y1157509D01*
X836427Y1155211D01*
X835740Y1152647D01*
Y1152590D01*
X844550D01*
Y1161400D01*
D02*
G37*
G36*
X1276999Y1179040D02*
X1274041D01*
X1271139Y1178463D01*
X1268405Y1177330D01*
X1265945Y1175687D01*
X1263853Y1173595D01*
X1262209Y1171135D01*
X1261077Y1168401D01*
X1260500Y1165499D01*
Y1162541D01*
X1261077Y1159639D01*
X1262209Y1156905D01*
X1263853Y1154445D01*
X1265945Y1152353D01*
X1268405Y1150710D01*
X1271139Y1149577D01*
X1274041Y1149000D01*
X1276999D01*
X1279901Y1149577D01*
X1282635Y1150710D01*
X1285095Y1152353D01*
X1287187Y1154445D01*
X1288831Y1156905D01*
X1289963Y1159639D01*
X1290540Y1162541D01*
Y1165499D01*
X1289963Y1168401D01*
X1288831Y1171135D01*
X1287187Y1173595D01*
X1285095Y1175687D01*
X1282635Y1177330D01*
X1279901Y1178463D01*
X1276999Y1179040D01*
D02*
G37*
G36*
X696999D02*
X694041D01*
X691139Y1178463D01*
X688405Y1177330D01*
X685945Y1175687D01*
X683853Y1173595D01*
X682209Y1171135D01*
X681077Y1168401D01*
X680500Y1165499D01*
Y1162541D01*
X681077Y1159639D01*
X682209Y1156905D01*
X683853Y1154445D01*
X685945Y1152353D01*
X688405Y1150710D01*
X691139Y1149577D01*
X694041Y1149000D01*
X696999D01*
X699901Y1149577D01*
X702635Y1150710D01*
X705095Y1152353D01*
X707187Y1154445D01*
X708830Y1156905D01*
X709963Y1159639D01*
X710540Y1162541D01*
Y1165499D01*
X709963Y1168401D01*
X708830Y1171135D01*
X707187Y1173595D01*
X705095Y1175687D01*
X702635Y1177330D01*
X699901Y1178463D01*
X696999Y1179040D01*
D02*
G37*
G36*
X1202580Y1160130D02*
X1200260D01*
X1198019Y1159530D01*
X1196011Y1158370D01*
X1194370Y1156730D01*
X1193210Y1154721D01*
X1192610Y1152480D01*
Y1150160D01*
X1193210Y1147919D01*
X1194370Y1145910D01*
X1196011Y1144270D01*
X1198019Y1143110D01*
X1200260Y1142510D01*
X1202580D01*
X1204820Y1143110D01*
X1206830Y1144270D01*
X1208470Y1145910D01*
X1209630Y1147919D01*
X1210230Y1150160D01*
Y1152480D01*
X1209630Y1154721D01*
X1208470Y1156730D01*
X1206830Y1158370D01*
X1204820Y1159530D01*
X1202580Y1160130D01*
D02*
G37*
G36*
X1177180D02*
X1174860D01*
X1172619Y1159530D01*
X1170611Y1158370D01*
X1168970Y1156730D01*
X1167810Y1154721D01*
X1167210Y1152480D01*
Y1150160D01*
X1167810Y1147919D01*
X1168970Y1145910D01*
X1170611Y1144270D01*
X1172619Y1143110D01*
X1174860Y1142510D01*
X1177180D01*
X1179420Y1143110D01*
X1181430Y1144270D01*
X1183070Y1145910D01*
X1184230Y1147919D01*
X1184830Y1150160D01*
Y1152480D01*
X1184230Y1154721D01*
X1183070Y1156730D01*
X1181430Y1158370D01*
X1179420Y1159530D01*
X1177180Y1160130D01*
D02*
G37*
G36*
X1151780D02*
X1149460D01*
X1147219Y1159530D01*
X1145210Y1158370D01*
X1143570Y1156730D01*
X1142410Y1154721D01*
X1141810Y1152480D01*
Y1150160D01*
X1142410Y1147919D01*
X1143570Y1145910D01*
X1145210Y1144270D01*
X1147219Y1143110D01*
X1149460Y1142510D01*
X1151780D01*
X1154020Y1143110D01*
X1156030Y1144270D01*
X1157670Y1145910D01*
X1158830Y1147919D01*
X1159430Y1150160D01*
Y1152480D01*
X1158830Y1154721D01*
X1157670Y1156730D01*
X1156030Y1158370D01*
X1154020Y1159530D01*
X1151780Y1160130D01*
D02*
G37*
G36*
X1126380D02*
X1124060D01*
X1121820Y1159530D01*
X1119810Y1158370D01*
X1118170Y1156730D01*
X1117010Y1154721D01*
X1116410Y1152480D01*
Y1150160D01*
X1117010Y1147919D01*
X1118170Y1145910D01*
X1119810Y1144270D01*
X1121820Y1143110D01*
X1124060Y1142510D01*
X1126380D01*
X1128621Y1143110D01*
X1130630Y1144270D01*
X1132270Y1145910D01*
X1133430Y1147919D01*
X1134030Y1150160D01*
Y1152480D01*
X1133430Y1154721D01*
X1132270Y1156730D01*
X1130630Y1158370D01*
X1128621Y1159530D01*
X1126380Y1160130D01*
D02*
G37*
G36*
X1100980D02*
X1098660D01*
X1096420Y1159530D01*
X1094410Y1158370D01*
X1092770Y1156730D01*
X1091610Y1154721D01*
X1091010Y1152480D01*
Y1150160D01*
X1091610Y1147919D01*
X1092770Y1145910D01*
X1094410Y1144270D01*
X1096420Y1143110D01*
X1098660Y1142510D01*
X1100980D01*
X1103221Y1143110D01*
X1105229Y1144270D01*
X1106870Y1145910D01*
X1108030Y1147919D01*
X1108630Y1150160D01*
Y1152480D01*
X1108030Y1154721D01*
X1106870Y1156730D01*
X1105229Y1158370D01*
X1103221Y1159530D01*
X1100980Y1160130D01*
D02*
G37*
G36*
X1075580D02*
X1073260D01*
X1071020Y1159530D01*
X1069010Y1158370D01*
X1067370Y1156730D01*
X1066210Y1154721D01*
X1065610Y1152480D01*
Y1150160D01*
X1066210Y1147919D01*
X1067370Y1145910D01*
X1069010Y1144270D01*
X1071020Y1143110D01*
X1073260Y1142510D01*
X1075580D01*
X1077821Y1143110D01*
X1079829Y1144270D01*
X1081470Y1145910D01*
X1082630Y1147919D01*
X1083230Y1150160D01*
Y1152480D01*
X1082630Y1154721D01*
X1081470Y1156730D01*
X1079829Y1158370D01*
X1077821Y1159530D01*
X1075580Y1160130D01*
D02*
G37*
G36*
X1024780D02*
X1022460D01*
X1020219Y1159530D01*
X1018211Y1158370D01*
X1016570Y1156730D01*
X1015410Y1154721D01*
X1014810Y1152480D01*
Y1150160D01*
X1015410Y1147919D01*
X1016570Y1145910D01*
X1018211Y1144270D01*
X1020219Y1143110D01*
X1022460Y1142510D01*
X1024780D01*
X1027020Y1143110D01*
X1029029Y1144270D01*
X1030670Y1145910D01*
X1031830Y1147919D01*
X1032430Y1150160D01*
Y1152480D01*
X1031830Y1154721D01*
X1030670Y1156730D01*
X1029029Y1158370D01*
X1027020Y1159530D01*
X1024780Y1160130D01*
D02*
G37*
G36*
X999380D02*
X997060D01*
X994819Y1159530D01*
X992811Y1158370D01*
X991170Y1156730D01*
X990010Y1154721D01*
X989410Y1152480D01*
Y1150160D01*
X990010Y1147919D01*
X991170Y1145910D01*
X992811Y1144270D01*
X994819Y1143110D01*
X997060Y1142510D01*
X999380D01*
X1001620Y1143110D01*
X1003630Y1144270D01*
X1005270Y1145910D01*
X1006430Y1147919D01*
X1007030Y1150160D01*
Y1152480D01*
X1006430Y1154721D01*
X1005270Y1156730D01*
X1003630Y1158370D01*
X1001620Y1159530D01*
X999380Y1160130D01*
D02*
G37*
G36*
X973980D02*
X971660D01*
X969419Y1159530D01*
X967411Y1158370D01*
X965770Y1156730D01*
X964610Y1154721D01*
X964010Y1152480D01*
Y1150160D01*
X964610Y1147919D01*
X965770Y1145910D01*
X967411Y1144270D01*
X969419Y1143110D01*
X971660Y1142510D01*
X973980D01*
X976220Y1143110D01*
X978230Y1144270D01*
X979870Y1145910D01*
X981030Y1147919D01*
X981630Y1150160D01*
Y1152480D01*
X981030Y1154721D01*
X979870Y1156730D01*
X978230Y1158370D01*
X976220Y1159530D01*
X973980Y1160130D01*
D02*
G37*
G36*
X948580D02*
X946260D01*
X944019Y1159530D01*
X942010Y1158370D01*
X940370Y1156730D01*
X939210Y1154721D01*
X938610Y1152480D01*
Y1150160D01*
X939210Y1147919D01*
X940370Y1145910D01*
X942010Y1144270D01*
X944019Y1143110D01*
X946260Y1142510D01*
X948580D01*
X950820Y1143110D01*
X952830Y1144270D01*
X954470Y1145910D01*
X955630Y1147919D01*
X956230Y1150160D01*
Y1152480D01*
X955630Y1154721D01*
X954470Y1156730D01*
X952830Y1158370D01*
X950820Y1159530D01*
X948580Y1160130D01*
D02*
G37*
G36*
X923180D02*
X920860D01*
X918620Y1159530D01*
X916610Y1158370D01*
X914970Y1156730D01*
X913810Y1154721D01*
X913210Y1152480D01*
Y1150160D01*
X913810Y1147919D01*
X914970Y1145910D01*
X916610Y1144270D01*
X918620Y1143110D01*
X920860Y1142510D01*
X923180D01*
X925421Y1143110D01*
X927430Y1144270D01*
X929070Y1145910D01*
X930230Y1147919D01*
X930830Y1150160D01*
Y1152480D01*
X930230Y1154721D01*
X929070Y1156730D01*
X927430Y1158370D01*
X925421Y1159530D01*
X923180Y1160130D01*
D02*
G37*
G36*
X897780D02*
X895460D01*
X893220Y1159530D01*
X891210Y1158370D01*
X889570Y1156730D01*
X888410Y1154721D01*
X887810Y1152480D01*
Y1150160D01*
X888410Y1147919D01*
X889570Y1145910D01*
X891210Y1144270D01*
X893220Y1143110D01*
X895460Y1142510D01*
X897780D01*
X900021Y1143110D01*
X902029Y1144270D01*
X903670Y1145910D01*
X904830Y1147919D01*
X905430Y1150160D01*
Y1152480D01*
X904830Y1154721D01*
X903670Y1156730D01*
X902029Y1158370D01*
X900021Y1159530D01*
X897780Y1160130D01*
D02*
G37*
G36*
X872380D02*
X870060D01*
X867820Y1159530D01*
X865810Y1158370D01*
X864170Y1156730D01*
X863010Y1154721D01*
X862410Y1152480D01*
Y1150160D01*
X863010Y1147919D01*
X864170Y1145910D01*
X865810Y1144270D01*
X867820Y1143110D01*
X870060Y1142510D01*
X872380D01*
X874621Y1143110D01*
X876629Y1144270D01*
X878270Y1145910D01*
X879430Y1147919D01*
X880030Y1150160D01*
Y1152480D01*
X879430Y1154721D01*
X878270Y1156730D01*
X876629Y1158370D01*
X874621Y1159530D01*
X872380Y1160130D01*
D02*
G37*
G36*
X821580D02*
X819260D01*
X817020Y1159530D01*
X815011Y1158370D01*
X813370Y1156730D01*
X812210Y1154721D01*
X811610Y1152480D01*
Y1150160D01*
X812210Y1147919D01*
X813370Y1145910D01*
X815011Y1144270D01*
X817020Y1143110D01*
X819260Y1142510D01*
X821580D01*
X823820Y1143110D01*
X825829Y1144270D01*
X827470Y1145910D01*
X828630Y1147919D01*
X829230Y1150160D01*
Y1152480D01*
X828630Y1154721D01*
X827470Y1156730D01*
X825829Y1158370D01*
X823820Y1159530D01*
X821580Y1160130D01*
D02*
G37*
G36*
X770780D02*
X768460D01*
X766219Y1159530D01*
X764211Y1158370D01*
X762570Y1156730D01*
X761410Y1154721D01*
X760810Y1152480D01*
Y1150160D01*
X761410Y1147919D01*
X762570Y1145910D01*
X764211Y1144270D01*
X766219Y1143110D01*
X768460Y1142510D01*
X770780D01*
X773020Y1143110D01*
X775030Y1144270D01*
X776670Y1145910D01*
X777830Y1147919D01*
X778430Y1150160D01*
Y1152480D01*
X777830Y1154721D01*
X776670Y1156730D01*
X775030Y1158370D01*
X773020Y1159530D01*
X770780Y1160130D01*
D02*
G37*
G36*
X1236900Y1150050D02*
X1228090D01*
Y1141240D01*
X1228147D01*
X1230711Y1141927D01*
X1233009Y1143254D01*
X1234886Y1145131D01*
X1236213Y1147429D01*
X1236900Y1149993D01*
Y1150050D01*
D02*
G37*
G36*
X1225550D02*
X1216740D01*
Y1149993D01*
X1217427Y1147429D01*
X1218754Y1145131D01*
X1220631Y1143254D01*
X1222929Y1141927D01*
X1225493Y1141240D01*
X1225550D01*
Y1150050D01*
D02*
G37*
G36*
X1059100D02*
X1050290D01*
Y1141240D01*
X1050347D01*
X1052911Y1141927D01*
X1055209Y1143254D01*
X1057086Y1145131D01*
X1058413Y1147429D01*
X1059100Y1149993D01*
Y1150050D01*
D02*
G37*
G36*
X1047750D02*
X1038940D01*
Y1149993D01*
X1039627Y1147429D01*
X1040954Y1145131D01*
X1042831Y1143254D01*
X1045129Y1141927D01*
X1047693Y1141240D01*
X1047750D01*
Y1150050D01*
D02*
G37*
G36*
X855900D02*
X847090D01*
Y1141240D01*
X847147D01*
X849711Y1141927D01*
X852009Y1143254D01*
X853886Y1145131D01*
X855213Y1147429D01*
X855900Y1149993D01*
Y1150050D01*
D02*
G37*
G36*
X844550D02*
X835740D01*
Y1149993D01*
X836427Y1147429D01*
X837754Y1145131D01*
X839631Y1143254D01*
X841929Y1141927D01*
X844493Y1141240D01*
X844550D01*
Y1150050D01*
D02*
G37*
G36*
X670951Y1128740D02*
X664681D01*
Y1119721D01*
X670951D01*
Y1128740D01*
D02*
G37*
G36*
X1286002Y1136219D02*
X1270762D01*
X1268441Y1135913D01*
X1266279Y1135017D01*
X1264422Y1133592D01*
X1262997Y1131735D01*
X1262319Y1130101D01*
X1228344D01*
X1227254Y1129884D01*
X1226330Y1129266D01*
X1226330Y1129266D01*
X1219980Y1122916D01*
X1219362Y1121992D01*
X1219145Y1120902D01*
X1219145Y1120902D01*
Y1085857D01*
X1219224Y1085461D01*
Y1082655D01*
X1212289D01*
X1211960Y1082984D01*
X1210560Y1083564D01*
X1209044D01*
X1207644Y1082984D01*
X1207315Y1082655D01*
X1204316D01*
X1204273Y1082701D01*
X1203754Y1083925D01*
X1203881Y1084115D01*
X1204019Y1084806D01*
Y1087806D01*
X1203881Y1088497D01*
X1203490Y1089082D01*
Y1090030D01*
X1203881Y1090615D01*
X1204019Y1091306D01*
Y1094306D01*
X1203881Y1094997D01*
X1203490Y1095582D01*
X1202905Y1095973D01*
X1202214Y1096111D01*
X1187614D01*
X1186923Y1095973D01*
X1186447Y1095655D01*
X1180690D01*
X1179600Y1095438D01*
X1178676Y1094820D01*
X1178676Y1094820D01*
X1174006Y1090150D01*
X1173388Y1089226D01*
X1173171Y1088136D01*
X1173171Y1088136D01*
Y1080007D01*
X1172790Y1079626D01*
X1172210Y1078226D01*
Y1076710D01*
X1172790Y1075310D01*
X1173862Y1074238D01*
X1175262Y1073658D01*
X1176778D01*
X1178178Y1074238D01*
X1179250Y1075310D01*
X1179830Y1076710D01*
Y1078226D01*
X1179250Y1079626D01*
X1178869Y1080007D01*
Y1086956D01*
X1181870Y1089957D01*
X1185511D01*
X1185555Y1089911D01*
X1186074Y1088687D01*
X1185947Y1088497D01*
X1185809Y1087806D01*
Y1084806D01*
X1185947Y1084115D01*
X1186338Y1083530D01*
Y1082582D01*
X1185947Y1081997D01*
X1185809Y1081306D01*
Y1078306D01*
X1185947Y1077615D01*
X1186074Y1077425D01*
X1185555Y1076201D01*
X1185511Y1076155D01*
X1184304D01*
X1183214Y1075938D01*
X1182290Y1075320D01*
X1182290Y1075320D01*
X1178650Y1071681D01*
X1167548D01*
X1163908Y1075320D01*
X1162984Y1075938D01*
X1161894Y1076155D01*
X1161894Y1076155D01*
X1154555D01*
X1154169Y1077425D01*
X1154718Y1077792D01*
X1155665Y1078738D01*
X1156204D01*
X1157604Y1079318D01*
X1158676Y1080390D01*
X1159256Y1081790D01*
Y1083306D01*
X1158676Y1084706D01*
X1157604Y1085778D01*
X1156204Y1086358D01*
X1154688D01*
X1153288Y1085778D01*
X1152216Y1084706D01*
X1151636Y1083306D01*
Y1082767D01*
X1151524Y1082655D01*
X1146717D01*
X1146673Y1082701D01*
X1146154Y1083925D01*
X1146281Y1084115D01*
X1146419Y1084806D01*
Y1087806D01*
X1146281Y1088497D01*
X1145890Y1089082D01*
Y1090030D01*
X1146281Y1090615D01*
X1146419Y1091306D01*
Y1094306D01*
X1146281Y1094997D01*
X1145890Y1095582D01*
X1145305Y1095973D01*
X1144614Y1096111D01*
X1130014D01*
X1129323Y1095973D01*
X1128738Y1095582D01*
X1128669Y1095479D01*
X1121995D01*
X1121790Y1095684D01*
X1120390Y1096264D01*
X1118874D01*
X1117474Y1095684D01*
X1116402Y1094612D01*
X1115822Y1093212D01*
Y1091696D01*
X1116402Y1090296D01*
X1117474Y1089224D01*
X1118874Y1088644D01*
X1120390D01*
X1121790Y1089224D01*
X1122347Y1089781D01*
X1127678D01*
X1128356Y1088511D01*
X1128347Y1088497D01*
X1128209Y1087806D01*
Y1084806D01*
X1128347Y1084115D01*
X1128738Y1083530D01*
Y1082582D01*
X1128347Y1081997D01*
X1128209Y1081306D01*
Y1078306D01*
X1128347Y1077615D01*
X1128738Y1077030D01*
Y1076082D01*
X1128347Y1075497D01*
X1128209Y1074806D01*
Y1071806D01*
X1128347Y1071115D01*
X1128738Y1070530D01*
X1129323Y1070139D01*
X1130014Y1070001D01*
X1144614D01*
X1145305Y1070139D01*
X1145781Y1070457D01*
X1160714D01*
X1164354Y1066818D01*
X1164354Y1066818D01*
X1165278Y1066200D01*
X1166368Y1065983D01*
X1179830D01*
X1179830Y1065983D01*
X1180920Y1066200D01*
X1181844Y1066818D01*
X1185484Y1070457D01*
X1186447D01*
X1186923Y1070139D01*
X1187614Y1070001D01*
X1202214D01*
X1202905Y1070139D01*
X1203490Y1070530D01*
X1203881Y1071115D01*
X1204019Y1071806D01*
Y1074806D01*
X1203881Y1075497D01*
X1203754Y1075687D01*
X1204273Y1076911D01*
X1204316Y1076957D01*
X1207211D01*
X1207644Y1076524D01*
X1209044Y1075944D01*
X1210560D01*
X1211960Y1076524D01*
X1212393Y1076957D01*
X1221402D01*
X1221402Y1076957D01*
X1221402Y1076957D01*
X1229666D01*
X1229666Y1076957D01*
X1230756Y1077174D01*
X1231680Y1077792D01*
X1252892Y1099003D01*
X1262319D01*
X1262997Y1097369D01*
X1264422Y1095512D01*
X1266279Y1094087D01*
X1268441Y1093191D01*
X1270762Y1092885D01*
X1286002D01*
X1288323Y1093191D01*
X1290485Y1094087D01*
X1292342Y1095512D01*
X1293767Y1097369D01*
X1294663Y1099531D01*
X1294969Y1101852D01*
X1294663Y1104173D01*
X1293767Y1106335D01*
X1292342Y1108192D01*
X1290485Y1109617D01*
X1288323Y1110513D01*
X1286002Y1110819D01*
X1270762D01*
X1268441Y1110513D01*
X1266279Y1109617D01*
X1264422Y1108192D01*
X1262997Y1106335D01*
X1262319Y1104701D01*
X1251712D01*
X1251712Y1104701D01*
X1250622Y1104484D01*
X1249698Y1103866D01*
X1249698Y1103866D01*
X1228486Y1082655D01*
X1224764D01*
Y1085461D01*
X1224843Y1085857D01*
Y1119722D01*
X1229524Y1124403D01*
X1262319D01*
X1262997Y1122769D01*
X1264422Y1120912D01*
X1266279Y1119487D01*
X1268441Y1118591D01*
X1270762Y1118285D01*
X1286002D01*
X1288323Y1118591D01*
X1290485Y1119487D01*
X1292342Y1120912D01*
X1293767Y1122769D01*
X1294663Y1124931D01*
X1294969Y1127252D01*
X1294663Y1129573D01*
X1293767Y1131735D01*
X1292342Y1133592D01*
X1290485Y1135017D01*
X1288323Y1135913D01*
X1286002Y1136219D01*
D02*
G37*
G36*
X670951Y1117181D02*
X664681D01*
Y1108161D01*
X670951D01*
Y1117181D01*
D02*
G37*
G36*
X999538Y1108940D02*
X996818D01*
Y1106170D01*
X999538D01*
Y1108940D01*
D02*
G37*
G36*
X1070738Y1115436D02*
X1069222D01*
X1067822Y1114856D01*
X1066750Y1113784D01*
X1066170Y1112384D01*
Y1110868D01*
X1066750Y1109468D01*
X1067649Y1108569D01*
Y1100048D01*
X1067260D01*
Y1099609D01*
X1061287D01*
X1061277Y1099611D01*
X1041654D01*
X1040762Y1099433D01*
X1040006Y1098928D01*
X1038736Y1097658D01*
X1038231Y1096902D01*
X1038053Y1096010D01*
Y1093378D01*
X1035352D01*
Y1091989D01*
X1033016D01*
X1032124Y1091811D01*
X1031368Y1091306D01*
X1025637Y1085575D01*
X1025035D01*
X1024815Y1085722D01*
X1024193Y1085845D01*
X1016443D01*
X1015388Y1086843D01*
Y1087664D01*
X1014567D01*
X1013569Y1088719D01*
Y1096469D01*
X1013445Y1097091D01*
X1013093Y1097619D01*
X1012565Y1097971D01*
X1011943Y1098095D01*
X1009993D01*
X1009371Y1097971D01*
X1008843Y1097619D01*
X1008093Y1097619D01*
X1007565Y1097971D01*
X1006943Y1098095D01*
X1004993D01*
X1004371Y1097971D01*
X1003843Y1097619D01*
X1003093Y1097619D01*
X1002565Y1097971D01*
X1001943Y1098095D01*
X999993D01*
X999383Y1097974D01*
X999009Y1098535D01*
X998061Y1099168D01*
X997238Y1099332D01*
Y1092594D01*
X994698D01*
Y1100319D01*
X994685Y1100334D01*
X994596Y1100606D01*
X994678Y1100860D01*
X999538D01*
Y1103630D01*
X995548D01*
Y1104900D01*
X994278D01*
Y1108940D01*
X991558D01*
Y1107670D01*
X988388D01*
Y1107231D01*
X975877D01*
X974978Y1108130D01*
X973578Y1108710D01*
X972062D01*
X970662Y1108130D01*
X969590Y1107058D01*
X969010Y1105658D01*
Y1104142D01*
X969590Y1102742D01*
X970235Y1102097D01*
Y1101295D01*
X970002Y1100122D01*
X967232D01*
Y1096132D01*
X965962D01*
Y1094862D01*
X961922D01*
Y1092142D01*
X963192D01*
Y1088972D01*
X963192Y1088972D01*
X963192D01*
X963192Y1088972D01*
X962873Y1087834D01*
X961224Y1087834D01*
X960794Y1088926D01*
Y1089104D01*
X957074D01*
Y1083564D01*
X955804D01*
Y1082294D01*
X950814D01*
Y1078024D01*
X951064D01*
X952084Y1077420D01*
X952084Y1076754D01*
Y1068880D01*
X953473D01*
Y1056591D01*
X951360Y1054478D01*
X950855Y1053722D01*
X950677Y1052830D01*
Y1030478D01*
X950855Y1029586D01*
X951360Y1028830D01*
X963808Y1016382D01*
X964564Y1015877D01*
X965456Y1015699D01*
X978202D01*
Y1014310D01*
X986584D01*
X986742Y1014310D01*
X987854D01*
X988012Y1014310D01*
X996394D01*
Y1014310D01*
X997506D01*
Y1014310D01*
X1006046D01*
Y1021750D01*
X1004361D01*
Y1043883D01*
X1005631Y1044409D01*
X1006478Y1043562D01*
X1007234Y1043057D01*
X1008126Y1042879D01*
X1016051D01*
X1017598Y1041332D01*
Y1039138D01*
X1022427D01*
Y1032256D01*
X1019686Y1029515D01*
X1019181Y1028759D01*
X1019003Y1027867D01*
Y1022004D01*
X1017222D01*
X1017064Y1022004D01*
X1015952D01*
X1015801Y1022004D01*
X1014531Y1022020D01*
Y1029971D01*
X1014912Y1030352D01*
X1015492Y1031752D01*
Y1033268D01*
X1014912Y1034668D01*
X1013840Y1035740D01*
X1012440Y1036320D01*
X1010924D01*
X1009524Y1035740D01*
X1008452Y1034668D01*
X1007872Y1033268D01*
Y1031752D01*
X1008452Y1030352D01*
X1008833Y1029971D01*
Y1022004D01*
X1007412D01*
Y1014564D01*
X1015794D01*
X1015952Y1014564D01*
X1017064D01*
X1017222Y1014564D01*
X1025604D01*
Y1022004D01*
X1023665D01*
Y1026902D01*
X1026406Y1029643D01*
X1026911Y1030399D01*
X1027089Y1031291D01*
Y1039138D01*
X1027478D01*
Y1044678D01*
X1027089D01*
Y1052200D01*
X1026911Y1053092D01*
X1026406Y1053848D01*
X1024712Y1055542D01*
X1023956Y1056047D01*
X1023064Y1056225D01*
X1013569D01*
Y1057769D01*
X1014567Y1058824D01*
X1015388D01*
Y1059644D01*
X1016443Y1060643D01*
X1024193D01*
X1024815Y1060767D01*
X1025035Y1060913D01*
X1030275D01*
X1030560Y1060628D01*
Y1050671D01*
X1030738Y1049779D01*
X1031243Y1049023D01*
X1034296Y1045970D01*
X1035052Y1045465D01*
X1035944Y1045287D01*
X1042186D01*
Y1040458D01*
X1042186D01*
X1042003Y1039264D01*
X1041726Y1038986D01*
X1041146Y1037586D01*
Y1036070D01*
X1041726Y1034670D01*
X1042798Y1033598D01*
X1044198Y1033018D01*
X1045714D01*
X1047114Y1033598D01*
X1048186Y1034670D01*
X1048766Y1036070D01*
Y1037586D01*
X1048186Y1038986D01*
X1047908Y1039264D01*
X1047726Y1040458D01*
X1047726D01*
Y1045173D01*
X1048996Y1045240D01*
X1051434Y1042802D01*
X1052190Y1042297D01*
X1053082Y1042119D01*
X1059228D01*
Y1040728D01*
X1067715D01*
X1067768Y1040728D01*
X1068933Y1040982D01*
X1069038Y1040982D01*
X1070819D01*
Y1037599D01*
X1069920Y1036700D01*
X1069340Y1035300D01*
Y1033784D01*
X1069920Y1032384D01*
X1070992Y1031312D01*
X1072392Y1030732D01*
X1073908D01*
X1075308Y1031312D01*
X1076380Y1032384D01*
X1076960Y1033784D01*
Y1035300D01*
X1076380Y1036700D01*
X1075481Y1037599D01*
Y1040982D01*
X1077420D01*
Y1048422D01*
X1068933D01*
X1068880Y1048422D01*
X1067715Y1048168D01*
X1067610Y1048168D01*
X1059228D01*
Y1046781D01*
X1054047D01*
X1051562Y1049266D01*
X1050806Y1049771D01*
X1049914Y1049949D01*
X1047726D01*
Y1050338D01*
X1042186D01*
Y1049949D01*
X1036909D01*
X1035222Y1051636D01*
Y1061593D01*
X1035044Y1062485D01*
X1034539Y1063241D01*
X1033568Y1064212D01*
X1034094Y1065482D01*
X1034264D01*
Y1065913D01*
X1037467D01*
X1040260Y1063120D01*
X1041016Y1062615D01*
X1041908Y1062437D01*
X1057148D01*
X1058040Y1062615D01*
X1058796Y1063120D01*
X1064558Y1068882D01*
X1065063Y1069638D01*
X1065240Y1070530D01*
Y1076796D01*
X1067514D01*
Y1084236D01*
X1059225D01*
Y1085936D01*
X1067514D01*
Y1087327D01*
X1068880D01*
Y1085936D01*
X1077420D01*
Y1093376D01*
X1077420Y1093376D01*
X1077419Y1093380D01*
X1077140Y1094530D01*
Y1100048D01*
X1072311D01*
Y1108569D01*
X1073210Y1109468D01*
X1073790Y1110868D01*
Y1112384D01*
X1073210Y1113784D01*
X1072138Y1114856D01*
X1070738Y1115436D01*
D02*
G37*
G36*
X964692Y1100122D02*
X961922D01*
Y1097402D01*
X964692D01*
Y1100122D01*
D02*
G37*
G36*
X796180Y1160130D02*
X793860D01*
X791619Y1159530D01*
X789611Y1158370D01*
X787970Y1156730D01*
X786810Y1154721D01*
X786210Y1152480D01*
Y1150160D01*
X786810Y1147919D01*
X787970Y1145910D01*
X789611Y1144270D01*
X791619Y1143110D01*
X792689Y1142824D01*
Y1138377D01*
X791338Y1137026D01*
X790833Y1136270D01*
X790655Y1135378D01*
Y1132078D01*
Y1102820D01*
X789266D01*
Y1094280D01*
X790631D01*
Y1067759D01*
X789707Y1066836D01*
X789127Y1065435D01*
Y1063920D01*
X789707Y1062520D01*
X790779Y1061448D01*
X792179Y1060868D01*
X793695D01*
X795095Y1061448D01*
X796167Y1062520D01*
X796747Y1063920D01*
Y1065435D01*
X796167Y1066836D01*
X795292Y1067711D01*
Y1094280D01*
X796706D01*
Y1096219D01*
X799846D01*
X800738Y1096397D01*
X801494Y1096902D01*
X801845Y1097253D01*
X803160Y1097084D01*
X803214Y1097055D01*
X803227Y1097025D01*
X803415Y1096947D01*
X804230Y1096508D01*
X804219Y1096452D01*
Y1095980D01*
X808562D01*
Y1094710D01*
X809832D01*
Y1090217D01*
X810154D01*
X810358Y1090112D01*
X810834Y1088516D01*
X810602Y1088088D01*
X810602D01*
Y1079548D01*
X811991D01*
Y1078237D01*
X811094Y1077340D01*
X810514Y1075940D01*
Y1074424D01*
X811094Y1073024D01*
X812166Y1071952D01*
X813566Y1071372D01*
X815082D01*
X816482Y1071952D01*
X817554Y1073024D01*
X818134Y1074424D01*
Y1075940D01*
X817554Y1077340D01*
X816653Y1078241D01*
Y1079548D01*
X818042D01*
Y1088088D01*
X816653D01*
Y1088900D01*
X816475Y1089792D01*
X816050Y1090429D01*
X816157Y1090749D01*
X816376Y1090983D01*
X816970Y1091422D01*
X820154D01*
X821247Y1091875D01*
X821456Y1092379D01*
X823295D01*
X825122Y1090552D01*
X825878Y1090047D01*
X826770Y1089869D01*
X830418D01*
Y1087930D01*
X837858D01*
X838288Y1086838D01*
Y1086660D01*
X842008D01*
Y1092200D01*
X843278D01*
Y1093470D01*
X848268D01*
Y1097740D01*
X848781Y1098563D01*
X850071Y1098652D01*
X854147Y1094576D01*
Y1087374D01*
X854147Y1087374D01*
X854147Y1087374D01*
Y1058727D01*
X808029D01*
Y1079548D01*
X808902D01*
Y1088088D01*
X801462D01*
Y1079548D01*
X802331D01*
Y1058727D01*
X775880D01*
X771708Y1062899D01*
Y1095701D01*
X780126D01*
Y1094280D01*
X787566D01*
Y1102820D01*
X780126D01*
Y1101399D01*
X747457D01*
Y1128268D01*
Y1142510D01*
X753030D01*
Y1160130D01*
X735410D01*
Y1142510D01*
X740983D01*
Y1130099D01*
X711660D01*
Y1130970D01*
X703120D01*
Y1123530D01*
X711660D01*
Y1124401D01*
X740983D01*
Y1098804D01*
Y1045027D01*
X735003Y1039047D01*
X711660D01*
Y1039530D01*
X703120D01*
Y1032090D01*
X711660D01*
Y1032573D01*
X727013D01*
Y972040D01*
X719620D01*
Y935500D01*
X735160D01*
Y972040D01*
X733487D01*
Y1032573D01*
X736344D01*
X737583Y1032819D01*
X738633Y1033521D01*
X746509Y1041397D01*
X747211Y1042447D01*
X747457Y1043686D01*
Y1095701D01*
X766010D01*
Y1061719D01*
X766010Y1061719D01*
X766227Y1060629D01*
X766845Y1059705D01*
X772686Y1053864D01*
X773610Y1053246D01*
X774700Y1053029D01*
X774700Y1053029D01*
X854147D01*
Y1048766D01*
X854147Y1048766D01*
X854364Y1047676D01*
X854982Y1046752D01*
X867936Y1033798D01*
X868860Y1033180D01*
X869950Y1032963D01*
X869950Y1032963D01*
X899922D01*
X899922Y1032963D01*
X901012Y1033180D01*
X901936Y1033798D01*
X909048Y1040910D01*
X909048Y1040910D01*
X909666Y1041834D01*
X909883Y1042924D01*
X909883Y1042924D01*
Y1064352D01*
X910542D01*
Y1064855D01*
X913154D01*
Y1064466D01*
X918694D01*
Y1067636D01*
X919964D01*
Y1070356D01*
X915924D01*
Y1071626D01*
D01*
Y1070356D01*
X911884D01*
Y1069517D01*
X910542D01*
Y1071792D01*
X902002D01*
Y1069599D01*
X899266D01*
Y1074881D01*
X902002D01*
Y1073492D01*
X910542D01*
Y1080932D01*
X908857D01*
Y1084110D01*
X908938Y1084144D01*
X910010Y1085216D01*
X910590Y1086616D01*
Y1088132D01*
X910010Y1089532D01*
X908938Y1090604D01*
X907538Y1091184D01*
X906022D01*
X904622Y1090604D01*
X903550Y1089532D01*
X902970Y1088132D01*
Y1086616D01*
X903550Y1085216D01*
X904195Y1084571D01*
Y1080932D01*
X902002D01*
Y1079543D01*
X896286D01*
X895394Y1079365D01*
X894638Y1078860D01*
X893448Y1077670D01*
X893036Y1077053D01*
X892947Y1077050D01*
X891766Y1077788D01*
Y1077788D01*
X891070Y1078770D01*
X890899Y1079630D01*
X890394Y1080386D01*
X889809Y1080971D01*
Y1082596D01*
X891194D01*
Y1091136D01*
X889809D01*
Y1117090D01*
X889631Y1117982D01*
X889126Y1118738D01*
X874138Y1133726D01*
X873382Y1134231D01*
X872490Y1134409D01*
X797109D01*
X796583Y1135679D01*
X796668Y1135764D01*
X797173Y1136520D01*
X797351Y1137412D01*
Y1142824D01*
X798420Y1143110D01*
X800430Y1144270D01*
X802070Y1145910D01*
X803230Y1147919D01*
X803830Y1150160D01*
Y1152480D01*
X803230Y1154721D01*
X802070Y1156730D01*
X800430Y1158370D01*
X798420Y1159530D01*
X796180Y1160130D01*
D02*
G37*
G36*
X807292Y1093440D02*
X804219D01*
Y1092968D01*
X804428Y1091915D01*
X805025Y1091023D01*
X805917Y1090426D01*
X806970Y1090217D01*
X807292D01*
Y1093440D01*
D02*
G37*
G36*
X848268Y1090930D02*
X844548D01*
Y1086660D01*
X848268D01*
Y1090930D01*
D02*
G37*
G36*
X954534Y1089104D02*
X950814D01*
Y1084834D01*
X954534D01*
Y1089104D01*
D02*
G37*
G36*
X1293304Y1079305D02*
X1290574D01*
Y1073474D01*
X1300237D01*
X1300163Y1074042D01*
X1299453Y1075754D01*
X1298325Y1077225D01*
X1296854Y1078353D01*
X1295142Y1079063D01*
X1293304Y1079305D01*
D02*
G37*
G36*
X1253104D02*
X1248874D01*
Y1073474D01*
X1260038D01*
X1259963Y1074042D01*
X1259253Y1075754D01*
X1258125Y1077225D01*
X1256654Y1078353D01*
X1254942Y1079063D01*
X1253104Y1079305D01*
D02*
G37*
G36*
X1288034D02*
X1285304D01*
X1283466Y1079063D01*
X1281754Y1078353D01*
X1280283Y1077225D01*
X1279155Y1075754D01*
X1278445Y1074042D01*
X1278371Y1073474D01*
X1288034D01*
Y1079305D01*
D02*
G37*
G36*
X1246334D02*
X1242104D01*
X1240266Y1079063D01*
X1238554Y1078353D01*
X1237083Y1077225D01*
X1235955Y1075754D01*
X1235245Y1074042D01*
X1235171Y1073474D01*
X1246334D01*
Y1079305D01*
D02*
G37*
G36*
X919964Y1075616D02*
X917194D01*
Y1072896D01*
X919964D01*
Y1075616D01*
D02*
G37*
G36*
X914654D02*
X911884D01*
Y1072896D01*
X914654D01*
Y1075616D01*
D02*
G37*
G36*
X1077420Y1084236D02*
X1068880D01*
Y1076796D01*
X1070819D01*
Y1075342D01*
X1068880D01*
Y1067902D01*
X1077420D01*
Y1075342D01*
X1075481D01*
Y1076796D01*
X1077420D01*
Y1077810D01*
X1078690Y1078030D01*
X1081333Y1075387D01*
X1082089Y1074882D01*
X1082981Y1074704D01*
X1084482D01*
X1084652Y1074294D01*
X1085724Y1073222D01*
X1087124Y1072642D01*
X1088640D01*
X1090040Y1073222D01*
X1091112Y1074294D01*
X1091692Y1075694D01*
Y1077210D01*
X1091112Y1078610D01*
X1090040Y1079682D01*
X1088640Y1080262D01*
X1087124D01*
X1085724Y1079682D01*
X1085408Y1079366D01*
X1083946D01*
X1081148Y1082164D01*
X1080392Y1082669D01*
X1079500Y1082847D01*
X1077420D01*
Y1084236D01*
D02*
G37*
G36*
X670951Y1076239D02*
X664681D01*
Y1067219D01*
X670951D01*
Y1076239D01*
D02*
G37*
G36*
X1300237Y1070934D02*
X1290574D01*
Y1065103D01*
X1293304D01*
X1295142Y1065345D01*
X1296854Y1066055D01*
X1298325Y1067183D01*
X1299453Y1068654D01*
X1300163Y1070366D01*
X1300237Y1070934D01*
D02*
G37*
G36*
X1288034D02*
X1278371D01*
X1278445Y1070366D01*
X1279155Y1068654D01*
X1280283Y1067183D01*
X1281754Y1066055D01*
X1283466Y1065345D01*
X1285304Y1065103D01*
X1288034D01*
Y1070934D01*
D02*
G37*
G36*
X670951Y1064679D02*
X664681D01*
Y1055660D01*
X670951D01*
Y1064679D01*
D02*
G37*
G36*
X1077420Y1066202D02*
X1068880D01*
Y1058762D01*
X1068880D01*
Y1057690D01*
X1067715Y1057308D01*
X1059228D01*
Y1049868D01*
X1067715D01*
X1067768Y1049868D01*
X1067768Y1049868D01*
X1068880Y1050122D01*
X1068880Y1050122D01*
X1077420D01*
Y1057562D01*
X1077420D01*
Y1058762D01*
X1077420D01*
Y1066202D01*
D02*
G37*
G36*
X1260038Y1070934D02*
X1247604D01*
X1235171D01*
X1235245Y1070366D01*
X1235955Y1068654D01*
X1236637Y1067764D01*
X1236011Y1066494D01*
X1233564D01*
Y1062224D01*
X1241804D01*
Y1059684D01*
X1233564D01*
Y1056067D01*
X1222756D01*
X1221517Y1055821D01*
X1220467Y1055119D01*
X1214392Y1049044D01*
X1212236D01*
X1211068Y1049528D01*
X1209552D01*
X1208384Y1049044D01*
X1201024D01*
X1200711Y1049513D01*
X1200043Y1049960D01*
X1199255Y1050117D01*
X1181055D01*
X1180266Y1049960D01*
X1179598Y1049513D01*
X1179152Y1048845D01*
X1178995Y1048057D01*
Y1045701D01*
X1178739Y1044537D01*
X1177725Y1044537D01*
X1153109D01*
Y1048057D01*
X1152854Y1049341D01*
X1152126Y1050429D01*
X1151038Y1051156D01*
X1149754Y1051412D01*
X1141925D01*
Y1045807D01*
Y1040203D01*
X1149754D01*
X1150799Y1040411D01*
X1152069Y1039736D01*
Y1037651D01*
X1152050Y1037632D01*
X1150799Y1037088D01*
X1150543Y1037260D01*
X1149754Y1037417D01*
X1131555D01*
X1130766Y1037260D01*
X1130098Y1036813D01*
X1129652Y1036145D01*
X1129630Y1036035D01*
X1121752D01*
X1121608Y1036180D01*
X1121917Y1037667D01*
X1121946Y1037678D01*
X1122124D01*
Y1041398D01*
X1116584D01*
X1111044D01*
Y1037678D01*
X1111222D01*
X1112314Y1037248D01*
X1112314Y1036408D01*
Y1029808D01*
X1120854D01*
Y1030338D01*
X1129598D01*
X1129652Y1030069D01*
X1130098Y1029401D01*
X1130766Y1028954D01*
X1131555Y1028798D01*
X1149754D01*
X1150543Y1028954D01*
X1150799Y1029126D01*
X1152050Y1028582D01*
X1152069Y1028563D01*
Y1024951D01*
X1152050Y1024932D01*
X1150799Y1024388D01*
X1150543Y1024560D01*
X1149754Y1024717D01*
X1131555D01*
X1130766Y1024560D01*
X1130098Y1024113D01*
X1129652Y1023445D01*
X1129495Y1022657D01*
Y1018157D01*
X1129652Y1017369D01*
X1130098Y1016701D01*
X1130766Y1016254D01*
X1131555Y1016097D01*
X1149754D01*
X1150543Y1016254D01*
X1150799Y1016426D01*
X1152050Y1015882D01*
X1152069Y1015863D01*
Y1012251D01*
X1152050Y1012232D01*
X1150799Y1011688D01*
X1150543Y1011860D01*
X1149754Y1012017D01*
X1131555D01*
X1130766Y1011860D01*
X1130098Y1011413D01*
X1129652Y1010745D01*
X1129495Y1009957D01*
Y1005457D01*
X1129652Y1004669D01*
X1130098Y1004001D01*
X1130766Y1003554D01*
X1131555Y1003398D01*
X1137417D01*
Y999690D01*
X1137664Y998451D01*
X1138365Y997401D01*
X1140597Y995169D01*
X1141648Y994467D01*
X1141660Y994465D01*
X1141535Y993195D01*
X1122934D01*
X1121844Y992978D01*
X1120920Y992360D01*
X1120920Y992360D01*
X1110132Y981572D01*
X1109514Y980648D01*
X1109297Y979558D01*
X1109297Y979558D01*
Y976001D01*
X1109036Y975740D01*
X1108456Y974340D01*
Y972824D01*
X1109036Y971424D01*
X1109297Y971163D01*
Y945226D01*
X1107376D01*
Y931686D01*
X1116916D01*
Y945226D01*
X1114995D01*
Y970923D01*
X1115496Y971424D01*
X1116076Y972824D01*
Y974340D01*
X1115496Y975740D01*
X1114995Y976241D01*
Y978378D01*
X1124114Y987497D01*
X1164338D01*
X1164338Y987497D01*
X1165428Y987714D01*
X1166352Y988332D01*
X1169834Y991813D01*
X1186990D01*
Y990942D01*
X1195530D01*
Y998382D01*
X1194109D01*
Y1003398D01*
X1199255D01*
X1200043Y1003554D01*
X1200711Y1004001D01*
X1201157Y1004669D01*
X1201314Y1005457D01*
Y1009957D01*
X1201157Y1010745D01*
X1200711Y1011413D01*
X1200043Y1011860D01*
X1199255Y1012017D01*
X1181055D01*
X1180266Y1011860D01*
X1180010Y1011688D01*
X1178759Y1012232D01*
X1178739Y1012251D01*
Y1015863D01*
X1178759Y1015882D01*
X1180010Y1016426D01*
X1180266Y1016254D01*
X1181055Y1016097D01*
X1199255D01*
X1200043Y1016254D01*
X1200711Y1016701D01*
X1201157Y1017369D01*
X1201195Y1017558D01*
X1207771D01*
X1213557Y1011772D01*
Y963078D01*
X1203796Y953317D01*
X1202872Y954152D01*
X1203452Y955552D01*
Y957068D01*
X1203440Y957096D01*
X1207244Y960900D01*
X1207862Y961824D01*
X1208079Y962914D01*
X1208079Y962914D01*
Y976254D01*
X1208000Y976650D01*
Y983414D01*
X1205756D01*
X1205109Y983543D01*
X1197268D01*
X1195530Y985281D01*
Y989242D01*
X1186990D01*
Y988371D01*
X1176276D01*
X1175186Y988154D01*
X1174262Y987536D01*
X1174262Y987536D01*
X1170450Y983724D01*
X1169832Y982800D01*
X1169615Y981710D01*
X1169615Y981710D01*
Y963168D01*
X1169615Y963168D01*
X1169832Y962078D01*
X1170450Y961154D01*
X1172990Y958614D01*
X1172990Y958614D01*
X1173914Y957996D01*
X1175004Y957779D01*
X1176924D01*
X1177186Y956509D01*
Y955348D01*
X1177186Y955138D01*
Y946908D01*
X1191826D01*
Y955138D01*
X1191826Y955348D01*
Y956408D01*
X1191826Y956618D01*
Y964848D01*
X1191826D01*
Y965908D01*
X1191826D01*
Y967279D01*
X1202381D01*
Y964094D01*
X1198070Y959783D01*
X1197484Y959540D01*
X1196412Y958468D01*
X1195832Y957068D01*
Y955552D01*
X1196412Y954152D01*
X1197484Y953080D01*
X1198884Y952500D01*
X1200400D01*
X1201800Y953080D01*
X1202635Y952156D01*
X1198268Y947788D01*
X1197650Y946864D01*
X1197433Y945774D01*
X1197433Y945774D01*
Y924242D01*
X1195012D01*
Y913702D01*
X1205552D01*
Y924242D01*
X1203131D01*
Y944594D01*
X1218420Y959884D01*
X1219038Y960808D01*
X1219255Y961898D01*
X1219255Y961898D01*
Y1012952D01*
X1219255Y1012952D01*
X1219038Y1014042D01*
X1218420Y1014966D01*
X1210965Y1022421D01*
X1210041Y1023039D01*
X1208951Y1023256D01*
X1208951Y1023256D01*
X1201195D01*
X1201157Y1023445D01*
X1200711Y1024113D01*
X1200043Y1024560D01*
X1199255Y1024717D01*
X1181055D01*
X1180266Y1024560D01*
X1180010Y1024388D01*
X1178759Y1024932D01*
X1178739Y1024951D01*
Y1028563D01*
X1178759Y1028582D01*
X1180010Y1029126D01*
X1180266Y1028954D01*
X1181055Y1028798D01*
X1199255D01*
X1200043Y1028954D01*
X1200711Y1029401D01*
X1201157Y1030069D01*
X1201195Y1030258D01*
X1211327D01*
X1221685Y1019900D01*
Y954532D01*
X1221685Y954532D01*
X1221902Y953442D01*
X1222520Y952518D01*
X1232617Y942420D01*
Y924496D01*
X1230196D01*
Y913956D01*
X1240736D01*
Y924496D01*
X1238315D01*
Y943600D01*
X1238315Y943600D01*
X1238098Y944690D01*
X1237480Y945614D01*
X1227383Y955712D01*
Y1021080D01*
X1227166Y1022170D01*
X1226548Y1023094D01*
X1226548Y1023094D01*
X1214521Y1035122D01*
X1213597Y1035739D01*
X1212507Y1035956D01*
X1212507Y1035956D01*
X1201195D01*
X1201157Y1036145D01*
X1200711Y1036813D01*
X1200043Y1037260D01*
X1199255Y1037417D01*
X1181055D01*
X1180266Y1037260D01*
X1180010Y1037088D01*
X1178759Y1037632D01*
X1178739Y1037651D01*
Y1041263D01*
X1178759Y1041282D01*
X1180010Y1041826D01*
X1180266Y1041654D01*
X1181055Y1041497D01*
X1199255D01*
X1200043Y1041654D01*
X1200711Y1042101D01*
X1201024Y1042570D01*
X1208070D01*
X1208152Y1042488D01*
X1209552Y1041908D01*
X1211068D01*
X1212468Y1042488D01*
X1212550Y1042570D01*
X1215733D01*
X1216972Y1042816D01*
X1218022Y1043518D01*
X1224097Y1049593D01*
X1234834D01*
Y1043684D01*
Y1033684D01*
Y1023684D01*
Y1013684D01*
Y1002494D01*
X1233564D01*
Y998224D01*
X1241804D01*
Y995684D01*
X1233564D01*
Y991414D01*
X1236011D01*
X1236637Y990144D01*
X1235955Y989254D01*
X1235245Y987542D01*
X1235171Y986974D01*
X1247604D01*
X1260038D01*
X1259963Y987542D01*
X1259253Y989254D01*
X1258125Y990725D01*
X1256654Y991853D01*
X1254942Y992563D01*
X1253104Y992805D01*
X1250044D01*
Y995077D01*
X1251314Y995925D01*
X1251655Y995784D01*
X1253353D01*
X1254923Y996434D01*
X1256124Y997635D01*
X1256774Y999205D01*
Y1000903D01*
X1256124Y1002473D01*
X1254923Y1003674D01*
X1254104Y1004013D01*
X1253793Y1005497D01*
X1257303Y1009008D01*
X1258005Y1010058D01*
X1258251Y1011297D01*
Y1019247D01*
X1263740D01*
X1264611Y1018376D01*
Y967541D01*
X1259332D01*
X1258242Y967324D01*
X1257318Y966706D01*
X1257318Y966706D01*
X1254524Y963912D01*
X1253906Y962988D01*
X1253689Y961898D01*
X1253689Y961898D01*
Y936196D01*
X1252562D01*
Y927656D01*
X1260002D01*
Y928916D01*
X1261272Y929169D01*
X1262209Y926905D01*
X1263853Y924445D01*
X1265945Y922353D01*
X1268405Y920710D01*
X1271139Y919577D01*
X1274041Y919000D01*
X1276999D01*
X1279901Y919577D01*
X1282635Y920710D01*
X1285095Y922353D01*
X1287187Y924445D01*
X1288831Y926905D01*
X1289963Y929639D01*
X1290540Y932541D01*
Y935499D01*
X1289963Y938401D01*
X1288831Y941135D01*
X1287187Y943595D01*
X1285095Y945687D01*
X1282635Y947330D01*
X1279901Y948463D01*
X1276999Y949040D01*
X1274041D01*
X1271139Y948463D01*
X1268405Y947330D01*
X1265945Y945687D01*
X1263853Y943595D01*
X1262209Y941135D01*
X1261077Y938401D01*
X1261028Y938154D01*
X1259584Y937343D01*
X1259387Y937418D01*
Y960718D01*
X1260512Y961843D01*
X1289140D01*
X1296615Y954368D01*
Y920914D01*
X1285330Y909629D01*
X1230794D01*
X1228907Y911516D01*
Y925352D01*
X1228690Y926442D01*
X1228072Y927366D01*
X1228072Y927366D01*
X1224442Y930997D01*
Y935434D01*
X1217002D01*
Y926894D01*
X1220487D01*
X1221869Y925512D01*
X1221343Y924242D01*
X1215541D01*
X1214431Y925352D01*
Y926894D01*
X1215302D01*
Y935434D01*
X1207862D01*
Y926894D01*
X1208733D01*
Y924172D01*
X1208733Y924172D01*
X1208950Y923082D01*
X1209568Y922158D01*
X1211512Y920213D01*
Y913702D01*
X1221939D01*
X1222052Y913702D01*
X1223209Y913430D01*
Y910336D01*
X1223209Y910336D01*
X1223426Y909246D01*
X1224044Y908322D01*
X1227600Y904766D01*
X1227600Y904766D01*
X1228524Y904148D01*
X1229614Y903931D01*
X1229614Y903931D01*
X1286510D01*
X1286510Y903931D01*
X1287600Y904148D01*
X1288524Y904766D01*
X1301478Y917720D01*
X1302096Y918644D01*
X1302313Y919734D01*
X1302313Y919734D01*
Y955548D01*
X1302313Y955548D01*
X1302096Y956638D01*
X1301478Y957562D01*
X1301478Y957562D01*
X1292334Y966706D01*
X1291410Y967324D01*
X1290320Y967541D01*
X1290320Y967541D01*
X1270309D01*
Y1019556D01*
X1270092Y1020646D01*
X1269474Y1021570D01*
X1269474Y1021570D01*
X1266934Y1024110D01*
X1266010Y1024728D01*
X1264920Y1024945D01*
X1264920Y1024945D01*
X1258251D01*
Y1047496D01*
X1258005Y1048735D01*
X1257303Y1049785D01*
X1254268Y1052820D01*
X1254516Y1054066D01*
X1254923Y1054234D01*
X1256124Y1055435D01*
X1256774Y1057005D01*
Y1058703D01*
X1256124Y1060273D01*
X1254923Y1061474D01*
X1253353Y1062124D01*
X1251655D01*
X1251314Y1061983D01*
X1250044Y1062831D01*
Y1065103D01*
X1253104D01*
X1254942Y1065345D01*
X1256654Y1066055D01*
X1258125Y1067183D01*
X1259253Y1068654D01*
X1259963Y1070366D01*
X1260038Y1070934D01*
D02*
G37*
G36*
X1139385Y1051412D02*
X1131555D01*
X1130271Y1051156D01*
X1129183Y1050429D01*
X1128455Y1049341D01*
X1128200Y1048057D01*
Y1047077D01*
X1139385D01*
Y1051412D01*
D02*
G37*
G36*
X1122124Y1047658D02*
X1117854D01*
Y1043938D01*
X1122124D01*
Y1047658D01*
D02*
G37*
G36*
X1115314D02*
X1111044D01*
Y1043938D01*
X1115314D01*
Y1047658D01*
D02*
G37*
G36*
X1139385Y1044537D02*
X1128200D01*
Y1043557D01*
X1128455Y1042273D01*
X1129183Y1041185D01*
X1130271Y1040458D01*
X1131555Y1040203D01*
X1139385D01*
Y1044537D01*
D02*
G37*
G36*
X797393Y1043594D02*
X796450D01*
Y1035960D01*
X800734D01*
Y1040253D01*
X800480Y1041531D01*
X799755Y1042615D01*
X798671Y1043340D01*
X797393Y1043594D01*
D02*
G37*
G36*
X793910D02*
X792968D01*
X791689Y1043340D01*
X790605Y1042615D01*
X789880Y1041531D01*
X789626Y1040253D01*
Y1035960D01*
X793910D01*
Y1043594D01*
D02*
G37*
G36*
X933954Y1095502D02*
X932438D01*
X931038Y1094922D01*
X929966Y1093850D01*
X929386Y1092450D01*
Y1090934D01*
X929966Y1089534D01*
X930865Y1088635D01*
Y1042365D01*
X919277Y1030777D01*
X862279D01*
X850264Y1042792D01*
X849508Y1043297D01*
X848616Y1043475D01*
X833834D01*
Y1044864D01*
X825294D01*
Y1037424D01*
X833834D01*
Y1038813D01*
X847651D01*
X859666Y1026798D01*
X860422Y1026293D01*
X861314Y1026115D01*
X920242D01*
X921134Y1026293D01*
X921890Y1026798D01*
X934844Y1039752D01*
X935349Y1040508D01*
X935527Y1041400D01*
Y1088635D01*
X936426Y1089534D01*
X937006Y1090934D01*
Y1092450D01*
X936426Y1093850D01*
X935354Y1094922D01*
X933954Y1095502D01*
D02*
G37*
G36*
X817393Y1042299D02*
X812968D01*
X812184Y1042143D01*
X811520Y1041700D01*
X811077Y1041036D01*
X810921Y1040253D01*
Y1029128D01*
X811077Y1028344D01*
X811520Y1027680D01*
X812184Y1027236D01*
X812968Y1027081D01*
X817393D01*
X818176Y1027236D01*
X818840Y1027680D01*
X819284Y1028344D01*
X819439Y1029128D01*
Y1029673D01*
X825294D01*
Y1028284D01*
X833834D01*
Y1035724D01*
X825294D01*
Y1034335D01*
X819439D01*
Y1040253D01*
X819284Y1041036D01*
X818840Y1041700D01*
X818176Y1042143D01*
X817393Y1042299D01*
D02*
G37*
G36*
X679761Y1037300D02*
X673491D01*
Y1028281D01*
X679761D01*
Y1037300D01*
D02*
G37*
G36*
X670951D02*
X664681D01*
Y1028281D01*
X670951D01*
Y1037300D01*
D02*
G37*
G36*
X800734Y1033420D02*
X796450D01*
Y1025786D01*
X797393D01*
X798671Y1026040D01*
X799755Y1026765D01*
X800480Y1027849D01*
X800734Y1029128D01*
Y1033420D01*
D02*
G37*
G36*
X793910D02*
X789626D01*
Y1029128D01*
X789880Y1027849D01*
X790605Y1026765D01*
X791689Y1026040D01*
X792968Y1025786D01*
X793910D01*
Y1033420D01*
D02*
G37*
G36*
X679761Y1025741D02*
X673491D01*
Y1016721D01*
X679761D01*
Y1025741D01*
D02*
G37*
G36*
X670951D02*
X664681D01*
Y1016721D01*
X670951D01*
Y1025741D01*
D02*
G37*
G36*
X1017064Y1012864D02*
X1015952D01*
X1015794Y1012864D01*
X1007412D01*
Y1011348D01*
X1006046D01*
Y1012610D01*
X997664D01*
X997506Y1012610D01*
X996394D01*
X996236Y1012610D01*
X987854D01*
Y1012610D01*
X986742D01*
Y1012610D01*
X978202D01*
Y1005170D01*
X980395D01*
Y978611D01*
X957965Y956181D01*
X949494D01*
Y962620D01*
X926954D01*
Y945080D01*
X949494D01*
Y951519D01*
X958930D01*
X959822Y951697D01*
X960578Y952202D01*
X984374Y975998D01*
X984879Y976754D01*
X985057Y977646D01*
Y1005170D01*
X986742D01*
Y1005170D01*
X987854D01*
Y1005170D01*
X996236D01*
X996394Y1005170D01*
X997506D01*
X997664Y1005170D01*
X999699D01*
Y981151D01*
X957631Y939083D01*
X874014D01*
X873122Y938905D01*
X872366Y938400D01*
X866576Y932610D01*
X866071Y931854D01*
X865893Y930962D01*
Y928620D01*
X856954D01*
Y911080D01*
X879494D01*
Y928620D01*
X870555D01*
Y929997D01*
X874979Y934421D01*
X935893D01*
Y928620D01*
X926954D01*
Y911080D01*
X949494D01*
Y928620D01*
X940555D01*
Y934421D01*
X958596D01*
X959488Y934599D01*
X960244Y935104D01*
X1003678Y978538D01*
X1004183Y979294D01*
X1004361Y980186D01*
Y1005170D01*
X1006046D01*
Y1006686D01*
X1007412D01*
Y1005424D01*
X1015794D01*
X1015952Y1005424D01*
X1017064D01*
X1017222Y1005424D01*
X1019257D01*
Y986739D01*
X963552Y931034D01*
X963047Y930278D01*
X962869Y929386D01*
Y910539D01*
X959409Y907079D01*
X855675D01*
X851299Y911455D01*
Y948333D01*
X869872Y966906D01*
X870377Y967662D01*
X870555Y968554D01*
Y983080D01*
X879494D01*
Y1000620D01*
X856954D01*
Y983080D01*
X865893D01*
Y969519D01*
X847320Y950947D01*
X846815Y950191D01*
X846638Y949299D01*
Y910489D01*
X846815Y909597D01*
X847320Y908841D01*
X853062Y903100D01*
X853818Y902595D01*
X854710Y902417D01*
X960374D01*
X961266Y902595D01*
X962022Y903100D01*
X966848Y907926D01*
X967353Y908682D01*
X967531Y909574D01*
Y928421D01*
X1023236Y984126D01*
X1023741Y984882D01*
X1023919Y985774D01*
Y1005424D01*
X1025604D01*
Y1012864D01*
X1017222D01*
X1017064Y1012864D01*
D02*
G37*
G36*
X879494Y1022620D02*
X856954D01*
Y1005080D01*
X879494D01*
Y1022620D01*
D02*
G37*
G36*
X949494Y1017620D02*
X926954D01*
Y1000080D01*
X949494D01*
Y1017620D01*
D02*
G37*
G36*
X695468Y1005780D02*
X693470D01*
X691625Y1005016D01*
X690213Y1003604D01*
X689449Y1001759D01*
Y999761D01*
X690213Y997916D01*
X691625Y996504D01*
X693470Y995740D01*
X695468D01*
X697313Y996504D01*
X698725Y997916D01*
X699489Y999761D01*
Y1001759D01*
X698725Y1003604D01*
X697313Y1005016D01*
X695468Y1005780D01*
D02*
G37*
G36*
X1293304Y992805D02*
X1290574D01*
Y986974D01*
X1300237D01*
X1300163Y987542D01*
X1299453Y989254D01*
X1298325Y990725D01*
X1296854Y991853D01*
X1295142Y992563D01*
X1293304Y992805D01*
D02*
G37*
G36*
X1288034D02*
X1285304D01*
X1283466Y992563D01*
X1281754Y991853D01*
X1280283Y990725D01*
X1279155Y989254D01*
X1278445Y987542D01*
X1278371Y986974D01*
X1288034D01*
Y992805D01*
D02*
G37*
G36*
X904379Y1002620D02*
X902069D01*
X899839Y1002022D01*
X897839Y1000868D01*
X896206Y999235D01*
X895052Y997235D01*
X894454Y995005D01*
Y992695D01*
X895052Y990465D01*
X896206Y988465D01*
X897839Y986832D01*
X899839Y985678D01*
X902069Y985080D01*
X904379D01*
X906609Y985678D01*
X908609Y986832D01*
X910242Y988465D01*
X911396Y990465D01*
X911994Y992695D01*
Y995005D01*
X911396Y997235D01*
X910242Y999235D01*
X908609Y1000868D01*
X906609Y1002022D01*
X904379Y1002620D01*
D02*
G37*
G36*
X1300237Y984434D02*
X1290574D01*
Y978603D01*
X1293304D01*
X1295142Y978845D01*
X1296854Y979555D01*
X1298325Y980683D01*
X1299453Y982154D01*
X1300163Y983866D01*
X1300237Y984434D01*
D02*
G37*
G36*
X1288034D02*
X1278371D01*
X1278445Y983866D01*
X1279155Y982154D01*
X1280283Y980683D01*
X1281754Y979555D01*
X1283466Y978845D01*
X1285304Y978603D01*
X1288034D01*
Y984434D01*
D02*
G37*
G36*
X1260038D02*
X1248874D01*
Y978603D01*
X1253104D01*
X1254942Y978845D01*
X1256654Y979555D01*
X1258125Y980683D01*
X1259253Y982154D01*
X1259963Y983866D01*
X1260038Y984434D01*
D02*
G37*
G36*
X1246334D02*
X1235171D01*
X1235245Y983866D01*
X1235955Y982154D01*
X1237083Y980683D01*
X1238554Y979555D01*
X1240266Y978845D01*
X1242104Y978603D01*
X1246334D01*
Y984434D01*
D02*
G37*
G36*
X679761Y984799D02*
X673491D01*
Y975779D01*
X679761D01*
Y984799D01*
D02*
G37*
G36*
X670951D02*
X664681D01*
Y975779D01*
X670951D01*
Y984799D01*
D02*
G37*
G36*
X679761Y973239D02*
X673491D01*
Y964220D01*
X679761D01*
Y973239D01*
D02*
G37*
G36*
X670951D02*
X664681D01*
Y964220D01*
X670951D01*
Y973239D01*
D02*
G37*
G36*
X1159506Y984758D02*
X1157990D01*
X1156590Y984178D01*
X1155518Y983106D01*
X1154938Y981706D01*
Y980190D01*
X1155518Y978790D01*
X1155899Y978409D01*
Y974348D01*
X1152086D01*
Y966118D01*
X1152086Y965908D01*
Y964747D01*
X1151824Y963477D01*
X1147988D01*
Y964898D01*
X1140548D01*
Y956358D01*
X1147988D01*
Y957779D01*
X1151824D01*
X1152086Y956509D01*
Y955348D01*
X1152086Y955138D01*
Y953647D01*
X1146479D01*
X1146428Y953698D01*
X1145028Y954278D01*
X1143512D01*
X1142112Y953698D01*
X1141040Y952626D01*
X1140460Y951226D01*
Y949710D01*
X1141040Y948310D01*
X1142112Y947238D01*
X1143512Y946658D01*
X1145028D01*
X1146428Y947238D01*
X1147139Y947949D01*
X1152086D01*
Y946908D01*
X1166726D01*
Y955138D01*
X1166726Y955348D01*
Y956408D01*
X1166726Y956618D01*
Y964638D01*
X1166726Y964848D01*
Y965908D01*
X1166726Y966118D01*
Y974348D01*
X1161597D01*
Y978409D01*
X1161978Y978790D01*
X1162558Y980190D01*
Y981706D01*
X1161978Y983106D01*
X1160906Y984178D01*
X1159506Y984758D01*
D02*
G37*
G36*
X1136392Y979932D02*
X1134876D01*
X1133476Y979352D01*
X1132404Y978280D01*
X1131824Y976880D01*
Y975364D01*
X1132404Y973964D01*
X1132785Y973583D01*
Y964898D01*
X1131408D01*
Y956358D01*
X1138848D01*
Y964898D01*
X1138483D01*
Y973583D01*
X1138864Y973964D01*
X1139444Y975364D01*
Y976880D01*
X1138864Y978280D01*
X1137792Y979352D01*
X1136392Y979932D01*
D02*
G37*
G36*
X1035992Y948412D02*
X1033272D01*
Y945642D01*
X1035992D01*
Y948412D01*
D02*
G37*
G36*
Y943102D02*
X1033272D01*
Y940332D01*
X1035992D01*
Y943102D01*
D02*
G37*
G36*
X1028188Y956564D02*
X1026672D01*
X1025272Y955984D01*
X1024307Y955019D01*
X1003488D01*
X1002596Y954841D01*
X1001840Y954336D01*
X982858Y935354D01*
X982353Y934598D01*
X982175Y933706D01*
Y921464D01*
X980786D01*
Y912924D01*
X981269D01*
Y911304D01*
X980786D01*
Y902764D01*
X988226D01*
Y911304D01*
X987743D01*
Y912924D01*
X988226D01*
Y921464D01*
X986837D01*
Y932741D01*
X1004453Y950357D01*
X1024439D01*
X1025165Y949631D01*
Y947142D01*
X1024842D01*
Y941602D01*
X1024842D01*
X1025037Y940332D01*
X1024769Y939930D01*
X1024591Y939038D01*
Y937387D01*
X1010571D01*
Y938657D01*
X1008031D01*
Y934593D01*
X1005491D01*
Y938657D01*
X1002951D01*
Y933799D01*
X1000633D01*
Y931069D01*
X999363D01*
Y928529D01*
X1003427D01*
Y925989D01*
X999363D01*
Y923449D01*
X1000633D01*
Y919181D01*
X1000250Y918859D01*
X999363Y918381D01*
X998730Y918507D01*
X997366D01*
Y921464D01*
X995977D01*
Y922771D01*
X996878Y923672D01*
X997458Y925072D01*
Y926588D01*
X996878Y927988D01*
X995806Y929060D01*
X994406Y929640D01*
X992890D01*
X991490Y929060D01*
X990418Y927988D01*
X989838Y926588D01*
Y925072D01*
X990418Y923672D01*
X991315Y922775D01*
Y921464D01*
X989926D01*
Y912924D01*
X996401D01*
X997130Y911654D01*
X996925Y911304D01*
X989926D01*
Y902764D01*
X997366D01*
Y906227D01*
X997966D01*
X998858Y906405D01*
X999614Y906910D01*
X1001421Y908717D01*
X1004221D01*
Y905129D01*
X1029303D01*
Y908717D01*
X1032891D01*
Y912926D01*
X1035145D01*
X1036037Y913104D01*
X1036717Y913558D01*
X1037868Y913844D01*
X1037868Y913844D01*
Y913844D01*
X1037868Y913844D01*
X1043408D01*
Y917014D01*
X1044678D01*
Y919734D01*
X1040638D01*
X1036598D01*
Y918895D01*
X1036452D01*
X1035560Y918717D01*
X1034804Y918212D01*
X1034180Y917588D01*
X1032891D01*
Y923449D01*
X1034161D01*
Y925989D01*
X1030097D01*
Y928529D01*
X1034161D01*
Y931069D01*
X1032891D01*
Y933799D01*
X1029303D01*
Y937387D01*
X1029303Y937387D01*
X1029303D01*
X1029303Y937387D01*
X1029558Y938551D01*
X1029715Y938786D01*
X1029893Y939678D01*
Y940332D01*
X1030732D01*
Y944372D01*
Y948412D01*
X1029827D01*
Y949763D01*
X1030660Y950596D01*
X1031240Y951996D01*
Y953512D01*
X1030660Y954912D01*
X1029588Y955984D01*
X1028188Y956564D01*
D02*
G37*
G36*
X807393Y1022699D02*
X802968D01*
X802184Y1022543D01*
X801520Y1022100D01*
X801077Y1021436D01*
X800921Y1020652D01*
Y1009528D01*
X801077Y1008744D01*
X801520Y1008080D01*
X802184Y1007636D01*
X802849Y1007504D01*
Y996442D01*
X803027Y995550D01*
X803532Y994794D01*
X812247Y986079D01*
Y972040D01*
X806620D01*
Y935500D01*
X822160D01*
Y972040D01*
X816909D01*
Y987044D01*
X816731Y987936D01*
X816226Y988692D01*
X807511Y997407D01*
Y1007504D01*
X808176Y1007636D01*
X808840Y1008080D01*
X809284Y1008744D01*
X809439Y1009528D01*
Y1020652D01*
X809284Y1021436D01*
X808840Y1022100D01*
X808176Y1022543D01*
X807393Y1022699D01*
D02*
G37*
G36*
X1173222Y941578D02*
X1171706D01*
X1170306Y940998D01*
X1169234Y939926D01*
X1168654Y938526D01*
Y937010D01*
X1169234Y935610D01*
X1170306Y934538D01*
X1171706Y933958D01*
X1173222D01*
X1174600Y934529D01*
X1178862D01*
Y934046D01*
X1187402D01*
Y941486D01*
X1178862D01*
Y941003D01*
X1174610D01*
X1173222Y941578D01*
D02*
G37*
G36*
X1086916Y945226D02*
X1077376D01*
Y931686D01*
X1086916D01*
Y945226D01*
D02*
G37*
G36*
X1074686Y935996D02*
X1068416D01*
Y930726D01*
X1074686D01*
Y935996D01*
D02*
G37*
G36*
X1149686D02*
X1143416D01*
Y930726D01*
X1149686D01*
Y935996D01*
D02*
G37*
G36*
X1140876D02*
X1134606D01*
Y930726D01*
X1140876D01*
Y935996D01*
D02*
G37*
G36*
X1065876D02*
X1059606D01*
Y930726D01*
X1065876D01*
Y935996D01*
D02*
G37*
G36*
X1131916Y945226D02*
X1122376D01*
Y931686D01*
X1123463D01*
X1123952Y930416D01*
X1123916Y930380D01*
X1123336Y928980D01*
Y927464D01*
X1123916Y926064D01*
X1124988Y924992D01*
X1126388Y924412D01*
X1127904D01*
X1129304Y924992D01*
X1130376Y926064D01*
X1130956Y927464D01*
Y928980D01*
X1130376Y930380D01*
X1130340Y930416D01*
X1130829Y931686D01*
X1131916D01*
Y945226D01*
D02*
G37*
G36*
X1149686Y928186D02*
X1143416D01*
Y922916D01*
X1149686D01*
Y928186D01*
D02*
G37*
G36*
X1140876D02*
X1134606D01*
Y922916D01*
X1140876D01*
Y928186D01*
D02*
G37*
G36*
X1074686D02*
X1068416D01*
Y922916D01*
X1074686D01*
Y928186D01*
D02*
G37*
G36*
X1065876D02*
X1059606D01*
Y922916D01*
X1065876D01*
Y928186D01*
D02*
G37*
G36*
X1044678Y924994D02*
X1041908D01*
Y922274D01*
X1044678D01*
Y924994D01*
D02*
G37*
G36*
X1039368D02*
X1036598D01*
Y922274D01*
X1039368D01*
Y924994D01*
D02*
G37*
G36*
X1171140Y925512D02*
X1165870D01*
Y920242D01*
X1171140D01*
Y925512D01*
D02*
G37*
G36*
X1163330D02*
X1158060D01*
Y920242D01*
X1163330D01*
Y925512D01*
D02*
G37*
G36*
X696999Y949040D02*
X694041D01*
X691139Y948463D01*
X688405Y947330D01*
X685945Y945687D01*
X683853Y943595D01*
X682209Y941135D01*
X681077Y938401D01*
X680500Y935499D01*
Y932541D01*
X681077Y929639D01*
X682209Y926905D01*
X683853Y924445D01*
X685945Y922353D01*
X688405Y920710D01*
X691139Y919577D01*
X694041Y919000D01*
X696999D01*
X699901Y919577D01*
X702635Y920710D01*
X705095Y922353D01*
X707187Y924445D01*
X708830Y926905D01*
X709963Y929639D01*
X710540Y932541D01*
Y935499D01*
X709963Y938401D01*
X708830Y941135D01*
X707187Y943595D01*
X705095Y945687D01*
X702635Y947330D01*
X699901Y948463D01*
X696999Y949040D01*
D02*
G37*
G36*
X904379Y932620D02*
X902069D01*
X899839Y932022D01*
X897839Y930868D01*
X896206Y929235D01*
X895052Y927235D01*
X894454Y925005D01*
Y922695D01*
X895052Y920465D01*
X896206Y918465D01*
X897839Y916832D01*
X899839Y915678D01*
X902069Y915080D01*
X904379D01*
X906609Y915678D01*
X908609Y916832D01*
X910242Y918465D01*
X911396Y920465D01*
X911994Y922695D01*
Y925005D01*
X911396Y927235D01*
X910242Y929235D01*
X908609Y930868D01*
X906609Y932022D01*
X904379Y932620D01*
D02*
G37*
G36*
X1250862Y936196D02*
X1243422D01*
Y927656D01*
X1244545D01*
Y923798D01*
X1244545Y923798D01*
X1244762Y922708D01*
X1245380Y921784D01*
X1246696Y920467D01*
Y913956D01*
X1257236D01*
Y924496D01*
X1250725D01*
X1250243Y924978D01*
Y927656D01*
X1250862D01*
Y936196D01*
D02*
G37*
G36*
X1187402Y932346D02*
X1178862D01*
Y924906D01*
X1177867Y924242D01*
X1175830D01*
Y913702D01*
X1186370D01*
Y924242D01*
X1187365Y924906D01*
X1187402D01*
Y932346D01*
D02*
G37*
G36*
X1171140Y917702D02*
X1165870D01*
Y912432D01*
X1171140D01*
Y917702D01*
D02*
G37*
G36*
X1163330D02*
X1158060D01*
Y912432D01*
X1163330D01*
Y917702D01*
D02*
G37*
G36*
X1120794Y923726D02*
X1118498D01*
X1116378Y922848D01*
X1114754Y921224D01*
X1113876Y919104D01*
Y916808D01*
X1114754Y914688D01*
X1116378Y913064D01*
X1118498Y912186D01*
X1120794D01*
X1122914Y913064D01*
X1124538Y914688D01*
X1125416Y916808D01*
Y919104D01*
X1124538Y921224D01*
X1122914Y922848D01*
X1120794Y923726D01*
D02*
G37*
G36*
X1090794D02*
X1088498D01*
X1086378Y922848D01*
X1084754Y921224D01*
X1083876Y919104D01*
Y916808D01*
X1084754Y914688D01*
X1086378Y913064D01*
X1088498Y912186D01*
X1090794D01*
X1092914Y913064D01*
X1094538Y914688D01*
X1095416Y916808D01*
Y919104D01*
X1094538Y921224D01*
X1092914Y922848D01*
X1090794Y923726D01*
D02*
G37*
G36*
X1074686Y912996D02*
X1068416D01*
Y907726D01*
X1074686D01*
Y912996D01*
D02*
G37*
G36*
X1149686D02*
X1143416D01*
Y907726D01*
X1149686D01*
Y912996D01*
D02*
G37*
G36*
X1140876D02*
X1134606D01*
Y907726D01*
X1140876D01*
Y912996D01*
D02*
G37*
G36*
X1065876D02*
X1059606D01*
Y907726D01*
X1065876D01*
Y912996D01*
D02*
G37*
%LPD*%
G36*
X961219Y1076945D02*
X961224Y1076932D01*
Y1068880D01*
X968664D01*
Y1070993D01*
X974068D01*
X974466Y1069945D01*
X974479Y1069723D01*
X969315Y1064559D01*
X968765D01*
X967866Y1065458D01*
X966466Y1066038D01*
X964950D01*
X963550Y1065458D01*
X962478Y1064386D01*
X961898Y1062986D01*
Y1061470D01*
X962478Y1060070D01*
X963550Y1058998D01*
X964950Y1058418D01*
X966466D01*
X967866Y1058998D01*
X968765Y1059897D01*
X970280D01*
X971172Y1060075D01*
X971928Y1060580D01*
X974847Y1063499D01*
X976117Y1062972D01*
Y1062269D01*
X976241Y1061647D01*
X976593Y1061119D01*
X977121Y1060767D01*
X977743Y1060643D01*
X978591D01*
X978607Y1059373D01*
X975665Y1056431D01*
X972288D01*
Y1056820D01*
X966748D01*
Y1056431D01*
X964692D01*
X963800Y1056253D01*
X963044Y1055748D01*
X960504Y1053208D01*
X959999Y1052452D01*
X959821Y1051560D01*
Y1042933D01*
X958922Y1042034D01*
X958342Y1040634D01*
Y1039118D01*
X958922Y1037718D01*
X959994Y1036646D01*
X961394Y1036066D01*
X962910D01*
X964310Y1036646D01*
X965382Y1037718D01*
X965962Y1039118D01*
Y1040634D01*
X965382Y1042034D01*
X964483Y1042933D01*
Y1050595D01*
X965478Y1051590D01*
X966520Y1051418D01*
X966748Y1051336D01*
Y1046940D01*
X972288D01*
Y1047459D01*
X983620D01*
X984462Y1047626D01*
X985176Y1048103D01*
X987190Y1050117D01*
X988453Y1049584D01*
X988491Y1049397D01*
X988843Y1048869D01*
X989371Y1048517D01*
X989993Y1048393D01*
X991943D01*
X992367Y1048477D01*
X993008Y1048181D01*
X993637Y1047705D01*
Y1046454D01*
X990730Y1043547D01*
X990225Y1042791D01*
X990047Y1041899D01*
Y1021750D01*
X988012D01*
X987854Y1021750D01*
X986742D01*
X986591Y1021750D01*
X985321Y1021766D01*
Y1030225D01*
X985702Y1030606D01*
X986282Y1032006D01*
Y1033522D01*
X985702Y1034922D01*
X984630Y1035994D01*
X983230Y1036574D01*
X981714D01*
X980314Y1035994D01*
X979242Y1034922D01*
X978662Y1033522D01*
Y1032006D01*
X979242Y1030606D01*
X979623Y1030225D01*
Y1021750D01*
X978202D01*
Y1020361D01*
X966422D01*
X955339Y1031443D01*
Y1051865D01*
X957452Y1053978D01*
X957957Y1054734D01*
X958135Y1055626D01*
Y1068880D01*
X959524D01*
X959524Y1076410D01*
X960654Y1077151D01*
X961219Y1076945D01*
D02*
G37*
G36*
X840695Y1121461D02*
Y1106122D01*
X839558D01*
Y1098638D01*
X839372Y1098452D01*
X837886Y1098762D01*
X837858Y1098832D01*
Y1106122D01*
X830418D01*
Y1104183D01*
X828294D01*
X827402Y1104005D01*
X826646Y1103500D01*
X825337Y1102191D01*
X824350Y1103118D01*
Y1106602D01*
X823897Y1107695D01*
X822875Y1108118D01*
X822905Y1108268D01*
Y1108740D01*
X818562D01*
Y1110010D01*
X817292D01*
Y1114503D01*
X816970D01*
X816062Y1114322D01*
X815154Y1114503D01*
X813982D01*
X812848Y1114830D01*
X812848Y1115300D01*
Y1117600D01*
X808858D01*
Y1120140D01*
X812848D01*
Y1122910D01*
X813811Y1123651D01*
X838505D01*
X840695Y1121461D01*
D02*
G37*
G36*
X885147Y1116124D02*
Y1091136D01*
X883754D01*
Y1082596D01*
X885147D01*
Y1080006D01*
X885325Y1079114D01*
X885441Y1078940D01*
X885726Y1077788D01*
X885726Y1077788D01*
X885726D01*
X885726Y1077788D01*
Y1076308D01*
X883666D01*
Y1072268D01*
X882396D01*
Y1070998D01*
X876956D01*
Y1068228D01*
X878226D01*
Y1066058D01*
X876956D01*
Y1063538D01*
X882396D01*
Y1060998D01*
X876956D01*
Y1058478D01*
X878226D01*
Y1054498D01*
X879936D01*
Y1048035D01*
X878907Y1047006D01*
X878327Y1045606D01*
Y1044090D01*
X878907Y1042690D01*
X879979Y1041618D01*
X881379Y1041038D01*
X882895D01*
X884295Y1041618D01*
X885367Y1042690D01*
X885947Y1044090D01*
Y1045606D01*
X885367Y1047006D01*
X884597Y1047776D01*
Y1051407D01*
X885726Y1051748D01*
Y1051748D01*
X891766D01*
Y1054498D01*
X899266D01*
Y1064937D01*
X902002D01*
Y1064352D01*
X904185D01*
Y1044104D01*
X898742Y1038661D01*
X871130D01*
X859845Y1049946D01*
Y1055878D01*
Y1084017D01*
X874614D01*
Y1082596D01*
X882054D01*
Y1091136D01*
X874614D01*
Y1089715D01*
X859845D01*
Y1095756D01*
X859845Y1095756D01*
X859628Y1096846D01*
X859010Y1097770D01*
X859010Y1097770D01*
X853168Y1103612D01*
X852244Y1104230D01*
X851154Y1104447D01*
X851154Y1104447D01*
X846998D01*
Y1106122D01*
X845357D01*
Y1122426D01*
X845179Y1123318D01*
X844674Y1124074D01*
X841118Y1127630D01*
X840362Y1128135D01*
X839470Y1128313D01*
X806958D01*
X806066Y1128135D01*
X805310Y1127630D01*
X802770Y1125090D01*
X802265Y1124334D01*
X802087Y1123442D01*
Y1121640D01*
X801698D01*
Y1116100D01*
X802087D01*
Y1114304D01*
X802265Y1113412D01*
X802770Y1112656D01*
X805416Y1110010D01*
X804998Y1109592D01*
X804493Y1108836D01*
X804356Y1108148D01*
X804320D01*
X803227Y1107695D01*
X802774Y1106602D01*
Y1103118D01*
X801784Y1102191D01*
X801156D01*
X800264Y1102013D01*
X799508Y1101508D01*
X798881Y1100881D01*
X796706D01*
Y1102820D01*
X795317D01*
Y1129747D01*
X871525D01*
X885147Y1116124D01*
D02*
G37*
%LPC*%
G36*
X820154Y1114503D02*
X819832D01*
Y1111280D01*
X822905D01*
Y1111752D01*
X822695Y1112805D01*
X822099Y1113697D01*
X821207Y1114294D01*
X820154Y1114503D01*
D02*
G37*
G36*
X868579Y1080304D02*
Y1076601D01*
X872282D01*
X871616Y1078209D01*
X870187Y1079638D01*
X868579Y1080304D01*
D02*
G37*
G36*
X866039D02*
X864432Y1079638D01*
X863003Y1078209D01*
X862337Y1076601D01*
X866039D01*
Y1080304D01*
D02*
G37*
G36*
X881126Y1076308D02*
X876956D01*
Y1073538D01*
X881126D01*
Y1076308D01*
D02*
G37*
G36*
X872282Y1074061D02*
X868579D01*
Y1070359D01*
X870187Y1071024D01*
X871616Y1072454D01*
X872282Y1074061D01*
D02*
G37*
G36*
X866039D02*
X862337D01*
X863003Y1072454D01*
X864432Y1071024D01*
X866039Y1070359D01*
Y1074061D01*
D02*
G37*
%LPD*%
G36*
X1177725Y1008977D02*
X1178739Y1008977D01*
X1178995Y1007813D01*
Y1005457D01*
X1179152Y1004669D01*
X1179598Y1004001D01*
X1180266Y1003554D01*
X1181055Y1003398D01*
X1188411D01*
Y998382D01*
X1186990D01*
Y997511D01*
X1168654D01*
X1168654Y997511D01*
X1167564Y997294D01*
X1166640Y996676D01*
X1166640Y996676D01*
X1163158Y993195D01*
X1158067D01*
X1157942Y994465D01*
X1157955Y994467D01*
X1159005Y995169D01*
X1163148Y999312D01*
X1167354D01*
X1168150Y998982D01*
X1169666D01*
X1171066Y999562D01*
X1172138Y1000634D01*
X1172718Y1002034D01*
Y1003550D01*
X1172138Y1004950D01*
X1171066Y1006022D01*
X1169666Y1006602D01*
X1168150D01*
X1166750Y1006022D01*
X1166514Y1005786D01*
X1161807D01*
X1160568Y1005540D01*
X1159518Y1004838D01*
X1155375Y1000695D01*
X1144227D01*
X1143892Y1001031D01*
Y1003398D01*
X1149754D01*
X1150543Y1003554D01*
X1151211Y1004001D01*
X1151657Y1004669D01*
X1151814Y1005457D01*
Y1007813D01*
X1152070Y1008977D01*
X1153084Y1008977D01*
X1177725D01*
D02*
G37*
G36*
X1186990Y981802D02*
X1190951D01*
X1194074Y978680D01*
X1194998Y978062D01*
X1196088Y977845D01*
X1196088Y977845D01*
X1201554D01*
X1202448Y976944D01*
X1202445Y976575D01*
X1202381Y976254D01*
Y972977D01*
X1191826D01*
Y974348D01*
X1177186D01*
Y965908D01*
X1177186D01*
Y964878D01*
X1177152Y964845D01*
X1175425Y964675D01*
X1175313Y964766D01*
Y980530D01*
X1177456Y982673D01*
X1186990D01*
Y981802D01*
D02*
G37*
D13*
X980593Y1083909D02*
X981258Y1083244D01*
X981618D01*
X980593Y1083909D02*
Y1093111D01*
X1025398Y925322D02*
Y929640D01*
Y916940D02*
Y925322D01*
X1008920Y919258D02*
X1014984Y925322D01*
X1025398D01*
X1029938Y915416D02*
X1030097Y915257D01*
X1026922Y915416D02*
X1029938D01*
X1025398Y916940D02*
X1026922Y915416D01*
X1025398Y929640D02*
X1026668Y930910D01*
Y934498D01*
X1026763Y934593D01*
X1003427Y919258D02*
X1008920D01*
X813562Y1110010D02*
X818562D01*
X813562Y1102868D02*
Y1110010D01*
X809567Y1098873D02*
X813562Y1102868D01*
X809567Y1095715D02*
Y1098873D01*
X808562Y1094710D02*
X809567Y1095715D01*
X1003522Y911352D02*
X1010158D01*
X1016508Y917702D01*
X1003427Y911257D02*
X1003522Y911352D01*
D16*
X744220Y1128268D02*
Y1151320D01*
Y1098804D02*
Y1128268D01*
Y1043686D02*
Y1098804D01*
X730250Y1035810D02*
X736344D01*
X730250Y956630D02*
Y1035810D01*
X736344D02*
X744220Y1043686D01*
X727390Y953770D02*
X730250Y956630D01*
X707390Y1035810D02*
X730250D01*
X1172466Y937766D02*
X1183132D01*
X1172464Y937768D02*
X1172466Y937766D01*
X984506Y907034D02*
Y917194D01*
X1240536Y1004062D02*
X1242375Y1005901D01*
X1190154Y1045807D02*
X1215733D01*
X1142886Y997458D02*
X1156716D01*
X1140655Y999690D02*
X1142886Y997458D01*
X1140655Y999690D02*
Y1007707D01*
X1156716Y997458D02*
X1161807Y1002549D01*
X1168665D01*
X1168908Y1002792D01*
X1255014Y1022350D02*
Y1047496D01*
Y1011297D02*
Y1022350D01*
X1242375Y1005901D02*
X1249619D01*
X1255014Y1011297D01*
X1250651Y1051859D02*
X1255014Y1047496D01*
X1241804Y1052954D02*
X1242899Y1051859D01*
X1250651D01*
X1222756Y1052830D02*
X1240790D01*
X1215733Y1045807D02*
X1222756Y1052830D01*
D24*
X783846Y1098550D02*
D03*
X792986D02*
D03*
X814322Y1083818D02*
D03*
X805182D02*
D03*
X843278Y1101852D02*
D03*
X834138D02*
D03*
X843278Y1092200D02*
D03*
X834138D02*
D03*
X984506Y907034D02*
D03*
X993646D02*
D03*
Y917194D02*
D03*
X984506D02*
D03*
X1211582Y931164D02*
D03*
X1220722D02*
D03*
X955804Y1083564D02*
D03*
X964944D02*
D03*
Y1073150D02*
D03*
X955804D02*
D03*
X1256282Y931926D02*
D03*
X1247142D02*
D03*
X1144268Y960628D02*
D03*
X1135128D02*
D03*
X878334Y1086866D02*
D03*
X887474D02*
D03*
D25*
X707390Y1118110D02*
D03*
Y1127250D02*
D03*
Y1035810D02*
D03*
Y1026670D02*
D03*
X829564Y1032004D02*
D03*
Y1041144D02*
D03*
X982472Y1018030D02*
D03*
Y1008890D02*
D03*
X1011682Y1009144D02*
D03*
Y1018284D02*
D03*
X1063498Y1044448D02*
D03*
Y1053588D02*
D03*
X1073150Y1044702D02*
D03*
Y1053842D02*
D03*
Y1071622D02*
D03*
Y1062482D02*
D03*
X992124Y1008890D02*
D03*
Y1018030D02*
D03*
X1001776D02*
D03*
Y1008890D02*
D03*
X1191260Y994662D02*
D03*
Y985522D02*
D03*
X1021334Y1009144D02*
D03*
Y1018284D02*
D03*
X1073150Y1080516D02*
D03*
Y1089656D02*
D03*
X1116584Y1042668D02*
D03*
Y1033528D02*
D03*
X1063244Y1089656D02*
D03*
Y1080516D02*
D03*
X1049782Y1089658D02*
D03*
Y1080518D02*
D03*
X1039622Y1089658D02*
D03*
Y1080518D02*
D03*
X906272Y1077212D02*
D03*
Y1068072D02*
D03*
X1183132Y928626D02*
D03*
Y937766D02*
D03*
D26*
X808858Y1118870D02*
D03*
X804418D02*
D03*
X1032002Y944372D02*
D03*
X1027562D02*
D03*
X1024758Y1041908D02*
D03*
X1020318D02*
D03*
X995548Y1104900D02*
D03*
X991108D02*
D03*
X1069980Y1097278D02*
D03*
X1074420D02*
D03*
D27*
X1040638Y916564D02*
D03*
Y921004D02*
D03*
X1044956Y1047618D02*
D03*
Y1043178D02*
D03*
X969518Y1054100D02*
D03*
Y1049660D02*
D03*
X1205230Y980694D02*
D03*
Y976254D02*
D03*
X965962Y1091692D02*
D03*
Y1096132D02*
D03*
X1221994Y1081417D02*
D03*
Y1085857D02*
D03*
X1031494Y1068202D02*
D03*
Y1072642D02*
D03*
X915924Y1071626D02*
D03*
Y1067186D02*
D03*
D28*
X1200282Y918972D02*
D03*
X1216782D02*
D03*
X1235466Y919226D02*
D03*
X1164600Y918972D02*
D03*
X1181100D02*
D03*
X1251966Y919226D02*
D03*
D29*
X1159406Y970128D02*
D03*
Y960628D02*
D03*
Y951128D02*
D03*
X1184506D02*
D03*
Y970128D02*
D03*
Y960628D02*
D03*
D30*
X1190154Y1033107D02*
D03*
X1140655Y1045807D02*
D03*
Y1033107D02*
D03*
Y1020407D02*
D03*
Y1007707D02*
D03*
X1190154D02*
D03*
Y1020407D02*
D03*
Y1045807D02*
D03*
D31*
X1082146Y938456D02*
D03*
X1112146D02*
D03*
X1127146D02*
D03*
D32*
X1067146Y929456D02*
D03*
Y906456D02*
D03*
X1142146Y929456D02*
D03*
Y906456D02*
D03*
D33*
X1137314Y1073306D02*
D03*
Y1079806D02*
D03*
Y1086306D02*
D03*
Y1092806D02*
D03*
X1194914D02*
D03*
Y1086306D02*
D03*
Y1079806D02*
D03*
Y1073306D02*
D03*
D34*
X1020318Y1063244D02*
D03*
Y1068244D02*
D03*
Y1073244D02*
D03*
Y1078244D02*
D03*
Y1083244D02*
D03*
X981618D02*
D03*
Y1078244D02*
D03*
Y1073244D02*
D03*
Y1068244D02*
D03*
Y1063244D02*
D03*
D35*
X990968Y1053894D02*
D03*
X995968D02*
D03*
X1000968D02*
D03*
X1005968D02*
D03*
X1010968D02*
D03*
Y1092594D02*
D03*
X1005968D02*
D03*
X1000968D02*
D03*
X995968D02*
D03*
X990968D02*
D03*
D38*
X1241804Y996954D02*
D03*
Y1004954D02*
D03*
Y1052954D02*
D03*
Y1060954D02*
D03*
D39*
Y1026454D02*
D03*
Y1021454D02*
D03*
Y1016454D02*
D03*
Y1011454D02*
D03*
Y1031454D02*
D03*
Y1036454D02*
D03*
Y1041454D02*
D03*
Y1046454D02*
D03*
D40*
X868224Y1013850D02*
D03*
Y991850D02*
D03*
X938224Y1008850D02*
D03*
Y953850D02*
D03*
X868224Y919850D02*
D03*
X938224D02*
D03*
D41*
X805180Y1015090D02*
D03*
X795180Y1034690D02*
D03*
X815180D02*
D03*
D42*
X814390Y953770D02*
D03*
X727390D02*
D03*
D43*
X672221Y1027011D02*
D03*
X689219D02*
D03*
X672221Y974509D02*
D03*
X689219D02*
D03*
X672221Y1118451D02*
D03*
X689219D02*
D03*
X672221Y1065949D02*
D03*
X689219D02*
D03*
D44*
X1006761Y907923D02*
D03*
X1010761D02*
D03*
X1014762D02*
D03*
X1018762D02*
D03*
X1022763D02*
D03*
X1026763D02*
D03*
Y934593D02*
D03*
X1022763D02*
D03*
X1018762D02*
D03*
X1014762D02*
D03*
X1010761D02*
D03*
X1006761D02*
D03*
D45*
X1030097Y911257D02*
D03*
Y915257D02*
D03*
Y919258D02*
D03*
Y923258D02*
D03*
Y927259D02*
D03*
Y931259D02*
D03*
X1003427D02*
D03*
Y927259D02*
D03*
Y923258D02*
D03*
Y919258D02*
D03*
Y915257D02*
D03*
Y911257D02*
D03*
D46*
X805912Y1104860D02*
D03*
Y1099860D02*
D03*
X808562Y1094710D02*
D03*
X813562D02*
D03*
X818562D02*
D03*
X821212Y1099860D02*
D03*
Y1104860D02*
D03*
X818562Y1110010D02*
D03*
X813562D02*
D03*
X808562D02*
D03*
D82*
X1000968Y1073244D02*
D03*
D83*
X882396Y1062268D02*
D03*
Y1067268D02*
D03*
X895096Y1062268D02*
D03*
Y1067268D02*
D03*
D84*
Y1057268D02*
D03*
X882396D02*
D03*
Y1072268D02*
D03*
X895096D02*
D03*
D85*
X888746Y1056168D02*
D03*
Y1073368D02*
D03*
D86*
X1165405Y1026757D02*
D03*
D87*
X972566Y1104646D02*
X972820Y1104900D01*
X972566Y1079754D02*
Y1104646D01*
X972820Y1104900D02*
X990968D01*
X972566Y1079754D02*
X974076Y1078244D01*
X991038Y1092664D02*
Y1104830D01*
X990968Y1092594D02*
X991038Y1092664D01*
X920242Y1028446D02*
X933196Y1041400D01*
X848616Y1041144D02*
X861314Y1028446D01*
X920242D01*
X995844Y1179096D02*
X998220Y1176720D01*
X687832Y1191006D02*
X990092D01*
X995844Y1179096D02*
Y1185254D01*
X990092Y1191006D02*
X995844Y1185254D01*
X674878Y1178052D02*
X687832Y1191006D01*
X935798Y1165098D02*
X947420Y1176720D01*
X705358Y1140460D02*
X729996Y1165098D01*
X935798D01*
X674878Y1149604D02*
Y1178052D01*
X680720Y1053592D02*
Y1143762D01*
X674878Y1149604D02*
X680720Y1143762D01*
X689219Y1027011D02*
Y1045093D01*
X680720Y1053592D02*
X689219Y1045093D01*
X1003488Y952688D02*
X1027496D01*
X984506Y933706D02*
X1003488Y952688D01*
X1027496Y944438D02*
Y952688D01*
Y944438D02*
X1027562Y944372D01*
X984506Y917194D02*
Y933706D01*
X1021588Y985774D02*
Y1008890D01*
X965200Y909574D02*
Y929386D01*
X1021588Y985774D01*
X958596Y936752D02*
X1002030Y980186D01*
Y1008763D01*
X938224Y936752D02*
X958596D01*
X938224Y953850D02*
X958930D01*
X982726Y977646D01*
Y1008636D01*
X965456Y1018030D02*
X982472D01*
X953008Y1030478D02*
X965456Y1018030D01*
X953008Y1030478D02*
Y1052830D01*
X955804Y1055626D01*
Y1073150D01*
X933196Y1041400D02*
Y1091692D01*
X907034Y1067310D02*
X907158Y1067186D01*
X887478Y1086870D02*
Y1117090D01*
X887474Y1086866D02*
X887478Y1086870D01*
X872490Y1132078D02*
X887478Y1117090D01*
X792986Y1132078D02*
X872490D01*
X887478Y1080006D02*
Y1086862D01*
X887474Y1086866D02*
X887478Y1086862D01*
Y1080006D02*
X888746Y1078738D01*
Y1073368D02*
Y1078738D01*
X843278Y1101852D02*
X843532Y1101598D01*
X843026Y1102104D02*
X843278Y1101852D01*
X843026Y1102104D02*
Y1122426D01*
X839470Y1125982D02*
X843026Y1122426D01*
X806958Y1125982D02*
X839470D01*
X804418Y1118870D02*
Y1123442D01*
X806958Y1125982D01*
X792986Y1098550D02*
Y1132078D01*
Y1135378D01*
X808562Y1109860D02*
Y1110010D01*
X805912Y1104860D02*
X806646Y1105594D01*
Y1107944D01*
X808562Y1109860D01*
X804418Y1114304D02*
X808562Y1110160D01*
X804418Y1114304D02*
Y1118870D01*
X808562Y1110010D02*
Y1110160D01*
X906272Y1077212D02*
X906526Y1077466D01*
Y1087120D01*
X906780Y1087374D01*
X982472Y1008890D02*
X982726Y1008636D01*
X1000968Y1046620D02*
X1002030Y1045558D01*
Y1018284D02*
Y1045558D01*
X1001776Y1018030D02*
X1002030Y1018284D01*
X1000968Y1046620D02*
Y1053894D01*
X1001840Y1008953D02*
X1002030Y1008763D01*
X1024758Y1031291D02*
Y1052200D01*
X1021334Y1027867D02*
X1024758Y1031291D01*
X1021334Y1018284D02*
Y1027867D01*
X992378Y1041899D02*
X995968Y1045489D01*
X992378Y1018284D02*
Y1041899D01*
X992124Y1018030D02*
X992378Y1018284D01*
X995968Y1045489D02*
Y1053894D01*
X1021334Y1009144D02*
X1021588Y1008890D01*
X868224Y968554D02*
Y991850D01*
X848969Y949299D02*
X868224Y968554D01*
X848969Y910489D02*
Y949299D01*
Y910489D02*
X854710Y904748D01*
X960374D01*
X965200Y909574D01*
X991038Y1104830D02*
X991108Y1104900D01*
X829564Y1041144D02*
X848616D01*
X697230Y1140460D02*
X705358D01*
X689219Y1132449D02*
X697230Y1140460D01*
X689219Y1118451D02*
Y1132449D01*
X684530Y1006094D02*
X689219Y1010783D01*
Y1027011D01*
X684530Y996547D02*
Y1006094D01*
Y996547D02*
X689219Y991858D01*
Y974509D02*
Y991858D01*
Y1118451D02*
X689560Y1118110D01*
X707390D01*
X685546Y1086971D02*
X689219Y1083298D01*
X685546Y1094621D02*
X689219Y1098294D01*
X685546Y1086971D02*
Y1094621D01*
X689219Y1065949D02*
Y1083298D01*
Y1098294D02*
Y1118451D01*
X689560Y1026670D02*
X707390D01*
X689219Y1027011D02*
X689560Y1026670D01*
X814578Y953958D02*
Y987044D01*
X814390Y953770D02*
X814578Y953958D01*
X805180Y996442D02*
Y1015090D01*
Y996442D02*
X814578Y987044D01*
X815180Y1033938D02*
X817114Y1032004D01*
X829564D01*
X815180Y1033938D02*
Y1034690D01*
X962152Y1051560D02*
X964692Y1054100D01*
X969518D01*
X962152Y1039876D02*
Y1051560D01*
X969518Y1054100D02*
X976630D01*
X1073150Y1034542D02*
Y1044702D01*
X1005968Y1047368D02*
X1008126Y1045210D01*
X1020318Y1041908D02*
Y1041958D01*
X1019884Y1042392D02*
X1020318Y1041958D01*
X1019834Y1042392D02*
X1019884D01*
X1017016Y1045210D02*
X1019834Y1042392D01*
X1008126Y1045210D02*
X1017016D01*
X1005968Y1047368D02*
Y1053894D01*
X1035145Y915257D02*
X1036452Y916564D01*
X1040638D01*
X1030097Y915257D02*
X1035145D01*
X1026922Y934752D02*
Y939038D01*
X1026763Y934593D02*
X1026922Y934752D01*
Y939038D02*
X1027562Y939678D01*
Y944372D01*
X792962Y1064702D02*
Y1098525D01*
X792937Y1064678D02*
X792962Y1064702D01*
Y1098525D02*
X792986Y1098550D01*
X993646Y907034D02*
Y907124D01*
X995080Y908558D01*
X997966D01*
X1000665Y911257D01*
X1003427D01*
X993646Y925828D02*
X993648Y925830D01*
X993646Y917194D02*
Y925828D01*
Y917194D02*
X994664Y916176D01*
X998730D02*
X999649Y915257D01*
X994664Y916176D02*
X998730D01*
X999649Y915257D02*
X1003427D01*
X882267Y1044978D02*
Y1057139D01*
X882396Y1057268D01*
X882137Y1044848D02*
X882267Y1044978D01*
X1069980Y1097278D02*
Y1111626D01*
X907158Y1067186D02*
X915924D01*
X895096Y1067268D02*
X905468D01*
X965708Y1062228D02*
X970280D01*
X981501Y1068127D02*
X981618Y1068244D01*
X976179Y1068127D02*
X981501D01*
X970280Y1062228D02*
X976179Y1068127D01*
X814322Y1075184D02*
X814324Y1075182D01*
X814322Y1075184D02*
Y1083818D01*
X792986Y1135378D02*
X795020Y1137412D01*
Y1151320D01*
X828294Y1101852D02*
X834138D01*
X826302Y1099860D02*
X828294Y1101852D01*
X821212Y1099860D02*
X826302D01*
X824260Y1094710D02*
X826770Y1092200D01*
X834138D01*
X818562Y1094710D02*
X824260D01*
X813562Y1089660D02*
Y1094710D01*
X814322Y1083818D02*
Y1088900D01*
X813562Y1089660D02*
X814322Y1088900D01*
X792986Y1098550D02*
X799846D01*
X801156Y1099860D01*
X805912D01*
X896286Y1077212D02*
X906272D01*
X895096Y1072268D02*
Y1076022D01*
X896286Y1077212D01*
X938224Y919850D02*
Y936752D01*
X874014Y936752D02*
X938224D01*
Y936752D02*
X938224Y936752D01*
X868224Y930962D02*
X874014Y936752D01*
X868224Y919850D02*
Y930962D01*
X1079500Y1080516D02*
X1082981Y1077035D01*
X1073150Y1079500D02*
Y1080516D01*
Y1071622D02*
Y1079500D01*
Y1080516D02*
X1079500D01*
X1087299Y1077035D02*
X1087882Y1076452D01*
X1082981Y1077035D02*
X1087299D01*
X974076Y1078244D02*
X981618D01*
X964944Y1083564D02*
X965962Y1084582D01*
Y1091692D01*
X965118Y1073324D02*
X981538D01*
X964944Y1073150D02*
X965118Y1073324D01*
X981538D02*
X981618Y1073244D01*
X964944Y1073150D02*
Y1083564D01*
X1050377Y1070864D02*
X1054354D01*
X1056894Y1073404D01*
Y1086866D01*
X1054100Y1089660D02*
X1056894Y1086866D01*
X1043178Y1070864D02*
X1051115D01*
X1027938Y1072642D02*
X1031494D01*
X1041400D01*
X1043178Y1070864D01*
X1057148Y1064768D02*
X1062910Y1070530D01*
X1041908Y1064768D02*
X1057148D01*
X1038432Y1068244D02*
X1041908Y1064768D01*
X1031978Y1068244D02*
X1038432D01*
X1062910Y1070530D02*
Y1080182D01*
X1031494Y1068202D02*
X1031936D01*
X1031978Y1068244D01*
X1044956Y1036828D02*
Y1043178D01*
X1049572Y1089660D02*
X1054100D01*
X1049570Y1089658D02*
X1049572Y1089660D01*
X1020318Y1073244D02*
X1027336D01*
X1027938Y1072642D01*
X1062910Y1080182D02*
X1063244Y1080516D01*
Y1089656D02*
X1063246Y1089658D01*
X1073148D01*
X1073150Y1089656D01*
X1063498Y1053588D02*
X1063627Y1053717D01*
X1073025D01*
X1073150Y1053842D01*
X1073986Y1096844D02*
X1074420Y1097278D01*
X1073986Y1095101D02*
Y1096844D01*
X1073150Y1094265D02*
X1073986Y1095101D01*
X1073150Y1089656D02*
Y1094265D01*
Y1053842D02*
Y1062482D01*
X1061277Y1097280D02*
X1061279Y1097278D01*
X1069980D01*
X1041654Y1097280D02*
X1061277D01*
X1040384Y1096010D02*
X1041654Y1097280D01*
X1040384Y1090510D02*
Y1096010D01*
X1039532Y1089658D02*
X1040384Y1090510D01*
X1053082Y1044450D02*
X1063496D01*
X1063498Y1044448D01*
X1049914Y1047618D02*
X1053082Y1044450D01*
X1044956Y1047618D02*
X1049914D01*
X1031473Y1068223D02*
X1031494Y1068202D01*
X1020339Y1068223D02*
X1031473D01*
X1020318Y1068244D02*
X1020339Y1068223D01*
X1032891Y1050671D02*
X1035944Y1047618D01*
X1020318Y1063244D02*
X1031240D01*
X1032891Y1061593D01*
Y1050671D02*
Y1061593D01*
X1033016Y1089658D02*
X1039532D01*
X1026602Y1083244D02*
X1033016Y1089658D01*
X1020318Y1083244D02*
X1026602D01*
X1029984Y1078244D02*
X1032258Y1080518D01*
X1039622D01*
X1020318Y1078244D02*
X1029984D01*
X1039622Y1080518D02*
X1039622Y1080518D01*
X1049782D02*
X1049782Y1080518D01*
X1039622Y1080518D02*
X1049782D01*
X1035944Y1047618D02*
X1044956D01*
X1010968Y1053894D02*
X1023064D01*
X1024758Y1052200D01*
X1001903Y1009017D02*
X1011555D01*
X1001776Y1008890D02*
X1001903Y1009017D01*
X1011555D02*
X1011682Y1009144D01*
X982472Y1008890D02*
X992124D01*
X981232Y1063244D02*
X981618D01*
X980948Y1062960D02*
X981232Y1063244D01*
X980948Y1058418D02*
Y1062960D01*
X976630Y1054100D02*
X980948Y1058418D01*
D88*
X707390Y1127250D02*
X743202D01*
X744220Y1128268D01*
Y1098804D02*
X744474Y1098550D01*
X768859D01*
X856996Y1055878D02*
Y1087374D01*
Y1048766D02*
Y1055878D01*
X805180D02*
X856996D01*
Y1048766D02*
X869950Y1035812D01*
X899922D02*
X907034Y1042924D01*
X869950Y1035812D02*
X899922D01*
X906272Y1068072D02*
X907034Y1067310D01*
Y1042924D02*
Y1067310D01*
X856996Y1087374D02*
Y1095756D01*
Y1087374D02*
X857504Y1086866D01*
X878334D01*
X805180Y1055878D02*
Y1083816D01*
X774700Y1055878D02*
X805180D01*
X843532Y1101598D02*
X851154D01*
X856996Y1095756D01*
X768859Y1098550D02*
X783846D01*
X805180Y1083816D02*
X805182Y1083818D01*
X768859Y1061719D02*
X774700Y1055878D01*
X768859Y1061719D02*
Y1098550D01*
X1011682Y1018284D02*
Y1032510D01*
X982472Y1018030D02*
Y1032764D01*
X1127146Y928222D02*
Y938456D01*
X1158748Y970786D02*
Y980948D01*
Y970786D02*
X1159406Y970128D01*
X1112146Y938456D02*
Y979558D01*
X1221994Y1080398D02*
Y1081417D01*
X1221402Y1079806D02*
X1221994Y1080398D01*
Y1085857D02*
Y1120902D01*
X1228344Y1127252D02*
X1278382D01*
X1221994Y1120902D02*
X1228344Y1127252D01*
X1229666Y1079806D02*
X1251712Y1101852D01*
X1194914Y1079806D02*
X1209802D01*
X1221402D01*
X1229666D01*
X1256538Y961898D02*
X1259332Y964692D01*
X1256538Y931719D02*
Y961898D01*
X1247394Y923798D02*
X1251966Y919226D01*
X1247394Y923798D02*
Y931898D01*
X1220722Y930614D02*
Y930688D01*
X1221648Y929688D02*
X1221722D01*
X1226058Y925352D01*
Y910336D02*
Y925352D01*
X1220722Y930614D02*
X1221648Y929688D01*
X1211582Y924172D02*
X1216782Y918972D01*
X1211582Y924172D02*
Y931164D01*
X1199642Y957326D02*
X1205230Y962914D01*
Y976254D01*
X1135634Y960578D02*
Y976122D01*
X1164338Y990346D02*
X1168654Y994662D01*
X1122934Y990346D02*
X1164338D01*
X1112146Y979558D02*
X1122934Y990346D01*
X1168654Y994662D02*
X1191260D01*
Y1006602D01*
X1192736Y984046D02*
Y984596D01*
X1176276Y985522D02*
X1191810D01*
X1196088Y980694D02*
X1205109D01*
X1191810Y985522D02*
X1192736Y984596D01*
Y984046D02*
X1196088Y980694D01*
X1172464Y981710D02*
X1176276Y985522D01*
X1137314Y1079806D02*
X1152704D01*
X1155446Y1082548D01*
X1199642Y956310D02*
Y957326D01*
X1251712Y1101852D02*
X1278382D01*
X1194914Y1079806D02*
Y1086306D01*
X1184304Y1073306D02*
X1194914D01*
X1179830Y1068832D02*
X1184304Y1073306D01*
X1166368Y1068832D02*
X1179830D01*
X1161894Y1073306D02*
X1166368Y1068832D01*
X1137314Y1073306D02*
X1161894D01*
X1137314Y1079806D02*
Y1086306D01*
X1119808Y1092630D02*
X1137138D01*
X1119632Y1092454D02*
X1119808Y1092630D01*
X1137138D02*
X1137314Y1092806D01*
X1144270Y950468D02*
X1144600Y950798D01*
X1159076D01*
X1159406Y951128D01*
X1176020Y1077468D02*
Y1088136D01*
X1180690Y1092806D01*
X1194914D01*
X1140655Y1020407D02*
X1159054D01*
X1165405Y1026757D01*
X1117092Y1033266D02*
X1117171Y1033187D01*
X1140575D01*
X1140655Y1033107D01*
X1259332Y964692D02*
X1267460D01*
X1290320D01*
X1267460D02*
Y1019556D01*
X1255014Y1022350D02*
X1255268Y1022096D01*
X1264920D01*
X1267460Y1019556D01*
X1299464Y919734D02*
Y955548D01*
X1290320Y964692D02*
X1299464Y955548D01*
X1286510Y906780D02*
X1299464Y919734D01*
X1229614Y906780D02*
X1286510D01*
X1226058Y910336D02*
X1229614Y906780D01*
X1235466Y919226D02*
Y943600D01*
X1224534Y954532D02*
X1235466Y943600D01*
X1224534Y954532D02*
Y1021080D01*
X1190154Y1033107D02*
X1212507D01*
X1224534Y1021080D01*
X1200282Y918972D02*
Y945774D01*
X1216406Y961898D02*
Y1012952D01*
X1200282Y945774D02*
X1216406Y961898D01*
X1190154Y1020407D02*
X1208951D01*
X1216406Y1012952D01*
X1184506Y970128D02*
X1205010D01*
X1144268Y960628D02*
X1159406D01*
X1172464Y963168D02*
Y981710D01*
Y963168D02*
X1175004Y960628D01*
X1184506D01*
X1181100Y918972D02*
X1182656Y920528D01*
Y928626D01*
X1190154Y1007707D02*
X1191260Y1006602D01*
D89*
X983620Y1049660D02*
X987854Y1053894D01*
X969518Y1049660D02*
X983620D01*
X987854Y1053894D02*
X990968D01*
D90*
X1089646Y917956D02*
D03*
X1119646D02*
D03*
D91*
X1278382Y1127252D02*
D03*
Y1101852D02*
D03*
D92*
X1252504Y1000054D02*
D03*
Y1057854D02*
D03*
D93*
X1247604Y985704D02*
D03*
Y1072204D02*
D03*
D94*
X1289304Y985704D02*
D03*
Y1072204D02*
D03*
D95*
X903224Y993850D02*
D03*
Y923850D02*
D03*
D96*
X1275520Y1164020D02*
D03*
Y934020D02*
D03*
X695520Y1164020D02*
D03*
Y934020D02*
D03*
D97*
X1226820Y1176720D02*
D03*
Y1151320D02*
D03*
X1201420Y1176720D02*
D03*
Y1151320D02*
D03*
X1176020Y1176720D02*
D03*
Y1151320D02*
D03*
X1150620Y1176720D02*
D03*
Y1151320D02*
D03*
X1125220Y1176720D02*
D03*
Y1151320D02*
D03*
X1099820Y1176720D02*
D03*
Y1151320D02*
D03*
X1074420Y1176720D02*
D03*
Y1151320D02*
D03*
X1049020Y1176720D02*
D03*
Y1151320D02*
D03*
X1023620Y1176720D02*
D03*
Y1151320D02*
D03*
X998220Y1176720D02*
D03*
Y1151320D02*
D03*
X972820Y1176720D02*
D03*
Y1151320D02*
D03*
X947420Y1176720D02*
D03*
Y1151320D02*
D03*
X922020Y1176720D02*
D03*
Y1151320D02*
D03*
X896620Y1176720D02*
D03*
Y1151320D02*
D03*
X871220Y1176720D02*
D03*
Y1151320D02*
D03*
X845820Y1176720D02*
D03*
Y1151320D02*
D03*
X820420Y1176720D02*
D03*
Y1151320D02*
D03*
X795020Y1176720D02*
D03*
Y1151320D02*
D03*
X769620Y1176720D02*
D03*
Y1151320D02*
D03*
X744220Y1176720D02*
D03*
D98*
Y1151320D02*
D03*
D99*
X666971Y1000760D02*
D03*
X694469D02*
D03*
X666971Y1092200D02*
D03*
X694469D02*
D03*
D100*
X980593Y1093111D02*
D03*
X972820Y1104900D02*
D03*
X867309Y1075331D02*
D03*
X1172464Y937768D02*
D03*
X1027430Y952754D02*
D03*
X933196Y1091692D02*
D03*
X906780Y1087374D02*
D03*
X1011682Y1032510D02*
D03*
X982472Y1032764D02*
D03*
X1127146Y928222D02*
D03*
X1158748Y980948D02*
D03*
X1112266Y973582D02*
D03*
X1073150Y1034542D02*
D03*
X962152Y1039876D02*
D03*
X792937Y1064678D02*
D03*
X1016508Y917702D02*
D03*
X993648Y925830D02*
D03*
X882137Y1044848D02*
D03*
X1069980Y1111626D02*
D03*
X965708Y1062228D02*
D03*
X814324Y1075182D02*
D03*
X1087882Y1076452D02*
D03*
X1050290Y1070864D02*
D03*
X1044956Y1036828D02*
D03*
X1168908Y1002792D02*
D03*
X1135634Y976122D02*
D03*
X1155446Y1082548D02*
D03*
X1209802Y1079754D02*
D03*
X1199642Y956310D02*
D03*
X1119632Y1092454D02*
D03*
X1144270Y950468D02*
D03*
X1176020Y1077468D02*
D03*
X1210310Y1045718D02*
D03*
M02*
