G04*
G04 #@! TF.GenerationSoftware,Altium Limited,Altium Designer,24.0.1 (36)*
G04*
G04 Layer_Color=255*
%FSLAX44Y44*%
%MOMM*%
G71*
G04*
G04 #@! TF.SameCoordinates,AAA4E2E7-C06B-4B28-9501-2596A0623A30*
G04*
G04*
G04 #@! TF.FilePolarity,Positive*
G04*
G01*
G75*
%ADD90C,0.9000*%
%ADD91O,3.0480X1.5240*%
%ADD92C,0.6000*%
%ADD93O,2.0000X0.9000*%
%ADD94O,1.7000X0.9000*%
%ADD95C,1.5000*%
%ADD96C,2.7500*%
%ADD97C,1.5080*%
%ADD98R,1.5080X1.5080*%
%ADD99C,0.7501*%
D90*
X1089646Y917956D02*
D03*
X1119646D02*
D03*
D91*
X1278382Y1127252D02*
D03*
Y1101852D02*
D03*
D92*
X1252504Y1000054D02*
D03*
Y1057854D02*
D03*
D93*
X1247604Y985704D02*
D03*
Y1072204D02*
D03*
D94*
X1289304Y985704D02*
D03*
Y1072204D02*
D03*
D95*
X903224Y993850D02*
D03*
Y923850D02*
D03*
D96*
X1275520Y1164020D02*
D03*
Y934020D02*
D03*
X695520Y1164020D02*
D03*
Y934020D02*
D03*
D97*
X1226820Y1176720D02*
D03*
Y1151320D02*
D03*
X1201420Y1176720D02*
D03*
Y1151320D02*
D03*
X1176020Y1176720D02*
D03*
Y1151320D02*
D03*
X1150620Y1176720D02*
D03*
Y1151320D02*
D03*
X1125220Y1176720D02*
D03*
Y1151320D02*
D03*
X1099820Y1176720D02*
D03*
Y1151320D02*
D03*
X1074420Y1176720D02*
D03*
Y1151320D02*
D03*
X1049020Y1176720D02*
D03*
Y1151320D02*
D03*
X1023620Y1176720D02*
D03*
Y1151320D02*
D03*
X998220Y1176720D02*
D03*
Y1151320D02*
D03*
X972820Y1176720D02*
D03*
Y1151320D02*
D03*
X947420Y1176720D02*
D03*
Y1151320D02*
D03*
X922020Y1176720D02*
D03*
Y1151320D02*
D03*
X896620Y1176720D02*
D03*
Y1151320D02*
D03*
X871220Y1176720D02*
D03*
Y1151320D02*
D03*
X845820Y1176720D02*
D03*
Y1151320D02*
D03*
X820420Y1176720D02*
D03*
Y1151320D02*
D03*
X795020Y1176720D02*
D03*
Y1151320D02*
D03*
X769620Y1176720D02*
D03*
Y1151320D02*
D03*
X744220Y1176720D02*
D03*
D98*
Y1151320D02*
D03*
D99*
X666971Y1000760D02*
D03*
X694469D02*
D03*
X666971Y1092200D02*
D03*
X694469D02*
D03*
M02*
