G04*
G04 #@! TF.GenerationSoftware,Altium Limited,Altium Designer,24.0.1 (36)*
G04*
G04 Layer_Physical_Order=2*
G04 Layer_Color=16711680*
%FSLAX44Y44*%
%MOMM*%
G71*
G04*
G04 #@! TF.SameCoordinates,AAA4E2E7-C06B-4B28-9501-2596A0623A30*
G04*
G04*
G04 #@! TF.FilePolarity,Positive*
G04*
G01*
G75*
%ADD16C,0.3810*%
%ADD87C,0.2032*%
%ADD88C,0.3048*%
%ADD90C,0.9000*%
%ADD91O,3.0480X1.5240*%
%ADD92C,0.6000*%
%ADD93O,2.0000X0.9000*%
%ADD94O,1.7000X0.9000*%
%ADD95C,1.5000*%
%ADD96C,2.7500*%
%ADD97C,1.5080*%
%ADD98R,1.5080X1.5080*%
%ADD99C,0.7501*%
%ADD100C,0.5080*%
G36*
X1280520Y1197075D02*
X1280520Y1197075D01*
X1280520Y1197075D01*
X1284948Y1196727D01*
X1289268Y1195690D01*
X1293372Y1193990D01*
X1297160Y1191669D01*
X1300538Y1188784D01*
X1303423Y1185406D01*
X1305744Y1181618D01*
X1307444Y1177514D01*
X1308481Y1173195D01*
X1308829Y1168766D01*
X1308837D01*
X1308837Y1168766D01*
X1308837Y930036D01*
X1308829Y928766D01*
X1308829Y928766D01*
X1308829Y928766D01*
X1308481Y924337D01*
X1307444Y920018D01*
X1305744Y915914D01*
X1303423Y912126D01*
X1300538Y908748D01*
X1297160Y905863D01*
X1293372Y903542D01*
X1289268Y901842D01*
X1284948Y900805D01*
X1280520Y900457D01*
Y900449D01*
X690520D01*
X690520Y900449D01*
Y900457D01*
X686092Y900805D01*
X681772Y901842D01*
X677668Y903542D01*
X673880Y905863D01*
X670502Y908748D01*
X667617Y912126D01*
X665296Y915914D01*
X663596Y920018D01*
X662559Y924337D01*
X662211Y928766D01*
X662203D01*
X662203Y928766D01*
Y996632D01*
X663473Y997158D01*
X664127Y996504D01*
X665972Y995740D01*
X667970D01*
X669815Y996504D01*
X671227Y997916D01*
X671991Y999761D01*
Y1001759D01*
X671227Y1003604D01*
X669815Y1005016D01*
X667970Y1005780D01*
X665972D01*
X664127Y1005016D01*
X663473Y1004362D01*
X662203Y1004888D01*
X662203Y1088072D01*
X663473Y1088598D01*
X664127Y1087944D01*
X665972Y1087180D01*
X667970D01*
X669815Y1087944D01*
X671227Y1089356D01*
X671991Y1091201D01*
Y1093199D01*
X671227Y1095044D01*
X669815Y1096456D01*
X667970Y1097220D01*
X665972D01*
X664127Y1096456D01*
X663473Y1095802D01*
X662203Y1096328D01*
Y1168766D01*
X662211D01*
X662559Y1173195D01*
X663596Y1177514D01*
X665296Y1181618D01*
X667617Y1185406D01*
X670502Y1188784D01*
X673880Y1191669D01*
X677668Y1193990D01*
X681772Y1195690D01*
X686091Y1196727D01*
X690520Y1197075D01*
Y1197083D01*
X690520Y1197083D01*
X1279250Y1197083D01*
X1280520Y1197075D01*
D02*
G37*
%LPC*%
G36*
X955040Y1195513D02*
X888492D01*
X887253Y1195267D01*
X886203Y1194565D01*
X881377Y1189739D01*
X880675Y1188689D01*
X880429Y1187450D01*
Y1180930D01*
X879159Y1180590D01*
X878270Y1182130D01*
X876629Y1183770D01*
X874621Y1184930D01*
X872380Y1185530D01*
X870060D01*
X867820Y1184930D01*
X865810Y1183770D01*
X864170Y1182130D01*
X863010Y1180120D01*
X862410Y1177880D01*
Y1175560D01*
X863010Y1173319D01*
X864170Y1171311D01*
X865810Y1169670D01*
X867820Y1168510D01*
X869421Y1168081D01*
X869254Y1166811D01*
X847786D01*
X847619Y1168081D01*
X849221Y1168510D01*
X851229Y1169670D01*
X852870Y1171311D01*
X854030Y1173319D01*
X854630Y1175560D01*
Y1177880D01*
X854030Y1180120D01*
X852870Y1182130D01*
X851229Y1183770D01*
X849221Y1184930D01*
X846980Y1185530D01*
X844660D01*
X842420Y1184930D01*
X840411Y1183770D01*
X838770Y1182130D01*
X837610Y1180120D01*
X837010Y1177880D01*
Y1175560D01*
X837610Y1173319D01*
X838770Y1171311D01*
X840411Y1169670D01*
X842420Y1168510D01*
X844021Y1168081D01*
X843854Y1166811D01*
X822386D01*
X822219Y1168081D01*
X823820Y1168510D01*
X825829Y1169670D01*
X827470Y1171311D01*
X828630Y1173319D01*
X829230Y1175560D01*
Y1177880D01*
X828630Y1180120D01*
X827470Y1182130D01*
X825829Y1183770D01*
X823820Y1184930D01*
X821580Y1185530D01*
X819260D01*
X817020Y1184930D01*
X815011Y1183770D01*
X813370Y1182130D01*
X812210Y1180120D01*
X811610Y1177880D01*
Y1175560D01*
X812210Y1173319D01*
X813370Y1171311D01*
X815011Y1169670D01*
X817020Y1168510D01*
X818621Y1168081D01*
X818454Y1166811D01*
X800557D01*
X800217Y1168081D01*
X801209Y1168654D01*
X803086Y1170531D01*
X804413Y1172829D01*
X805100Y1175393D01*
Y1175450D01*
X784940D01*
Y1175393D01*
X785627Y1172829D01*
X786954Y1170531D01*
X788831Y1168654D01*
X789823Y1168081D01*
X789483Y1166811D01*
X771586D01*
X771419Y1168081D01*
X773020Y1168510D01*
X775030Y1169670D01*
X776670Y1171311D01*
X777830Y1173319D01*
X778430Y1175560D01*
Y1177880D01*
X777830Y1180120D01*
X776670Y1182130D01*
X775030Y1183770D01*
X773020Y1184930D01*
X770780Y1185530D01*
X768460D01*
X766219Y1184930D01*
X764211Y1183770D01*
X762570Y1182130D01*
X761410Y1180120D01*
X761263Y1179569D01*
X752578D01*
X752430Y1180120D01*
X751270Y1182130D01*
X749630Y1183770D01*
X747620Y1184930D01*
X745380Y1185530D01*
X743060D01*
X740819Y1184930D01*
X738811Y1183770D01*
X737170Y1182130D01*
X736010Y1180120D01*
X735618Y1178655D01*
X728259D01*
X727168Y1178438D01*
X726244Y1177821D01*
X726244Y1177821D01*
X719854Y1171430D01*
X719236Y1170506D01*
X719019Y1169416D01*
X719019Y1169416D01*
Y1135126D01*
X719019Y1135126D01*
X719236Y1134036D01*
X719854Y1133112D01*
X742641Y1110324D01*
Y990854D01*
X742641Y990854D01*
X742858Y989764D01*
X743476Y988840D01*
X829074Y903242D01*
X829074Y903242D01*
X829998Y902624D01*
X831088Y902407D01*
X831088Y902407D01*
X1025398D01*
X1025398Y902407D01*
X1026488Y902624D01*
X1027412Y903242D01*
X1055534Y931363D01*
X1119976D01*
X1123336Y928003D01*
Y927464D01*
X1123916Y926064D01*
X1124988Y924992D01*
X1126388Y924412D01*
X1127904D01*
X1129304Y924992D01*
X1130376Y926064D01*
X1130956Y927464D01*
Y928980D01*
X1130376Y930380D01*
X1129304Y931452D01*
X1127904Y932032D01*
X1127365D01*
X1123170Y936226D01*
X1122246Y936844D01*
X1121156Y937061D01*
X1121156Y937061D01*
X1054354D01*
X1053264Y936844D01*
X1052340Y936226D01*
X1052340Y936226D01*
X1024218Y908105D01*
X832268D01*
X748339Y992034D01*
Y1111504D01*
X748339Y1111504D01*
X748122Y1112594D01*
X747504Y1113518D01*
X747504Y1113518D01*
X724717Y1136306D01*
Y1168236D01*
X729438Y1172958D01*
X736219D01*
X737170Y1171311D01*
X738811Y1169670D01*
X740819Y1168510D01*
X743060Y1167910D01*
X745380D01*
X747620Y1168510D01*
X749630Y1169670D01*
X751270Y1171311D01*
X752430Y1173319D01*
X752578Y1173871D01*
X761263D01*
X761410Y1173319D01*
X762570Y1171311D01*
X764211Y1169670D01*
X766219Y1168510D01*
X767821Y1168081D01*
X767654Y1166811D01*
X756474D01*
X755235Y1166565D01*
X754185Y1165863D01*
X748452Y1160130D01*
X735410D01*
Y1142510D01*
X753030D01*
Y1155552D01*
X757815Y1160337D01*
X765078D01*
X765418Y1159067D01*
X764211Y1158370D01*
X762570Y1156730D01*
X761410Y1154721D01*
X760810Y1152480D01*
Y1150160D01*
X761410Y1147919D01*
X762570Y1145910D01*
X764211Y1144270D01*
X766219Y1143110D01*
X767289Y1142824D01*
Y1075690D01*
Y1027684D01*
X767467Y1026792D01*
X767972Y1026036D01*
X783720Y1010288D01*
X784476Y1009783D01*
X785368Y1009605D01*
X928421D01*
X991317Y946709D01*
Y928887D01*
X990418Y927988D01*
X989838Y926588D01*
Y925072D01*
X990418Y923672D01*
X991490Y922600D01*
X992890Y922020D01*
X994406D01*
X995806Y922600D01*
X996878Y923672D01*
X997458Y925072D01*
Y926588D01*
X996878Y927988D01*
X995979Y928887D01*
Y947674D01*
X995801Y948566D01*
X995296Y949322D01*
X931034Y1013584D01*
X930278Y1014089D01*
X929386Y1014267D01*
X786333D01*
X771951Y1028649D01*
Y1072851D01*
X811267D01*
X812166Y1071952D01*
X813566Y1071372D01*
X815082D01*
X816482Y1071952D01*
X817554Y1073024D01*
X817588Y1073105D01*
X836422D01*
X837314Y1073283D01*
X838070Y1073788D01*
X849325Y1085043D01*
X903723D01*
X904622Y1084144D01*
X906022Y1083564D01*
X907538D01*
X908938Y1084144D01*
X910010Y1085216D01*
X910590Y1086616D01*
Y1088132D01*
X910010Y1089532D01*
X908938Y1090604D01*
X907538Y1091184D01*
X906022D01*
X904622Y1090604D01*
X903723Y1089705D01*
X848360D01*
X847468Y1089527D01*
X846712Y1089022D01*
X835457Y1077767D01*
X817127D01*
X816482Y1078412D01*
X815082Y1078992D01*
X813566D01*
X812166Y1078412D01*
X811267Y1077513D01*
X771951D01*
Y1142824D01*
X773020Y1143110D01*
X775030Y1144270D01*
X776670Y1145910D01*
X777830Y1147919D01*
X778430Y1150160D01*
Y1152480D01*
X777830Y1154721D01*
X776670Y1156730D01*
X775030Y1158370D01*
X773822Y1159067D01*
X774163Y1160337D01*
X790478D01*
X790818Y1159067D01*
X789611Y1158370D01*
X787970Y1156730D01*
X786810Y1154721D01*
X786210Y1152480D01*
Y1150160D01*
X786810Y1147919D01*
X787970Y1145910D01*
X789611Y1144270D01*
X791619Y1143110D01*
X793860Y1142510D01*
X796180D01*
X798420Y1143110D01*
X800430Y1144270D01*
X802070Y1145910D01*
X803230Y1147919D01*
X803830Y1150160D01*
Y1152480D01*
X803230Y1154721D01*
X802070Y1156730D01*
X800430Y1158370D01*
X799222Y1159067D01*
X799563Y1160337D01*
X815878D01*
X816218Y1159067D01*
X815011Y1158370D01*
X813370Y1156730D01*
X812210Y1154721D01*
X811610Y1152480D01*
Y1150160D01*
X812210Y1147919D01*
X813370Y1145910D01*
X815011Y1144270D01*
X817020Y1143110D01*
X819260Y1142510D01*
X821580D01*
X823820Y1143110D01*
X825829Y1144270D01*
X827470Y1145910D01*
X828630Y1147919D01*
X829230Y1150160D01*
Y1152480D01*
X828630Y1154721D01*
X827470Y1156730D01*
X825829Y1158370D01*
X824622Y1159067D01*
X824962Y1160337D01*
X838860D01*
X839312Y1159067D01*
X837754Y1157509D01*
X836427Y1155211D01*
X835740Y1152647D01*
Y1152590D01*
X855900D01*
Y1152647D01*
X855213Y1155211D01*
X853886Y1157509D01*
X852328Y1159067D01*
X852780Y1160337D01*
X866677D01*
X867018Y1159067D01*
X865810Y1158370D01*
X864170Y1156730D01*
X863010Y1154721D01*
X862410Y1152480D01*
Y1150160D01*
X863010Y1147919D01*
X864170Y1145910D01*
X865810Y1144270D01*
X867820Y1143110D01*
X870060Y1142510D01*
X872380D01*
X874621Y1143110D01*
X876629Y1144270D01*
X878270Y1145910D01*
X879430Y1147919D01*
X880030Y1150160D01*
Y1152480D01*
X879430Y1154721D01*
X878270Y1156730D01*
X876629Y1158370D01*
X875422Y1159067D01*
X875762Y1160337D01*
X878840D01*
X880079Y1160583D01*
X881129Y1161285D01*
X885955Y1166111D01*
X886657Y1167161D01*
X886903Y1168400D01*
Y1170850D01*
X888173Y1171190D01*
X888554Y1170531D01*
X890431Y1168654D01*
X892729Y1167327D01*
X895293Y1166640D01*
X895350D01*
Y1176720D01*
Y1186800D01*
X895293D01*
X892729Y1186113D01*
X890431Y1184786D01*
X888554Y1182909D01*
X888173Y1182250D01*
X886903Y1182590D01*
Y1186109D01*
X889833Y1189039D01*
X953699D01*
X956629Y1186109D01*
Y1180930D01*
X955359Y1180590D01*
X954470Y1182130D01*
X952830Y1183770D01*
X950820Y1184930D01*
X948580Y1185530D01*
X946260D01*
X944019Y1184930D01*
X942010Y1183770D01*
X940370Y1182130D01*
X939210Y1180120D01*
X938610Y1177880D01*
Y1175560D01*
X939210Y1173319D01*
X940370Y1171311D01*
X942010Y1169670D01*
X944019Y1168510D01*
X946260Y1167910D01*
X948580D01*
X950820Y1168510D01*
X952830Y1169670D01*
X954470Y1171311D01*
X955359Y1172850D01*
X956629Y1172510D01*
Y1165107D01*
X950967Y1159445D01*
X950820Y1159530D01*
X948580Y1160130D01*
X946260D01*
X944019Y1159530D01*
X942010Y1158370D01*
X940370Y1156730D01*
X939210Y1154721D01*
X938610Y1152480D01*
Y1150160D01*
X939210Y1147919D01*
X940370Y1145910D01*
X942010Y1144270D01*
X944019Y1143110D01*
X944183Y1143067D01*
Y1104900D01*
Y1087191D01*
X925505Y1068513D01*
X872744D01*
X871505Y1068267D01*
X870455Y1067565D01*
X860295Y1057405D01*
X859593Y1056355D01*
X859347Y1055116D01*
Y1039622D01*
X859593Y1038383D01*
X860295Y1037333D01*
X866391Y1031237D01*
X867441Y1030535D01*
X868680Y1030289D01*
X945961D01*
Y1022096D01*
X946207Y1020857D01*
X946909Y1019807D01*
X1016251Y950465D01*
X1017301Y949763D01*
X1018540Y949517D01*
X1025289D01*
X1026672Y948944D01*
X1028188D01*
X1029571Y949517D01*
X1113211D01*
X1127249Y935479D01*
X1128299Y934777D01*
X1129538Y934531D01*
X1170323D01*
X1171706Y933958D01*
X1173222D01*
X1174622Y934538D01*
X1175694Y935610D01*
X1176274Y937010D01*
Y938526D01*
X1175694Y939926D01*
X1174622Y940998D01*
X1173222Y941578D01*
X1171706D01*
X1170323Y941005D01*
X1130879D01*
X1116841Y955043D01*
X1115791Y955745D01*
X1114552Y955991D01*
X1029571D01*
X1028188Y956564D01*
X1026672D01*
X1025289Y955991D01*
X1019881D01*
X952435Y1023437D01*
Y1045901D01*
X955111Y1048577D01*
X974527D01*
X979235Y1043869D01*
Y1034905D01*
X978662Y1033522D01*
Y1032006D01*
X979242Y1030606D01*
X980314Y1029534D01*
X981714Y1028954D01*
X983230D01*
X984630Y1029534D01*
X984884Y1029788D01*
X1009016D01*
X1009524Y1029280D01*
X1010924Y1028700D01*
X1012440D01*
X1013840Y1029280D01*
X1014912Y1030352D01*
X1015492Y1031752D01*
Y1033268D01*
X1014912Y1034668D01*
X1013840Y1035740D01*
X1012440Y1036320D01*
X1010924D01*
X1009524Y1035740D01*
X1009270Y1035486D01*
X985709D01*
Y1045210D01*
X985463Y1046449D01*
X984761Y1047499D01*
X978157Y1054103D01*
X977107Y1054805D01*
X975868Y1055051D01*
X953770D01*
X952531Y1054805D01*
X951481Y1054103D01*
X946909Y1049531D01*
X946207Y1048481D01*
X945961Y1047242D01*
Y1036763D01*
X870021D01*
X865821Y1040963D01*
Y1053775D01*
X874085Y1062039D01*
X926846D01*
X928085Y1062285D01*
X929135Y1062987D01*
X949709Y1083561D01*
X950411Y1084611D01*
X950657Y1085850D01*
Y1101663D01*
X970679D01*
X972062Y1101090D01*
X973578D01*
X974978Y1101670D01*
X976050Y1102742D01*
X976630Y1104142D01*
Y1105658D01*
X976050Y1107058D01*
X974978Y1108130D01*
X973578Y1108710D01*
X972062D01*
X970679Y1108137D01*
X950657D01*
Y1143067D01*
X950820Y1143110D01*
X952830Y1144270D01*
X954470Y1145910D01*
X955630Y1147919D01*
X956230Y1150160D01*
Y1152480D01*
X955630Y1154721D01*
X955545Y1154867D01*
X962155Y1161477D01*
X962857Y1162527D01*
X963103Y1163766D01*
Y1170850D01*
X964373Y1171190D01*
X964754Y1170531D01*
X966631Y1168654D01*
X968929Y1167327D01*
X971493Y1166640D01*
X971550D01*
Y1176720D01*
Y1186800D01*
X971493D01*
X968929Y1186113D01*
X966631Y1184786D01*
X964754Y1182909D01*
X964373Y1182250D01*
X963103Y1182590D01*
Y1187450D01*
X962857Y1188689D01*
X962155Y1189739D01*
X957329Y1194565D01*
X956279Y1195267D01*
X955040Y1195513D01*
D02*
G37*
G36*
X1151947Y1186800D02*
X1151890D01*
Y1177990D01*
X1160700D01*
Y1178047D01*
X1160013Y1180611D01*
X1158686Y1182909D01*
X1156809Y1184786D01*
X1154511Y1186113D01*
X1151947Y1186800D01*
D02*
G37*
G36*
X1149350D02*
X1149293D01*
X1146729Y1186113D01*
X1144431Y1184786D01*
X1142554Y1182909D01*
X1141227Y1180611D01*
X1140540Y1178047D01*
Y1177990D01*
X1149350D01*
Y1186800D01*
D02*
G37*
G36*
X1101147D02*
X1101090D01*
Y1177990D01*
X1109900D01*
Y1178047D01*
X1109213Y1180611D01*
X1107886Y1182909D01*
X1106009Y1184786D01*
X1103711Y1186113D01*
X1101147Y1186800D01*
D02*
G37*
G36*
X1098550D02*
X1098493D01*
X1095929Y1186113D01*
X1093631Y1184786D01*
X1091754Y1182909D01*
X1090427Y1180611D01*
X1089740Y1178047D01*
Y1177990D01*
X1098550D01*
Y1186800D01*
D02*
G37*
G36*
X974147D02*
X974090D01*
Y1177990D01*
X982900D01*
Y1178047D01*
X982213Y1180611D01*
X980886Y1182909D01*
X979009Y1184786D01*
X976711Y1186113D01*
X974147Y1186800D01*
D02*
G37*
G36*
X897947D02*
X897890D01*
Y1177990D01*
X906700D01*
Y1178047D01*
X906013Y1180611D01*
X904686Y1182909D01*
X902809Y1184786D01*
X900511Y1186113D01*
X897947Y1186800D01*
D02*
G37*
G36*
X796347D02*
X796290D01*
Y1177990D01*
X805100D01*
Y1178047D01*
X804413Y1180611D01*
X803086Y1182909D01*
X801209Y1184786D01*
X798911Y1186113D01*
X796347Y1186800D01*
D02*
G37*
G36*
X793750D02*
X793693D01*
X791129Y1186113D01*
X788831Y1184786D01*
X786954Y1182909D01*
X785627Y1180611D01*
X784940Y1178047D01*
Y1177990D01*
X793750D01*
Y1186800D01*
D02*
G37*
G36*
X1227980Y1185530D02*
X1225660D01*
X1223419Y1184930D01*
X1221411Y1183770D01*
X1219770Y1182130D01*
X1218610Y1180120D01*
X1218010Y1177880D01*
Y1175560D01*
X1218610Y1173319D01*
X1219770Y1171311D01*
X1221411Y1169670D01*
X1223419Y1168510D01*
X1225660Y1167910D01*
X1227980D01*
X1230220Y1168510D01*
X1232230Y1169670D01*
X1233870Y1171311D01*
X1235030Y1173319D01*
X1235630Y1175560D01*
Y1177880D01*
X1235030Y1180120D01*
X1233870Y1182130D01*
X1232230Y1183770D01*
X1230220Y1184930D01*
X1227980Y1185530D01*
D02*
G37*
G36*
X1202580D02*
X1200260D01*
X1198019Y1184930D01*
X1196011Y1183770D01*
X1194370Y1182130D01*
X1193210Y1180120D01*
X1192610Y1177880D01*
Y1175560D01*
X1193210Y1173319D01*
X1194370Y1171311D01*
X1196011Y1169670D01*
X1198019Y1168510D01*
X1200260Y1167910D01*
X1202580D01*
X1204820Y1168510D01*
X1206830Y1169670D01*
X1208470Y1171311D01*
X1209630Y1173319D01*
X1210230Y1175560D01*
Y1177880D01*
X1209630Y1180120D01*
X1208470Y1182130D01*
X1206830Y1183770D01*
X1204820Y1184930D01*
X1202580Y1185530D01*
D02*
G37*
G36*
X1177180D02*
X1174860D01*
X1172619Y1184930D01*
X1170611Y1183770D01*
X1168970Y1182130D01*
X1167810Y1180120D01*
X1167210Y1177880D01*
Y1175560D01*
X1167810Y1173319D01*
X1168970Y1171311D01*
X1170611Y1169670D01*
X1172619Y1168510D01*
X1174860Y1167910D01*
X1177180D01*
X1179420Y1168510D01*
X1181430Y1169670D01*
X1183070Y1171311D01*
X1184230Y1173319D01*
X1184830Y1175560D01*
Y1177880D01*
X1184230Y1180120D01*
X1183070Y1182130D01*
X1181430Y1183770D01*
X1179420Y1184930D01*
X1177180Y1185530D01*
D02*
G37*
G36*
X1126380D02*
X1124060D01*
X1121820Y1184930D01*
X1119810Y1183770D01*
X1118170Y1182130D01*
X1117010Y1180120D01*
X1116410Y1177880D01*
Y1175560D01*
X1117010Y1173319D01*
X1118170Y1171311D01*
X1119810Y1169670D01*
X1121820Y1168510D01*
X1124060Y1167910D01*
X1126380D01*
X1128621Y1168510D01*
X1130630Y1169670D01*
X1132270Y1171311D01*
X1133430Y1173319D01*
X1134030Y1175560D01*
Y1177880D01*
X1133430Y1180120D01*
X1132270Y1182130D01*
X1130630Y1183770D01*
X1128621Y1184930D01*
X1126380Y1185530D01*
D02*
G37*
G36*
X1075580D02*
X1073260D01*
X1071020Y1184930D01*
X1069010Y1183770D01*
X1067370Y1182130D01*
X1066210Y1180120D01*
X1065610Y1177880D01*
Y1175560D01*
X1066210Y1173319D01*
X1067370Y1171311D01*
X1069010Y1169670D01*
X1071020Y1168510D01*
X1073260Y1167910D01*
X1075580D01*
X1077821Y1168510D01*
X1079829Y1169670D01*
X1081470Y1171311D01*
X1082630Y1173319D01*
X1083230Y1175560D01*
Y1177880D01*
X1082630Y1180120D01*
X1081470Y1182130D01*
X1079829Y1183770D01*
X1077821Y1184930D01*
X1075580Y1185530D01*
D02*
G37*
G36*
X1050180D02*
X1047860D01*
X1045620Y1184930D01*
X1043611Y1183770D01*
X1041970Y1182130D01*
X1040810Y1180120D01*
X1040210Y1177880D01*
Y1175560D01*
X1040810Y1173319D01*
X1041970Y1171311D01*
X1043611Y1169670D01*
X1045620Y1168510D01*
X1047860Y1167910D01*
X1050180D01*
X1052421Y1168510D01*
X1054429Y1169670D01*
X1056070Y1171311D01*
X1057230Y1173319D01*
X1057830Y1175560D01*
Y1177880D01*
X1057230Y1180120D01*
X1056070Y1182130D01*
X1054429Y1183770D01*
X1052421Y1184930D01*
X1050180Y1185530D01*
D02*
G37*
G36*
X1024780D02*
X1022460D01*
X1020219Y1184930D01*
X1018211Y1183770D01*
X1016570Y1182130D01*
X1015410Y1180120D01*
X1014810Y1177880D01*
Y1175560D01*
X1015410Y1173319D01*
X1016570Y1171311D01*
X1018211Y1169670D01*
X1020219Y1168510D01*
X1022460Y1167910D01*
X1024780D01*
X1027020Y1168510D01*
X1029029Y1169670D01*
X1030670Y1171311D01*
X1031830Y1173319D01*
X1032430Y1175560D01*
Y1177880D01*
X1031830Y1180120D01*
X1030670Y1182130D01*
X1029029Y1183770D01*
X1027020Y1184930D01*
X1024780Y1185530D01*
D02*
G37*
G36*
X999380D02*
X997060D01*
X994819Y1184930D01*
X992811Y1183770D01*
X991170Y1182130D01*
X990010Y1180120D01*
X989410Y1177880D01*
Y1175560D01*
X990010Y1173319D01*
X991170Y1171311D01*
X992811Y1169670D01*
X994819Y1168510D01*
X997060Y1167910D01*
X999380D01*
X1001620Y1168510D01*
X1003630Y1169670D01*
X1005270Y1171311D01*
X1006430Y1173319D01*
X1007030Y1175560D01*
Y1177880D01*
X1006430Y1180120D01*
X1005270Y1182130D01*
X1003630Y1183770D01*
X1001620Y1184930D01*
X999380Y1185530D01*
D02*
G37*
G36*
X923180D02*
X920860D01*
X918620Y1184930D01*
X916610Y1183770D01*
X914970Y1182130D01*
X913810Y1180120D01*
X913210Y1177880D01*
Y1175560D01*
X913810Y1173319D01*
X914364Y1172360D01*
X907672Y1165668D01*
X907167Y1164912D01*
X906989Y1164020D01*
Y1100074D01*
X907167Y1099182D01*
X907672Y1098426D01*
X916054Y1090044D01*
X916810Y1089539D01*
X917702Y1089361D01*
X930139D01*
X931038Y1088462D01*
X932438Y1087882D01*
X933954D01*
X935354Y1088462D01*
X936426Y1089534D01*
X937006Y1090934D01*
Y1092450D01*
X936426Y1093850D01*
X935354Y1094922D01*
X933954Y1095502D01*
X932438D01*
X931038Y1094922D01*
X930139Y1094023D01*
X918668D01*
X911651Y1101039D01*
Y1163055D01*
X917660Y1169064D01*
X918620Y1168510D01*
X920860Y1167910D01*
X923180D01*
X925421Y1168510D01*
X927430Y1169670D01*
X929070Y1171311D01*
X930230Y1173319D01*
X930830Y1175560D01*
Y1177880D01*
X930230Y1180120D01*
X929070Y1182130D01*
X927430Y1183770D01*
X925421Y1184930D01*
X923180Y1185530D01*
D02*
G37*
G36*
X1160700Y1175450D02*
X1151890D01*
Y1166640D01*
X1151947D01*
X1154511Y1167327D01*
X1156809Y1168654D01*
X1158686Y1170531D01*
X1160013Y1172829D01*
X1160700Y1175393D01*
Y1175450D01*
D02*
G37*
G36*
X1149350D02*
X1140540D01*
Y1175393D01*
X1141227Y1172829D01*
X1142554Y1170531D01*
X1144431Y1168654D01*
X1146729Y1167327D01*
X1149293Y1166640D01*
X1149350D01*
Y1175450D01*
D02*
G37*
G36*
X1109900D02*
X1101090D01*
Y1166640D01*
X1101147D01*
X1103711Y1167327D01*
X1106009Y1168654D01*
X1107886Y1170531D01*
X1109213Y1172829D01*
X1109900Y1175393D01*
Y1175450D01*
D02*
G37*
G36*
X1098550D02*
X1089740D01*
Y1175393D01*
X1090427Y1172829D01*
X1091754Y1170531D01*
X1093631Y1168654D01*
X1095929Y1167327D01*
X1098493Y1166640D01*
X1098550D01*
Y1175450D01*
D02*
G37*
G36*
X982900D02*
X974090D01*
Y1166640D01*
X974147D01*
X976711Y1167327D01*
X979009Y1168654D01*
X980886Y1170531D01*
X982213Y1172829D01*
X982900Y1175393D01*
Y1175450D01*
D02*
G37*
G36*
X906700D02*
X897890D01*
Y1166640D01*
X897947D01*
X900511Y1167327D01*
X902809Y1168654D01*
X904686Y1170531D01*
X906013Y1172829D01*
X906700Y1175393D01*
Y1175450D01*
D02*
G37*
G36*
X1228147Y1161400D02*
X1228090D01*
Y1152590D01*
X1236900D01*
Y1152647D01*
X1236213Y1155211D01*
X1234886Y1157509D01*
X1233009Y1159386D01*
X1230711Y1160713D01*
X1228147Y1161400D01*
D02*
G37*
G36*
X1225550D02*
X1225493D01*
X1222929Y1160713D01*
X1220631Y1159386D01*
X1218754Y1157509D01*
X1217427Y1155211D01*
X1216740Y1152647D01*
Y1152590D01*
X1225550D01*
Y1161400D01*
D02*
G37*
G36*
X1050347D02*
X1050290D01*
Y1152590D01*
X1059100D01*
Y1152647D01*
X1058413Y1155211D01*
X1057086Y1157509D01*
X1055209Y1159386D01*
X1052911Y1160713D01*
X1050347Y1161400D01*
D02*
G37*
G36*
X1047750D02*
X1047693D01*
X1045129Y1160713D01*
X1042831Y1159386D01*
X1040954Y1157509D01*
X1039627Y1155211D01*
X1038940Y1152647D01*
Y1152590D01*
X1047750D01*
Y1161400D01*
D02*
G37*
G36*
X1276999Y1179040D02*
X1274041D01*
X1271139Y1178463D01*
X1268405Y1177330D01*
X1265945Y1175687D01*
X1263853Y1173595D01*
X1262209Y1171135D01*
X1261077Y1168401D01*
X1260500Y1165499D01*
Y1162541D01*
X1261077Y1159639D01*
X1262209Y1156905D01*
X1263853Y1154445D01*
X1265945Y1152353D01*
X1268405Y1150710D01*
X1271139Y1149577D01*
X1274041Y1149000D01*
X1276999D01*
X1279901Y1149577D01*
X1282635Y1150710D01*
X1285095Y1152353D01*
X1287187Y1154445D01*
X1288831Y1156905D01*
X1289963Y1159639D01*
X1290540Y1162541D01*
Y1165499D01*
X1289963Y1168401D01*
X1288831Y1171135D01*
X1287187Y1173595D01*
X1285095Y1175687D01*
X1282635Y1177330D01*
X1279901Y1178463D01*
X1276999Y1179040D01*
D02*
G37*
G36*
X696999D02*
X694041D01*
X691139Y1178463D01*
X688405Y1177330D01*
X685945Y1175687D01*
X683853Y1173595D01*
X682209Y1171135D01*
X681077Y1168401D01*
X680500Y1165499D01*
Y1162541D01*
X681077Y1159639D01*
X682209Y1156905D01*
X683853Y1154445D01*
X685945Y1152353D01*
X688405Y1150710D01*
X691139Y1149577D01*
X694041Y1149000D01*
X696999D01*
X699901Y1149577D01*
X702635Y1150710D01*
X705095Y1152353D01*
X707187Y1154445D01*
X708830Y1156905D01*
X709963Y1159639D01*
X710540Y1162541D01*
Y1165499D01*
X709963Y1168401D01*
X708830Y1171135D01*
X707187Y1173595D01*
X705095Y1175687D01*
X702635Y1177330D01*
X699901Y1178463D01*
X696999Y1179040D01*
D02*
G37*
G36*
X1202580Y1160130D02*
X1200260D01*
X1198019Y1159530D01*
X1196011Y1158370D01*
X1194370Y1156730D01*
X1193210Y1154721D01*
X1192610Y1152480D01*
Y1150160D01*
X1193210Y1147919D01*
X1194370Y1145910D01*
X1196011Y1144270D01*
X1198019Y1143110D01*
X1200260Y1142510D01*
X1202580D01*
X1204820Y1143110D01*
X1206830Y1144270D01*
X1208470Y1145910D01*
X1209630Y1147919D01*
X1210230Y1150160D01*
Y1152480D01*
X1209630Y1154721D01*
X1208470Y1156730D01*
X1206830Y1158370D01*
X1204820Y1159530D01*
X1202580Y1160130D01*
D02*
G37*
G36*
X1177180D02*
X1174860D01*
X1172619Y1159530D01*
X1170611Y1158370D01*
X1168970Y1156730D01*
X1167810Y1154721D01*
X1167210Y1152480D01*
Y1150160D01*
X1167810Y1147919D01*
X1168970Y1145910D01*
X1170611Y1144270D01*
X1172619Y1143110D01*
X1174860Y1142510D01*
X1177180D01*
X1179420Y1143110D01*
X1181430Y1144270D01*
X1183070Y1145910D01*
X1184230Y1147919D01*
X1184830Y1150160D01*
Y1152480D01*
X1184230Y1154721D01*
X1183070Y1156730D01*
X1181430Y1158370D01*
X1179420Y1159530D01*
X1177180Y1160130D01*
D02*
G37*
G36*
X1151780D02*
X1149460D01*
X1147219Y1159530D01*
X1145210Y1158370D01*
X1143570Y1156730D01*
X1142410Y1154721D01*
X1141810Y1152480D01*
Y1150160D01*
X1142410Y1147919D01*
X1143570Y1145910D01*
X1145210Y1144270D01*
X1147219Y1143110D01*
X1149460Y1142510D01*
X1151780D01*
X1154020Y1143110D01*
X1156030Y1144270D01*
X1157670Y1145910D01*
X1158830Y1147919D01*
X1159430Y1150160D01*
Y1152480D01*
X1158830Y1154721D01*
X1157670Y1156730D01*
X1156030Y1158370D01*
X1154020Y1159530D01*
X1151780Y1160130D01*
D02*
G37*
G36*
X1126380D02*
X1124060D01*
X1121820Y1159530D01*
X1119810Y1158370D01*
X1118170Y1156730D01*
X1117010Y1154721D01*
X1116410Y1152480D01*
Y1150160D01*
X1117010Y1147919D01*
X1118170Y1145910D01*
X1119810Y1144270D01*
X1121820Y1143110D01*
X1124060Y1142510D01*
X1126380D01*
X1128621Y1143110D01*
X1130630Y1144270D01*
X1132270Y1145910D01*
X1133430Y1147919D01*
X1134030Y1150160D01*
Y1152480D01*
X1133430Y1154721D01*
X1132270Y1156730D01*
X1130630Y1158370D01*
X1128621Y1159530D01*
X1126380Y1160130D01*
D02*
G37*
G36*
X1100980D02*
X1098660D01*
X1096420Y1159530D01*
X1094410Y1158370D01*
X1092770Y1156730D01*
X1091610Y1154721D01*
X1091010Y1152480D01*
Y1150160D01*
X1091610Y1147919D01*
X1092770Y1145910D01*
X1094410Y1144270D01*
X1096420Y1143110D01*
X1098660Y1142510D01*
X1100980D01*
X1103221Y1143110D01*
X1105229Y1144270D01*
X1106870Y1145910D01*
X1108030Y1147919D01*
X1108630Y1150160D01*
Y1152480D01*
X1108030Y1154721D01*
X1106870Y1156730D01*
X1105229Y1158370D01*
X1103221Y1159530D01*
X1100980Y1160130D01*
D02*
G37*
G36*
X1075580D02*
X1073260D01*
X1071020Y1159530D01*
X1069010Y1158370D01*
X1067370Y1156730D01*
X1066210Y1154721D01*
X1065610Y1152480D01*
Y1150160D01*
X1066210Y1147919D01*
X1067370Y1145910D01*
X1069010Y1144270D01*
X1071020Y1143110D01*
X1073260Y1142510D01*
X1075580D01*
X1077821Y1143110D01*
X1079829Y1144270D01*
X1081470Y1145910D01*
X1082630Y1147919D01*
X1083230Y1150160D01*
Y1152480D01*
X1082630Y1154721D01*
X1081470Y1156730D01*
X1079829Y1158370D01*
X1077821Y1159530D01*
X1075580Y1160130D01*
D02*
G37*
G36*
X1024780D02*
X1022460D01*
X1020219Y1159530D01*
X1018211Y1158370D01*
X1016570Y1156730D01*
X1015410Y1154721D01*
X1014810Y1152480D01*
Y1150160D01*
X1015410Y1147919D01*
X1016570Y1145910D01*
X1018211Y1144270D01*
X1020219Y1143110D01*
X1022460Y1142510D01*
X1024780D01*
X1027020Y1143110D01*
X1029029Y1144270D01*
X1030670Y1145910D01*
X1031830Y1147919D01*
X1032430Y1150160D01*
Y1152480D01*
X1031830Y1154721D01*
X1030670Y1156730D01*
X1029029Y1158370D01*
X1027020Y1159530D01*
X1024780Y1160130D01*
D02*
G37*
G36*
X999380D02*
X997060D01*
X994819Y1159530D01*
X992811Y1158370D01*
X991170Y1156730D01*
X990010Y1154721D01*
X989410Y1152480D01*
Y1150160D01*
X990010Y1147919D01*
X991170Y1145910D01*
X992811Y1144270D01*
X994819Y1143110D01*
X997060Y1142510D01*
X999380D01*
X1001620Y1143110D01*
X1003630Y1144270D01*
X1005270Y1145910D01*
X1006430Y1147919D01*
X1007030Y1150160D01*
Y1152480D01*
X1006430Y1154721D01*
X1005270Y1156730D01*
X1003630Y1158370D01*
X1001620Y1159530D01*
X999380Y1160130D01*
D02*
G37*
G36*
X973980D02*
X971660D01*
X969419Y1159530D01*
X967411Y1158370D01*
X965770Y1156730D01*
X964610Y1154721D01*
X964010Y1152480D01*
Y1150160D01*
X964610Y1147919D01*
X965770Y1145910D01*
X967411Y1144270D01*
X969419Y1143110D01*
X971660Y1142510D01*
X973980D01*
X976220Y1143110D01*
X978230Y1144270D01*
X979870Y1145910D01*
X981030Y1147919D01*
X981630Y1150160D01*
Y1152480D01*
X981030Y1154721D01*
X979870Y1156730D01*
X978230Y1158370D01*
X976220Y1159530D01*
X973980Y1160130D01*
D02*
G37*
G36*
X923180D02*
X920860D01*
X918620Y1159530D01*
X916610Y1158370D01*
X914970Y1156730D01*
X913810Y1154721D01*
X913210Y1152480D01*
Y1150160D01*
X913810Y1147919D01*
X914970Y1145910D01*
X916610Y1144270D01*
X918620Y1143110D01*
X920860Y1142510D01*
X923180D01*
X925421Y1143110D01*
X927430Y1144270D01*
X929070Y1145910D01*
X930230Y1147919D01*
X930830Y1150160D01*
Y1152480D01*
X930230Y1154721D01*
X929070Y1156730D01*
X927430Y1158370D01*
X925421Y1159530D01*
X923180Y1160130D01*
D02*
G37*
G36*
X897780D02*
X895460D01*
X893220Y1159530D01*
X891210Y1158370D01*
X889570Y1156730D01*
X888410Y1154721D01*
X887810Y1152480D01*
Y1150160D01*
X888410Y1147919D01*
X889570Y1145910D01*
X891210Y1144270D01*
X893220Y1143110D01*
X895460Y1142510D01*
X897780D01*
X900021Y1143110D01*
X902029Y1144270D01*
X903670Y1145910D01*
X904830Y1147919D01*
X905430Y1150160D01*
Y1152480D01*
X904830Y1154721D01*
X903670Y1156730D01*
X902029Y1158370D01*
X900021Y1159530D01*
X897780Y1160130D01*
D02*
G37*
G36*
X1236900Y1150050D02*
X1228090D01*
Y1141240D01*
X1228147D01*
X1230711Y1141927D01*
X1233009Y1143254D01*
X1234886Y1145131D01*
X1236213Y1147429D01*
X1236900Y1149993D01*
Y1150050D01*
D02*
G37*
G36*
X1225550D02*
X1216740D01*
Y1149993D01*
X1217427Y1147429D01*
X1218754Y1145131D01*
X1220631Y1143254D01*
X1222929Y1141927D01*
X1225493Y1141240D01*
X1225550D01*
Y1150050D01*
D02*
G37*
G36*
X1059100D02*
X1050290D01*
Y1141240D01*
X1050347D01*
X1052911Y1141927D01*
X1055209Y1143254D01*
X1057086Y1145131D01*
X1058413Y1147429D01*
X1059100Y1149993D01*
Y1150050D01*
D02*
G37*
G36*
X1047750D02*
X1038940D01*
Y1149993D01*
X1039627Y1147429D01*
X1040954Y1145131D01*
X1042831Y1143254D01*
X1045129Y1141927D01*
X1047693Y1141240D01*
X1047750D01*
Y1150050D01*
D02*
G37*
G36*
X855900D02*
X847090D01*
Y1141240D01*
X847147D01*
X849711Y1141927D01*
X852009Y1143254D01*
X853886Y1145131D01*
X855213Y1147429D01*
X855900Y1149993D01*
Y1150050D01*
D02*
G37*
G36*
X844550D02*
X835740D01*
Y1149993D01*
X836427Y1147429D01*
X837754Y1145131D01*
X839631Y1143254D01*
X841929Y1141927D01*
X844493Y1141240D01*
X844550D01*
Y1150050D01*
D02*
G37*
G36*
X1286002Y1136219D02*
X1270762D01*
X1268441Y1135913D01*
X1266279Y1135017D01*
X1264422Y1133592D01*
X1262997Y1131735D01*
X1262319Y1130101D01*
X1249934D01*
X1249934Y1130101D01*
X1248844Y1129884D01*
X1247920Y1129266D01*
X1247920Y1129266D01*
X1234276Y1115623D01*
X1117854D01*
X1117854Y1115623D01*
X1116764Y1115406D01*
X1115840Y1114788D01*
X1115840Y1114788D01*
X1103394Y1102342D01*
X1102776Y1101418D01*
X1102559Y1100328D01*
X1102559Y1100328D01*
Y994410D01*
X1102559Y994410D01*
X1102776Y993320D01*
X1103394Y992396D01*
X1109417Y986372D01*
Y976121D01*
X1109036Y975740D01*
X1108456Y974340D01*
Y972824D01*
X1109036Y971424D01*
X1110108Y970352D01*
X1111508Y969772D01*
X1113024D01*
X1114424Y970352D01*
X1115496Y971424D01*
X1116076Y972824D01*
Y974340D01*
X1115496Y975740D01*
X1115115Y976121D01*
Y987552D01*
X1115115Y987552D01*
X1114898Y988642D01*
X1114280Y989566D01*
X1114280Y989566D01*
X1108257Y995590D01*
Y1099148D01*
X1119034Y1109925D01*
X1235456D01*
X1235456Y1109925D01*
X1236546Y1110142D01*
X1237470Y1110760D01*
X1251114Y1124403D01*
X1262319D01*
X1262997Y1122769D01*
X1264422Y1120912D01*
X1266279Y1119487D01*
X1268441Y1118591D01*
X1270762Y1118285D01*
X1286002D01*
X1288323Y1118591D01*
X1290485Y1119487D01*
X1292342Y1120912D01*
X1293767Y1122769D01*
X1294663Y1124931D01*
X1294969Y1127252D01*
X1294663Y1129573D01*
X1293767Y1131735D01*
X1292342Y1133592D01*
X1290485Y1135017D01*
X1288323Y1135913D01*
X1286002Y1136219D01*
D02*
G37*
G36*
X1070738Y1115436D02*
X1069222D01*
X1067822Y1114856D01*
X1066923Y1113957D01*
X1051936D01*
X1051044Y1113779D01*
X1050288Y1113274D01*
X1011987Y1074973D01*
X949452D01*
X948560Y1074795D01*
X947804Y1074290D01*
X920693Y1047179D01*
X885194D01*
X884295Y1048078D01*
X882895Y1048658D01*
X881379D01*
X879979Y1048078D01*
X878907Y1047006D01*
X878327Y1045606D01*
Y1044090D01*
X878907Y1042690D01*
X879979Y1041618D01*
X881379Y1041038D01*
X882895D01*
X884295Y1041618D01*
X885194Y1042517D01*
X921658D01*
X922550Y1042695D01*
X923306Y1043200D01*
X950417Y1070311D01*
X1012952D01*
X1013844Y1070489D01*
X1014600Y1070994D01*
X1052902Y1109295D01*
X1066923D01*
X1067822Y1108396D01*
X1069222Y1107816D01*
X1070738D01*
X1072138Y1108396D01*
X1073210Y1109468D01*
X1073790Y1110868D01*
Y1112384D01*
X1073210Y1113784D01*
X1072138Y1114856D01*
X1070738Y1115436D01*
D02*
G37*
G36*
X981863Y1098084D02*
Y1094381D01*
X985566D01*
X984900Y1095989D01*
X983471Y1097418D01*
X981863Y1098084D01*
D02*
G37*
G36*
X979323D02*
X977716Y1097418D01*
X976287Y1095989D01*
X975621Y1094381D01*
X979323D01*
Y1098084D01*
D02*
G37*
G36*
X1286002Y1110819D02*
X1270762D01*
X1268441Y1110513D01*
X1266279Y1109617D01*
X1264422Y1108192D01*
X1262997Y1106335D01*
X1262101Y1104173D01*
X1261795Y1101852D01*
X1262101Y1099531D01*
X1262997Y1097369D01*
X1264422Y1095512D01*
X1266279Y1094087D01*
X1268441Y1093191D01*
X1270762Y1092885D01*
X1286002D01*
X1288323Y1093191D01*
X1290485Y1094087D01*
X1292342Y1095512D01*
X1293767Y1097369D01*
X1294663Y1099531D01*
X1294969Y1101852D01*
X1294663Y1104173D01*
X1293767Y1106335D01*
X1292342Y1108192D01*
X1290485Y1109617D01*
X1288323Y1110513D01*
X1286002Y1110819D01*
D02*
G37*
G36*
X985566Y1091841D02*
X981863D01*
Y1088139D01*
X983471Y1088804D01*
X984900Y1090234D01*
X985566Y1091841D01*
D02*
G37*
G36*
X979323D02*
X975621D01*
X976287Y1090234D01*
X977716Y1088804D01*
X979323Y1088139D01*
Y1091841D01*
D02*
G37*
G36*
X695468Y1097220D02*
X693470D01*
X691625Y1096456D01*
X690213Y1095044D01*
X689449Y1093199D01*
Y1091201D01*
X690213Y1089356D01*
X691625Y1087944D01*
X693470Y1087180D01*
X695468D01*
X697313Y1087944D01*
X698725Y1089356D01*
X699489Y1091201D01*
Y1093199D01*
X698725Y1095044D01*
X697313Y1096456D01*
X695468Y1097220D01*
D02*
G37*
G36*
X868579Y1080304D02*
Y1076601D01*
X872282D01*
X871616Y1078209D01*
X870187Y1079638D01*
X868579Y1080304D01*
D02*
G37*
G36*
X866039D02*
X864432Y1079638D01*
X863003Y1078209D01*
X862337Y1076601D01*
X866039D01*
Y1080304D01*
D02*
G37*
G36*
X1293304Y1079305D02*
X1290574D01*
Y1073474D01*
X1300237D01*
X1300163Y1074042D01*
X1299453Y1075754D01*
X1298325Y1077225D01*
X1296854Y1078353D01*
X1295142Y1079063D01*
X1293304Y1079305D01*
D02*
G37*
G36*
X1253104D02*
X1248874D01*
Y1073474D01*
X1260038D01*
X1259963Y1074042D01*
X1259253Y1075754D01*
X1258125Y1077225D01*
X1256654Y1078353D01*
X1254942Y1079063D01*
X1253104Y1079305D01*
D02*
G37*
G36*
X1288034D02*
X1285304D01*
X1283466Y1079063D01*
X1281754Y1078353D01*
X1280283Y1077225D01*
X1279155Y1075754D01*
X1278445Y1074042D01*
X1278371Y1073474D01*
X1288034D01*
Y1079305D01*
D02*
G37*
G36*
X1246334D02*
X1242104D01*
X1240266Y1079063D01*
X1238554Y1078353D01*
X1237083Y1077225D01*
X1235955Y1075754D01*
X1235245Y1074042D01*
X1235171Y1073474D01*
X1246334D01*
Y1079305D01*
D02*
G37*
G36*
X1084326Y1082339D02*
X1039876D01*
X1038984Y1082161D01*
X1038228Y1081656D01*
X1021131Y1064559D01*
X968765D01*
X967866Y1065458D01*
X966466Y1066038D01*
X964950D01*
X963550Y1065458D01*
X962478Y1064386D01*
X961898Y1062986D01*
Y1061470D01*
X962478Y1060070D01*
X963550Y1058998D01*
X964950Y1058418D01*
X966466D01*
X967866Y1058998D01*
X968765Y1059897D01*
X1022096D01*
X1022988Y1060075D01*
X1023744Y1060580D01*
X1040842Y1077677D01*
X1083361D01*
X1084072Y1076966D01*
Y1075694D01*
X1084652Y1074294D01*
X1085724Y1073222D01*
X1087124Y1072642D01*
X1088640D01*
X1090040Y1073222D01*
X1091112Y1074294D01*
X1091692Y1075694D01*
Y1077210D01*
X1091112Y1078610D01*
X1090040Y1079682D01*
X1088640Y1080262D01*
X1087368D01*
X1085974Y1081656D01*
X1085218Y1082161D01*
X1084326Y1082339D01*
D02*
G37*
G36*
X872282Y1074061D02*
X868579D01*
Y1070359D01*
X870187Y1071024D01*
X871616Y1072454D01*
X872282Y1074061D01*
D02*
G37*
G36*
X866039D02*
X862337D01*
X863003Y1072454D01*
X864432Y1071024D01*
X866039Y1070359D01*
Y1074061D01*
D02*
G37*
G36*
X1300237Y1070934D02*
X1290574D01*
Y1065103D01*
X1293304D01*
X1295142Y1065345D01*
X1296854Y1066055D01*
X1298325Y1067183D01*
X1299453Y1068654D01*
X1300163Y1070366D01*
X1300237Y1070934D01*
D02*
G37*
G36*
X1288034D02*
X1278371D01*
X1278445Y1070366D01*
X1279155Y1068654D01*
X1280283Y1067183D01*
X1281754Y1066055D01*
X1283466Y1065345D01*
X1285304Y1065103D01*
X1288034D01*
Y1070934D01*
D02*
G37*
G36*
X1260038D02*
X1248874D01*
Y1065103D01*
X1253104D01*
X1254942Y1065345D01*
X1256654Y1066055D01*
X1258125Y1067183D01*
X1259253Y1068654D01*
X1259963Y1070366D01*
X1260038Y1070934D01*
D02*
G37*
G36*
X1246334D02*
X1235171D01*
X1235245Y1070366D01*
X1235955Y1068654D01*
X1237083Y1067183D01*
X1238554Y1066055D01*
X1240266Y1065345D01*
X1242104Y1065103D01*
X1246334D01*
Y1070934D01*
D02*
G37*
G36*
X1253353Y1062124D02*
X1251655D01*
X1250085Y1061474D01*
X1248884Y1060273D01*
X1248234Y1058703D01*
Y1057005D01*
X1248884Y1055435D01*
X1250085Y1054234D01*
X1251655Y1053584D01*
X1253353D01*
X1254923Y1054234D01*
X1256124Y1055435D01*
X1256774Y1057005D01*
Y1058703D01*
X1256124Y1060273D01*
X1254923Y1061474D01*
X1253353Y1062124D01*
D02*
G37*
G36*
X1211068Y1049528D02*
X1209552D01*
X1208169Y1048955D01*
X1199134D01*
X1197895Y1048709D01*
X1196845Y1048007D01*
X1166619Y1017781D01*
X1165917Y1016731D01*
X1165671Y1015492D01*
Y1004933D01*
X1165098Y1003550D01*
Y1002034D01*
X1165678Y1000634D01*
X1166750Y999562D01*
X1168150Y998982D01*
X1169666D01*
X1171066Y999562D01*
X1172138Y1000634D01*
X1172718Y1002034D01*
Y1003550D01*
X1172145Y1004933D01*
Y1014151D01*
X1200475Y1042481D01*
X1208169D01*
X1209552Y1041908D01*
X1211068D01*
X1212468Y1042488D01*
X1213540Y1043560D01*
X1214120Y1044960D01*
Y1046476D01*
X1213540Y1047876D01*
X1212468Y1048948D01*
X1211068Y1049528D01*
D02*
G37*
G36*
X1051048Y1074674D02*
X1049532D01*
X1048132Y1074094D01*
X1047060Y1073022D01*
X1046480Y1071622D01*
Y1070350D01*
X1043308Y1067178D01*
X1042803Y1066422D01*
X1042625Y1065530D01*
Y1039885D01*
X1041726Y1038986D01*
X1041146Y1037586D01*
Y1036070D01*
X1041726Y1034670D01*
X1042798Y1033598D01*
X1044198Y1033018D01*
X1045714D01*
X1047114Y1033598D01*
X1048186Y1034670D01*
X1048766Y1036070D01*
Y1037586D01*
X1048186Y1038986D01*
X1047287Y1039885D01*
Y1064565D01*
X1049776Y1067054D01*
X1051048D01*
X1052448Y1067634D01*
X1053520Y1068706D01*
X1054100Y1070106D01*
Y1071622D01*
X1053520Y1073022D01*
X1052448Y1074094D01*
X1051048Y1074674D01*
D02*
G37*
G36*
X962910Y1043686D02*
X961394D01*
X959994Y1043106D01*
X958922Y1042034D01*
X958342Y1040634D01*
Y1039118D01*
X958922Y1037718D01*
X959821Y1036819D01*
Y1033526D01*
X959999Y1032634D01*
X960504Y1031878D01*
X978792Y1013590D01*
X979548Y1013085D01*
X980440Y1012907D01*
X1038606D01*
X1039498Y1013085D01*
X1040254Y1013590D01*
X1058875Y1032211D01*
X1070093D01*
X1070992Y1031312D01*
X1072392Y1030732D01*
X1073908D01*
X1075308Y1031312D01*
X1076380Y1032384D01*
X1076960Y1033784D01*
Y1035300D01*
X1076380Y1036700D01*
X1075308Y1037772D01*
X1073908Y1038352D01*
X1072392D01*
X1070992Y1037772D01*
X1070093Y1036873D01*
X1057910D01*
X1057018Y1036695D01*
X1056262Y1036190D01*
X1037641Y1017569D01*
X981405D01*
X964483Y1034491D01*
Y1036819D01*
X965382Y1037718D01*
X965962Y1039118D01*
Y1040634D01*
X965382Y1042034D01*
X964310Y1043106D01*
X962910Y1043686D01*
D02*
G37*
G36*
X1253353Y1004324D02*
X1251655D01*
X1250085Y1003674D01*
X1248884Y1002473D01*
X1248234Y1000903D01*
Y999205D01*
X1248884Y997635D01*
X1250085Y996434D01*
X1251655Y995784D01*
X1253353D01*
X1254923Y996434D01*
X1256124Y997635D01*
X1256774Y999205D01*
Y1000903D01*
X1256124Y1002473D01*
X1254923Y1003674D01*
X1253353Y1004324D01*
D02*
G37*
G36*
X695468Y1005780D02*
X693470D01*
X691625Y1005016D01*
X690213Y1003604D01*
X689449Y1001759D01*
Y999761D01*
X690213Y997916D01*
X691625Y996504D01*
X693470Y995740D01*
X695468D01*
X697313Y996504D01*
X698725Y997916D01*
X699489Y999761D01*
Y1001759D01*
X698725Y1003604D01*
X697313Y1005016D01*
X695468Y1005780D01*
D02*
G37*
G36*
X1293304Y992805D02*
X1290574D01*
Y986974D01*
X1300237D01*
X1300163Y987542D01*
X1299453Y989254D01*
X1298325Y990725D01*
X1296854Y991853D01*
X1295142Y992563D01*
X1293304Y992805D01*
D02*
G37*
G36*
X1253104D02*
X1248874D01*
Y986974D01*
X1260038D01*
X1259963Y987542D01*
X1259253Y989254D01*
X1258125Y990725D01*
X1256654Y991853D01*
X1254942Y992563D01*
X1253104Y992805D01*
D02*
G37*
G36*
X1288034D02*
X1285304D01*
X1283466Y992563D01*
X1281754Y991853D01*
X1280283Y990725D01*
X1279155Y989254D01*
X1278445Y987542D01*
X1278371Y986974D01*
X1288034D01*
Y992805D01*
D02*
G37*
G36*
X1246334D02*
X1242104D01*
X1240266Y992563D01*
X1238554Y991853D01*
X1237083Y990725D01*
X1235955Y989254D01*
X1235245Y987542D01*
X1235171Y986974D01*
X1246334D01*
Y992805D01*
D02*
G37*
G36*
X904379Y1002620D02*
X902069D01*
X899839Y1002022D01*
X897839Y1000868D01*
X896206Y999235D01*
X895052Y997235D01*
X894454Y995005D01*
Y992695D01*
X895052Y990465D01*
X896206Y988465D01*
X897839Y986832D01*
X899839Y985678D01*
X902069Y985080D01*
X904379D01*
X906609Y985678D01*
X908609Y986832D01*
X910242Y988465D01*
X911396Y990465D01*
X911994Y992695D01*
Y995005D01*
X911396Y997235D01*
X910242Y999235D01*
X908609Y1000868D01*
X906609Y1002022D01*
X904379Y1002620D01*
D02*
G37*
G36*
X1300237Y984434D02*
X1290574D01*
Y978603D01*
X1293304D01*
X1295142Y978845D01*
X1296854Y979555D01*
X1298325Y980683D01*
X1299453Y982154D01*
X1300163Y983866D01*
X1300237Y984434D01*
D02*
G37*
G36*
X1288034D02*
X1278371D01*
X1278445Y983866D01*
X1279155Y982154D01*
X1280283Y980683D01*
X1281754Y979555D01*
X1283466Y978845D01*
X1285304Y978603D01*
X1288034D01*
Y984434D01*
D02*
G37*
G36*
X1260038D02*
X1248874D01*
Y978603D01*
X1253104D01*
X1254942Y978845D01*
X1256654Y979555D01*
X1258125Y980683D01*
X1259253Y982154D01*
X1259963Y983866D01*
X1260038Y984434D01*
D02*
G37*
G36*
X1246334D02*
X1235171D01*
X1235245Y983866D01*
X1235955Y982154D01*
X1237083Y980683D01*
X1238554Y979555D01*
X1240266Y978845D01*
X1242104Y978603D01*
X1246334D01*
Y984434D01*
D02*
G37*
G36*
X1176778Y1081278D02*
X1175262D01*
X1173862Y1080698D01*
X1172790Y1079626D01*
X1172210Y1078226D01*
Y1076710D01*
X1172790Y1075310D01*
X1173171Y1074929D01*
Y1058582D01*
X1151654Y1037064D01*
X1151036Y1036140D01*
X1150819Y1035050D01*
X1150819Y1035050D01*
Y999236D01*
X1150819Y999236D01*
X1151036Y998146D01*
X1151654Y997222D01*
X1155899Y992976D01*
Y983487D01*
X1155518Y983106D01*
X1154938Y981706D01*
Y980190D01*
X1155518Y978790D01*
X1156590Y977718D01*
X1157990Y977138D01*
X1159506D01*
X1160906Y977718D01*
X1161978Y978790D01*
X1162558Y980190D01*
Y981706D01*
X1161978Y983106D01*
X1161597Y983487D01*
Y994156D01*
X1161597Y994156D01*
X1161380Y995246D01*
X1160762Y996170D01*
X1160762Y996170D01*
X1156517Y1000416D01*
Y1033870D01*
X1178034Y1055388D01*
X1178652Y1056312D01*
X1178869Y1057402D01*
X1178869Y1057402D01*
Y1074929D01*
X1179250Y1075310D01*
X1179830Y1076710D01*
Y1078226D01*
X1179250Y1079626D01*
X1178178Y1080698D01*
X1176778Y1081278D01*
D02*
G37*
G36*
X1156204Y1086358D02*
X1154688D01*
X1153288Y1085778D01*
X1152216Y1084706D01*
X1151636Y1083306D01*
Y1081790D01*
X1152216Y1080390D01*
X1152597Y1080009D01*
Y1064170D01*
X1133620Y1045192D01*
X1133002Y1044268D01*
X1132785Y1043178D01*
X1132785Y1043178D01*
Y978661D01*
X1132404Y978280D01*
X1131824Y976880D01*
Y975364D01*
X1132404Y973964D01*
X1133476Y972892D01*
X1134876Y972312D01*
X1136392D01*
X1137792Y972892D01*
X1138864Y973964D01*
X1139444Y975364D01*
Y976880D01*
X1138864Y978280D01*
X1138483Y978661D01*
Y1041998D01*
X1157460Y1060976D01*
X1157460Y1060976D01*
X1158078Y1061900D01*
X1158295Y1062990D01*
X1158295Y1062990D01*
Y1080009D01*
X1158676Y1080390D01*
X1159256Y1081790D01*
Y1083306D01*
X1158676Y1084706D01*
X1157604Y1085778D01*
X1156204Y1086358D01*
D02*
G37*
G36*
X1210560Y1083564D02*
X1209044D01*
X1207644Y1082984D01*
X1206572Y1081912D01*
X1205992Y1080512D01*
Y1078996D01*
X1206572Y1077596D01*
X1207644Y1076524D01*
X1209044Y1075944D01*
X1210560D01*
X1211960Y1076524D01*
X1212341Y1076905D01*
X1218020D01*
X1221939Y1072986D01*
Y1013624D01*
X1197628Y989312D01*
X1197010Y988388D01*
X1196793Y987298D01*
X1196793Y987298D01*
Y958849D01*
X1196412Y958468D01*
X1195832Y957068D01*
Y955552D01*
X1196412Y954152D01*
X1197484Y953080D01*
X1198884Y952500D01*
X1200400D01*
X1201800Y953080D01*
X1202872Y954152D01*
X1203452Y955552D01*
Y957068D01*
X1202872Y958468D01*
X1202491Y958849D01*
Y986118D01*
X1226802Y1010430D01*
X1226802Y1010430D01*
X1227420Y1011354D01*
X1227637Y1012444D01*
Y1074166D01*
X1227637Y1074166D01*
X1227420Y1075256D01*
X1226802Y1076180D01*
X1221214Y1081768D01*
X1220290Y1082386D01*
X1219200Y1082603D01*
X1219200Y1082603D01*
X1212341D01*
X1211960Y1082984D01*
X1210560Y1083564D01*
D02*
G37*
G36*
X1120390Y1096264D02*
X1118874D01*
X1117474Y1095684D01*
X1116402Y1094612D01*
X1115822Y1093212D01*
Y1091696D01*
X1116402Y1090296D01*
X1117474Y1089224D01*
X1118874Y1088644D01*
X1119413D01*
X1120339Y1087718D01*
Y956310D01*
X1120339Y956310D01*
X1120556Y955220D01*
X1121174Y954296D01*
X1127016Y948454D01*
X1127016Y948454D01*
X1127940Y947836D01*
X1129030Y947619D01*
X1129030Y947619D01*
X1141731D01*
X1142112Y947238D01*
X1143512Y946658D01*
X1145028D01*
X1146428Y947238D01*
X1147500Y948310D01*
X1148080Y949710D01*
Y951226D01*
X1147500Y952626D01*
X1146428Y953698D01*
X1145028Y954278D01*
X1143512D01*
X1142112Y953698D01*
X1141731Y953317D01*
X1130210D01*
X1126037Y957490D01*
Y1088898D01*
X1126037Y1088898D01*
X1125820Y1089988D01*
X1125202Y1090912D01*
X1125202Y1090912D01*
X1123442Y1092673D01*
Y1093212D01*
X1122862Y1094612D01*
X1121790Y1095684D01*
X1120390Y1096264D01*
D02*
G37*
G36*
X1276999Y949040D02*
X1274041D01*
X1271139Y948463D01*
X1268405Y947330D01*
X1265945Y945687D01*
X1263853Y943595D01*
X1262209Y941135D01*
X1261077Y938401D01*
X1260500Y935499D01*
Y932541D01*
X1261077Y929639D01*
X1262209Y926905D01*
X1263853Y924445D01*
X1265945Y922353D01*
X1268405Y920710D01*
X1271139Y919577D01*
X1274041Y919000D01*
X1276999D01*
X1279901Y919577D01*
X1282635Y920710D01*
X1285095Y922353D01*
X1287187Y924445D01*
X1288831Y926905D01*
X1289963Y929639D01*
X1290540Y932541D01*
Y935499D01*
X1289963Y938401D01*
X1288831Y941135D01*
X1287187Y943595D01*
X1285095Y945687D01*
X1282635Y947330D01*
X1279901Y948463D01*
X1276999Y949040D01*
D02*
G37*
G36*
X696999D02*
X694041D01*
X691139Y948463D01*
X688405Y947330D01*
X685945Y945687D01*
X683853Y943595D01*
X682209Y941135D01*
X681077Y938401D01*
X680500Y935499D01*
Y932541D01*
X681077Y929639D01*
X682209Y926905D01*
X683853Y924445D01*
X685945Y922353D01*
X688405Y920710D01*
X691139Y919577D01*
X694041Y919000D01*
X696999D01*
X699901Y919577D01*
X702635Y920710D01*
X705095Y922353D01*
X707187Y924445D01*
X708830Y926905D01*
X709963Y929639D01*
X710540Y932541D01*
Y935499D01*
X709963Y938401D01*
X708830Y941135D01*
X707187Y943595D01*
X705095Y945687D01*
X702635Y947330D01*
X699901Y948463D01*
X696999Y949040D01*
D02*
G37*
G36*
X904379Y932620D02*
X902069D01*
X899839Y932022D01*
X897839Y930868D01*
X896206Y929235D01*
X895052Y927235D01*
X894454Y925005D01*
Y922695D01*
X895052Y920465D01*
X896206Y918465D01*
X897839Y916832D01*
X899839Y915678D01*
X902069Y915080D01*
X904379D01*
X906609Y915678D01*
X908609Y916832D01*
X910242Y918465D01*
X911396Y920465D01*
X911994Y922695D01*
Y925005D01*
X911396Y927235D01*
X910242Y929235D01*
X908609Y930868D01*
X906609Y932022D01*
X904379Y932620D01*
D02*
G37*
G36*
X793695Y1068488D02*
X792179D01*
X790779Y1067908D01*
X789707Y1066836D01*
X789127Y1065435D01*
Y1063920D01*
X789707Y1062520D01*
X790606Y1061620D01*
Y1033323D01*
X790784Y1032431D01*
X791289Y1031675D01*
X800230Y1022734D01*
X800986Y1022229D01*
X801878Y1022051D01*
X928421D01*
X1014177Y936294D01*
Y920759D01*
X1013278Y919860D01*
X1012698Y918460D01*
Y916944D01*
X1013278Y915544D01*
X1014350Y914472D01*
X1015750Y913892D01*
X1017266D01*
X1018666Y914472D01*
X1019738Y915544D01*
X1020318Y916944D01*
Y918460D01*
X1019738Y919860D01*
X1018839Y920759D01*
Y937260D01*
X1018661Y938152D01*
X1018156Y938908D01*
X931034Y1026030D01*
X930278Y1026535D01*
X929386Y1026713D01*
X802843D01*
X795268Y1034288D01*
Y1061620D01*
X796167Y1062520D01*
X796747Y1063920D01*
Y1065435D01*
X796167Y1066836D01*
X795095Y1067908D01*
X793695Y1068488D01*
D02*
G37*
G36*
X1120794Y923726D02*
X1118498D01*
X1116378Y922848D01*
X1114754Y921224D01*
X1113876Y919104D01*
Y916808D01*
X1114754Y914688D01*
X1116378Y913064D01*
X1118498Y912186D01*
X1120794D01*
X1122914Y913064D01*
X1124538Y914688D01*
X1125416Y916808D01*
Y919104D01*
X1124538Y921224D01*
X1122914Y922848D01*
X1120794Y923726D01*
D02*
G37*
G36*
X1090794D02*
X1088498D01*
X1086378Y922848D01*
X1084754Y921224D01*
X1083876Y919104D01*
Y916808D01*
X1084754Y914688D01*
X1086378Y913064D01*
X1088498Y912186D01*
X1090794D01*
X1092914Y913064D01*
X1094538Y914688D01*
X1095416Y916808D01*
Y919104D01*
X1094538Y921224D01*
X1092914Y922848D01*
X1090794Y923726D01*
D02*
G37*
%LPD*%
D16*
X947420Y1104900D02*
X972820D01*
X1027430Y952754D02*
X1114552D01*
X1129538Y937768D01*
X1172464D01*
X1018540Y952754D02*
X1027185D01*
X949198Y1022096D02*
Y1047242D01*
Y1022096D02*
X1018540Y952754D01*
X947420Y1104900D02*
Y1151320D01*
Y1085850D02*
Y1104900D01*
X868680Y1033526D02*
X948690D01*
X949198Y1034034D01*
Y1047242D02*
X953770Y1051814D01*
X982472Y1032764D02*
Y1045210D01*
X975868Y1051814D02*
X982472Y1045210D01*
X953770Y1051814D02*
X975868D01*
X862584Y1039622D02*
X868680Y1033526D01*
X862584Y1039622D02*
Y1055116D01*
X872744Y1065276D01*
X926846D01*
X947420Y1085850D01*
Y1151320D02*
X959866Y1163766D01*
Y1187450D01*
X955040Y1192276D02*
X959866Y1187450D01*
X888492Y1192276D02*
X955040D01*
X883666Y1187450D02*
X888492Y1192276D01*
X878840Y1163574D02*
X883666Y1168400D01*
Y1187450D01*
X756474Y1163574D02*
X878840D01*
X744220Y1151320D02*
X756474Y1163574D01*
X1168908Y1002792D02*
Y1015492D01*
X1199134Y1045718D01*
X1210310D01*
D87*
X921658Y1044848D02*
X949452Y1072642D01*
X1012952D02*
X1051936Y1111626D01*
X949452Y1072642D02*
X1012952D01*
X1051936Y1111626D02*
X1069980D01*
X929386Y1024382D02*
X1016508Y937260D01*
Y917702D02*
Y937260D01*
X801878Y1024382D02*
X929386D01*
X993648Y925830D02*
Y947674D01*
X785368Y1011936D02*
X929386D01*
X993648Y947674D01*
X909320Y1164020D02*
X922020Y1176720D01*
X909320Y1100074D02*
Y1164020D01*
Y1100074D02*
X917702Y1091692D01*
X933196D01*
X836422Y1075436D02*
X848360Y1087374D01*
X906780D01*
X962152Y1033526D02*
X980440Y1015238D01*
X1038606D02*
X1057910Y1034542D01*
X980440Y1015238D02*
X1038606D01*
X962152Y1033526D02*
Y1039876D01*
X1057910Y1034542D02*
X1073150D01*
X792937Y1033323D02*
Y1064678D01*
Y1033323D02*
X801878Y1024382D01*
X882137Y1044848D02*
X921658D01*
X769620Y1027684D02*
Y1075690D01*
Y1027684D02*
X785368Y1011936D01*
X769620Y1075690D02*
Y1151320D01*
X770128Y1075182D02*
X814324D01*
X769620Y1075690D02*
X770128Y1075182D01*
X1022096Y1062228D02*
X1039876Y1080008D01*
X965708Y1062228D02*
X1022096D01*
X814578Y1075436D02*
X836422D01*
X814324Y1075182D02*
X814578Y1075436D01*
X1084326Y1080008D02*
X1087882Y1076452D01*
X1039876Y1080008D02*
X1084326D01*
X1044956Y1036828D02*
Y1065530D01*
X1050290Y1070864D01*
D88*
X745490Y990854D02*
X831088Y905256D01*
X721868Y1135126D02*
Y1169416D01*
X745490Y990854D02*
Y1111504D01*
X721868Y1135126D02*
X745490Y1111504D01*
X831088Y905256D02*
X1025398D01*
X982599Y1032637D02*
X1011555D01*
X1011682Y1032510D01*
X982472Y1032764D02*
X982599Y1032637D01*
X1054354Y934212D02*
X1121156D01*
X1127146Y928222D01*
X1025398Y905256D02*
X1054354Y934212D01*
X1123188Y956310D02*
X1129030Y950468D01*
X1123188Y956310D02*
Y1088898D01*
X1129030Y950468D02*
X1144270D01*
X1158748Y980948D02*
Y994156D01*
X1153668Y999236D02*
X1158748Y994156D01*
X1153668Y999236D02*
Y1035050D01*
X1176020Y1057402D01*
X1119632Y1092454D02*
X1123188Y1088898D01*
X1105408Y994410D02*
X1112266Y987552D01*
Y973582D02*
Y987552D01*
X1105408Y994410D02*
Y1100328D01*
X1117854Y1112774D01*
X1235456D01*
X1249934Y1127252D01*
X1278382D01*
X721868Y1169416D02*
X728259Y1175807D01*
X1135634Y976122D02*
Y1043178D01*
X1155446Y1062990D02*
Y1082548D01*
X1135634Y1043178D02*
X1155446Y1062990D01*
X1209802Y1079754D02*
X1219200D01*
X1224788Y1074166D01*
Y1012444D02*
Y1074166D01*
X1199642Y987298D02*
X1224788Y1012444D01*
X1199642Y956310D02*
Y987298D01*
X1176020Y1057402D02*
Y1077468D01*
X728259Y1175807D02*
X743307D01*
X744220Y1176720D01*
X769620D01*
D90*
X1089646Y917956D02*
D03*
X1119646D02*
D03*
D91*
X1278382Y1127252D02*
D03*
Y1101852D02*
D03*
D92*
X1252504Y1000054D02*
D03*
Y1057854D02*
D03*
D93*
X1247604Y985704D02*
D03*
Y1072204D02*
D03*
D94*
X1289304Y985704D02*
D03*
Y1072204D02*
D03*
D95*
X903224Y993850D02*
D03*
Y923850D02*
D03*
D96*
X1275520Y1164020D02*
D03*
Y934020D02*
D03*
X695520Y1164020D02*
D03*
Y934020D02*
D03*
D97*
X1226820Y1176720D02*
D03*
Y1151320D02*
D03*
X1201420Y1176720D02*
D03*
Y1151320D02*
D03*
X1176020Y1176720D02*
D03*
Y1151320D02*
D03*
X1150620Y1176720D02*
D03*
Y1151320D02*
D03*
X1125220Y1176720D02*
D03*
Y1151320D02*
D03*
X1099820Y1176720D02*
D03*
Y1151320D02*
D03*
X1074420Y1176720D02*
D03*
Y1151320D02*
D03*
X1049020Y1176720D02*
D03*
Y1151320D02*
D03*
X1023620Y1176720D02*
D03*
Y1151320D02*
D03*
X998220Y1176720D02*
D03*
Y1151320D02*
D03*
X972820Y1176720D02*
D03*
Y1151320D02*
D03*
X947420Y1176720D02*
D03*
Y1151320D02*
D03*
X922020Y1176720D02*
D03*
Y1151320D02*
D03*
X896620Y1176720D02*
D03*
Y1151320D02*
D03*
X871220Y1176720D02*
D03*
Y1151320D02*
D03*
X845820Y1176720D02*
D03*
Y1151320D02*
D03*
X820420Y1176720D02*
D03*
Y1151320D02*
D03*
X795020Y1176720D02*
D03*
Y1151320D02*
D03*
X769620Y1176720D02*
D03*
Y1151320D02*
D03*
X744220Y1176720D02*
D03*
D98*
Y1151320D02*
D03*
D99*
X666971Y1000760D02*
D03*
X694469D02*
D03*
X666971Y1092200D02*
D03*
X694469D02*
D03*
D100*
X980593Y1093111D02*
D03*
X972820Y1104900D02*
D03*
X867309Y1075331D02*
D03*
X1172464Y937768D02*
D03*
X1027430Y952754D02*
D03*
X933196Y1091692D02*
D03*
X906780Y1087374D02*
D03*
X1011682Y1032510D02*
D03*
X982472Y1032764D02*
D03*
X1127146Y928222D02*
D03*
X1158748Y980948D02*
D03*
X1112266Y973582D02*
D03*
X1073150Y1034542D02*
D03*
X962152Y1039876D02*
D03*
X792937Y1064678D02*
D03*
X1016508Y917702D02*
D03*
X993648Y925830D02*
D03*
X882137Y1044848D02*
D03*
X1069980Y1111626D02*
D03*
X965708Y1062228D02*
D03*
X814324Y1075182D02*
D03*
X1087882Y1076452D02*
D03*
X1050290Y1070864D02*
D03*
X1044956Y1036828D02*
D03*
X1168908Y1002792D02*
D03*
X1135634Y976122D02*
D03*
X1155446Y1082548D02*
D03*
X1209802Y1079754D02*
D03*
X1199642Y956310D02*
D03*
X1119632Y1092454D02*
D03*
X1144270Y950468D02*
D03*
X1176020Y1077468D02*
D03*
X1210310Y1045718D02*
D03*
M02*
