G04*
G04 #@! TF.GenerationSoftware,Altium Limited,Altium Designer,24.0.1 (36)*
G04*
G04 Layer_Color=16711935*
%FSLAX44Y44*%
%MOMM*%
G71*
G04*
G04 #@! TF.SameCoordinates,AAA4E2E7-C06B-4B28-9501-2596A0623A30*
G04*
G04*
G04 #@! TF.FilePolarity,Negative*
G04*
G01*
G75*
%ADD71C,1.1032*%
%ADD72O,3.2512X1.7272*%
%ADD73C,0.8032*%
%ADD74O,2.2032X1.1032*%
%ADD75O,1.9032X1.1032*%
%ADD76C,1.7032*%
%ADD77C,2.9532*%
%ADD78C,1.7112*%
%ADD79R,1.7112X1.7112*%
%ADD80C,0.9533*%
%ADD81C,0.7112*%
D71*
X1089646Y917956D02*
D03*
X1119646D02*
D03*
D72*
X1278382Y1127252D02*
D03*
Y1101852D02*
D03*
D73*
X1252504Y1000054D02*
D03*
Y1057854D02*
D03*
D74*
X1247604Y985704D02*
D03*
Y1072204D02*
D03*
D75*
X1289304Y985704D02*
D03*
Y1072204D02*
D03*
D76*
X903224Y993850D02*
D03*
Y923850D02*
D03*
D77*
X1275520Y1164020D02*
D03*
Y934020D02*
D03*
X695520Y1164020D02*
D03*
Y934020D02*
D03*
D78*
X1226820Y1176720D02*
D03*
Y1151320D02*
D03*
X1201420Y1176720D02*
D03*
Y1151320D02*
D03*
X1176020Y1176720D02*
D03*
Y1151320D02*
D03*
X1150620Y1176720D02*
D03*
Y1151320D02*
D03*
X1125220Y1176720D02*
D03*
Y1151320D02*
D03*
X1099820Y1176720D02*
D03*
Y1151320D02*
D03*
X1074420Y1176720D02*
D03*
Y1151320D02*
D03*
X1049020Y1176720D02*
D03*
Y1151320D02*
D03*
X1023620Y1176720D02*
D03*
Y1151320D02*
D03*
X998220Y1176720D02*
D03*
Y1151320D02*
D03*
X972820Y1176720D02*
D03*
Y1151320D02*
D03*
X947420Y1176720D02*
D03*
Y1151320D02*
D03*
X922020Y1176720D02*
D03*
Y1151320D02*
D03*
X896620Y1176720D02*
D03*
Y1151320D02*
D03*
X871220Y1176720D02*
D03*
Y1151320D02*
D03*
X845820Y1176720D02*
D03*
Y1151320D02*
D03*
X820420Y1176720D02*
D03*
Y1151320D02*
D03*
X795020Y1176720D02*
D03*
Y1151320D02*
D03*
X769620Y1176720D02*
D03*
Y1151320D02*
D03*
X744220Y1176720D02*
D03*
D79*
Y1151320D02*
D03*
D80*
X666971Y1000760D02*
D03*
X694469D02*
D03*
D81*
X980593Y1093111D02*
D03*
X972820Y1104900D02*
D03*
X867309Y1075331D02*
D03*
X1172464Y937768D02*
D03*
X1027430Y952754D02*
D03*
X933196Y1091692D02*
D03*
X906780Y1087374D02*
D03*
X1011682Y1032510D02*
D03*
X982472Y1032764D02*
D03*
X1127146Y928222D02*
D03*
X1158748Y980948D02*
D03*
X1112266Y973582D02*
D03*
X1073150Y1034542D02*
D03*
X962152Y1039876D02*
D03*
X792937Y1064678D02*
D03*
X1016508Y917702D02*
D03*
X993648Y925830D02*
D03*
X882137Y1044848D02*
D03*
X1069980Y1111626D02*
D03*
X965708Y1062228D02*
D03*
X814324Y1075182D02*
D03*
X1087882Y1076452D02*
D03*
X1050290Y1070864D02*
D03*
X1044956Y1036828D02*
D03*
X1168908Y1002792D02*
D03*
X1135634Y976122D02*
D03*
X1155446Y1082548D02*
D03*
X1209802Y1079754D02*
D03*
X1199642Y956310D02*
D03*
X1119632Y1092454D02*
D03*
X1144270Y950468D02*
D03*
X1176020Y1077468D02*
D03*
X1210310Y1045718D02*
D03*
M02*
