G04*
G04 #@! TF.GenerationSoftware,Altium Limited,Altium Designer,24.0.1 (36)*
G04*
G04 Layer_Color=8421504*
%FSLAX44Y44*%
%MOMM*%
G71*
G04*
G04 #@! TF.SameCoordinates,AAA4E2E7-C06B-4B28-9501-2596A0623A30*
G04*
G04*
G04 #@! TF.FilePolarity,Positive*
G04*
G01*
G75*
%ADD24R,0.4900X0.6000*%
%ADD25R,0.6000X0.4900*%
%ADD26R,0.2900X0.3000*%
%ADD27R,0.3000X0.2900*%
%ADD28R,0.8000X0.8000*%
%ADD29R,1.2100X0.5900*%
G04:AMPARAMS|DCode=30|XSize=1.97mm|YSize=0.6mm|CornerRadius=0.075mm|HoleSize=0mm|Usage=FLASHONLY|Rotation=0.000|XOffset=0mm|YOffset=0mm|HoleType=Round|Shape=RoundedRectangle|*
%AMROUNDEDRECTD30*
21,1,1.9700,0.4500,0,0,0.0*
21,1,1.8200,0.6000,0,0,0.0*
1,1,0.1500,0.9100,-0.2250*
1,1,0.1500,-0.9100,-0.2250*
1,1,0.1500,-0.9100,0.2250*
1,1,0.1500,0.9100,0.2250*
%
%ADD30ROUNDEDRECTD30*%
%ADD31R,0.7000X1.1000*%
%ADD32R,1.0000X0.8000*%
G04:AMPARAMS|DCode=33|XSize=1.56mm|YSize=0.4mm|CornerRadius=0.05mm|HoleSize=0mm|Usage=FLASHONLY|Rotation=180.000|XOffset=0mm|YOffset=0mm|HoleType=Round|Shape=RoundedRectangle|*
%AMROUNDEDRECTD33*
21,1,1.5600,0.3000,0,0,180.0*
21,1,1.4600,0.4000,0,0,180.0*
1,1,0.1000,-0.7300,0.1500*
1,1,0.1000,0.7300,0.1500*
1,1,0.1000,0.7300,-0.1500*
1,1,0.1000,-0.7300,-0.1500*
%
%ADD33ROUNDEDRECTD33*%
G04:AMPARAMS|DCode=34|XSize=0.26mm|YSize=0.84mm|CornerRadius=0.0325mm|HoleSize=0mm|Usage=FLASHONLY|Rotation=90.000|XOffset=0mm|YOffset=0mm|HoleType=Round|Shape=RoundedRectangle|*
%AMROUNDEDRECTD34*
21,1,0.2600,0.7750,0,0,90.0*
21,1,0.1950,0.8400,0,0,90.0*
1,1,0.0650,0.3875,0.0975*
1,1,0.0650,0.3875,-0.0975*
1,1,0.0650,-0.3875,-0.0975*
1,1,0.0650,-0.3875,0.0975*
%
%ADD34ROUNDEDRECTD34*%
G04:AMPARAMS|DCode=35|XSize=0.84mm|YSize=0.26mm|CornerRadius=0.0325mm|HoleSize=0mm|Usage=FLASHONLY|Rotation=90.000|XOffset=0mm|YOffset=0mm|HoleType=Round|Shape=RoundedRectangle|*
%AMROUNDEDRECTD35*
21,1,0.8400,0.1950,0,0,90.0*
21,1,0.7750,0.2600,0,0,90.0*
1,1,0.0650,0.0975,0.3875*
1,1,0.0650,0.0975,-0.3875*
1,1,0.0650,-0.0975,-0.3875*
1,1,0.0650,-0.0975,0.3875*
%
%ADD35ROUNDEDRECTD35*%
%ADD36R,0.5300X0.2500*%
%ADD37R,0.3000X0.5800*%
%ADD38R,1.1400X0.6000*%
%ADD39R,1.1400X0.3000*%
%ADD40R,2.0000X1.5000*%
G04:AMPARAMS|DCode=41|XSize=1.26mm|YSize=0.59mm|CornerRadius=0.0738mm|HoleSize=0mm|Usage=FLASHONLY|Rotation=270.000|XOffset=0mm|YOffset=0mm|HoleType=Round|Shape=RoundedRectangle|*
%AMROUNDEDRECTD41*
21,1,1.2600,0.4425,0,0,270.0*
21,1,1.1125,0.5900,0,0,270.0*
1,1,0.1475,-0.2213,-0.5563*
1,1,0.1475,-0.2213,0.5563*
1,1,0.1475,0.2213,0.5563*
1,1,0.1475,0.2213,-0.5563*
%
%ADD41ROUNDEDRECTD41*%
%ADD42R,1.3000X3.4000*%
%ADD43R,1.0000X1.5499*%
%ADD44R,0.2540X0.3048*%
%ADD45R,0.3048X0.2540*%
G04:AMPARAMS|DCode=46|XSize=0.38mm|YSize=0.35mm|CornerRadius=0.0158mm|HoleSize=0mm|Usage=FLASHONLY|Rotation=90.000|XOffset=0mm|YOffset=0mm|HoleType=Round|Shape=RoundedRectangle|*
%AMROUNDEDRECTD46*
21,1,0.3800,0.3185,0,0,90.0*
21,1,0.3485,0.3500,0,0,90.0*
1,1,0.0315,0.1593,0.1743*
1,1,0.0315,0.1593,-0.1743*
1,1,0.0315,-0.1593,-0.1743*
1,1,0.0315,-0.1593,0.1743*
%
%ADD46ROUNDEDRECTD46*%
G36*
X885046Y1061018D02*
X879746D01*
Y1063518D01*
X885046D01*
Y1061018D01*
D02*
G37*
G36*
Y1066018D02*
X879746D01*
Y1068518D01*
X885046D01*
Y1066018D01*
D02*
G37*
G36*
X897746Y1061018D02*
X892446D01*
Y1063518D01*
X897746D01*
Y1061018D01*
D02*
G37*
G36*
Y1066018D02*
X892446D01*
Y1068518D01*
X897746D01*
Y1066018D01*
D02*
G37*
G36*
X1012468Y1074944D02*
X1002668D01*
Y1084744D01*
X1012468D01*
Y1074944D01*
D02*
G37*
G36*
X999268D02*
X989468D01*
Y1084744D01*
X999268D01*
Y1074944D01*
D02*
G37*
G36*
X1012468Y1061744D02*
X1002668D01*
Y1071544D01*
X1012468D01*
Y1061744D01*
D02*
G37*
G36*
X999268D02*
X989468D01*
Y1071544D01*
X999268D01*
Y1061744D01*
D02*
G37*
G36*
X1171854Y1018557D02*
X1158954D01*
Y1034957D01*
X1171854D01*
Y1018557D01*
D02*
G37*
D24*
X783846Y1098550D02*
D03*
X792986D02*
D03*
X814322Y1083818D02*
D03*
X805182D02*
D03*
X843278Y1101852D02*
D03*
X834138D02*
D03*
X843278Y1092200D02*
D03*
X834138D02*
D03*
X984506Y907034D02*
D03*
X993646D02*
D03*
Y917194D02*
D03*
X984506D02*
D03*
X1211582Y931164D02*
D03*
X1220722D02*
D03*
X955804Y1083564D02*
D03*
X964944D02*
D03*
Y1073150D02*
D03*
X955804D02*
D03*
X1256282Y931926D02*
D03*
X1247142D02*
D03*
X1144268Y960628D02*
D03*
X1135128D02*
D03*
X878334Y1086866D02*
D03*
X887474D02*
D03*
D25*
X707390Y1118110D02*
D03*
Y1127250D02*
D03*
Y1035810D02*
D03*
Y1026670D02*
D03*
X829564Y1032004D02*
D03*
Y1041144D02*
D03*
X982472Y1018030D02*
D03*
Y1008890D02*
D03*
X1011682Y1009144D02*
D03*
Y1018284D02*
D03*
X1063498Y1044448D02*
D03*
Y1053588D02*
D03*
X1073150Y1044702D02*
D03*
Y1053842D02*
D03*
Y1071622D02*
D03*
Y1062482D02*
D03*
X992124Y1008890D02*
D03*
Y1018030D02*
D03*
X1001776D02*
D03*
Y1008890D02*
D03*
X1191260Y994662D02*
D03*
Y985522D02*
D03*
X1021334Y1009144D02*
D03*
Y1018284D02*
D03*
X1073150Y1080516D02*
D03*
Y1089656D02*
D03*
X1116584Y1042668D02*
D03*
Y1033528D02*
D03*
X1063244Y1089656D02*
D03*
Y1080516D02*
D03*
X1049782Y1089658D02*
D03*
Y1080518D02*
D03*
X1039622Y1089658D02*
D03*
Y1080518D02*
D03*
X906272Y1077212D02*
D03*
Y1068072D02*
D03*
X1183132Y928626D02*
D03*
Y937766D02*
D03*
D26*
X808858Y1118870D02*
D03*
X804418D02*
D03*
X1032002Y944372D02*
D03*
X1027562D02*
D03*
X1024758Y1041908D02*
D03*
X1020318D02*
D03*
X995548Y1104900D02*
D03*
X991108D02*
D03*
X1069980Y1097278D02*
D03*
X1074420D02*
D03*
D27*
X1040638Y916564D02*
D03*
Y921004D02*
D03*
X1044956Y1047618D02*
D03*
Y1043178D02*
D03*
X969518Y1054100D02*
D03*
Y1049660D02*
D03*
X1205230Y980694D02*
D03*
Y976254D02*
D03*
X965962Y1091692D02*
D03*
Y1096132D02*
D03*
X1221994Y1081417D02*
D03*
Y1085857D02*
D03*
X1031494Y1068202D02*
D03*
Y1072642D02*
D03*
X915924Y1071626D02*
D03*
Y1067186D02*
D03*
D28*
X1200282Y918972D02*
D03*
X1216782D02*
D03*
X1235466Y919226D02*
D03*
X1164600Y918972D02*
D03*
X1181100D02*
D03*
X1251966Y919226D02*
D03*
D29*
X1159406Y970128D02*
D03*
Y960628D02*
D03*
Y951128D02*
D03*
X1184506D02*
D03*
Y970128D02*
D03*
Y960628D02*
D03*
D30*
X1190154Y1033107D02*
D03*
X1140655Y1045807D02*
D03*
Y1033107D02*
D03*
Y1020407D02*
D03*
Y1007707D02*
D03*
X1190154D02*
D03*
Y1020407D02*
D03*
Y1045807D02*
D03*
D31*
X1082146Y938456D02*
D03*
X1112146D02*
D03*
X1127146D02*
D03*
D32*
X1067146Y929456D02*
D03*
Y906456D02*
D03*
X1142146Y929456D02*
D03*
Y906456D02*
D03*
D33*
X1137314Y1073306D02*
D03*
Y1079806D02*
D03*
Y1086306D02*
D03*
Y1092806D02*
D03*
X1194914D02*
D03*
Y1086306D02*
D03*
Y1079806D02*
D03*
Y1073306D02*
D03*
D34*
X1020318Y1063244D02*
D03*
Y1068244D02*
D03*
Y1073244D02*
D03*
Y1078244D02*
D03*
Y1083244D02*
D03*
X981618D02*
D03*
Y1078244D02*
D03*
Y1073244D02*
D03*
Y1068244D02*
D03*
Y1063244D02*
D03*
D35*
X990968Y1053894D02*
D03*
X995968D02*
D03*
X1000968D02*
D03*
X1005968D02*
D03*
X1010968D02*
D03*
Y1092594D02*
D03*
X1005968D02*
D03*
X1000968D02*
D03*
X995968D02*
D03*
X990968D02*
D03*
D36*
X895096Y1057268D02*
D03*
X882396D02*
D03*
Y1072268D02*
D03*
X895096D02*
D03*
D37*
X888746Y1056168D02*
D03*
Y1073368D02*
D03*
D38*
X1241804Y996954D02*
D03*
Y1004954D02*
D03*
Y1052954D02*
D03*
Y1060954D02*
D03*
D39*
Y1026454D02*
D03*
Y1021454D02*
D03*
Y1016454D02*
D03*
Y1011454D02*
D03*
Y1031454D02*
D03*
Y1036454D02*
D03*
Y1041454D02*
D03*
Y1046454D02*
D03*
D40*
X868224Y1013850D02*
D03*
Y991850D02*
D03*
X938224Y1008850D02*
D03*
Y953850D02*
D03*
X868224Y919850D02*
D03*
X938224D02*
D03*
D41*
X805180Y1015090D02*
D03*
X795180Y1034690D02*
D03*
X815180D02*
D03*
D42*
X814390Y953770D02*
D03*
X727390D02*
D03*
D43*
X672221Y1027011D02*
D03*
X689219D02*
D03*
X672221Y974509D02*
D03*
X689219D02*
D03*
D44*
X1006761Y907923D02*
D03*
X1010761D02*
D03*
X1014762D02*
D03*
X1018762D02*
D03*
X1022763D02*
D03*
X1026763D02*
D03*
Y934593D02*
D03*
X1022763D02*
D03*
X1018762D02*
D03*
X1014762D02*
D03*
X1010761D02*
D03*
X1006761D02*
D03*
D45*
X1030097Y911257D02*
D03*
Y915257D02*
D03*
Y919258D02*
D03*
Y923258D02*
D03*
Y927259D02*
D03*
Y931259D02*
D03*
X1003427D02*
D03*
Y927259D02*
D03*
Y923258D02*
D03*
Y919258D02*
D03*
Y915257D02*
D03*
Y911257D02*
D03*
D46*
X805912Y1104860D02*
D03*
Y1099860D02*
D03*
X808562Y1094710D02*
D03*
X813562D02*
D03*
X818562D02*
D03*
X821212Y1099860D02*
D03*
Y1104860D02*
D03*
X818562Y1110010D02*
D03*
X813562D02*
D03*
X808562D02*
D03*
M02*
